<?xml version="1.0" encoding="utf-8"?>
<!-- Generator: Adobe Illustrator 24.0.1, SVG Export Plug-In . SVG Version: 6.00 Build 0)  -->
<svg version="1.1" id="Layer_1" xmlns="http://www.w3.org/2000/svg" xmlns:xlink="http://www.w3.org/1999/xlink" x="0px" y="0px"
	 viewBox="0 0 79.4 32" style="enable-background:new 0 0 79.4 32;" xml:space="preserve">
<style type="text/css">
	.st0{fill:#E6B308;}
</style>
<g id="Layer_2_1_">
</g>
<path class="st0" d="M73.9,16c-6.6,0-11.6,4.7-11.6,11.1c0,2.9,1.6,4.6,3.6,4.6c0.7,0,2-0.2,2.8-0.8c-1.3-8.8,5-14.3,10.7-14.9
	c-5.7-0.7-12-6.2-10.7-15c-0.8-0.6-2.1-0.8-2.8-0.8c-2,0-3.7,1.7-3.7,4.6C62.2,11.2,67.3,16,73.9,16 M64.7,15.8
	c-3.3-1-47-3.3-55.7-3.3c-4.6,0-9,0.6-9,4c0,3.4,4.4,4.1,9,4.1C17.7,20.6,61.4,17,64.7,15.8"/>
</svg>
