<?xml version="1.0" encoding="utf-8"?>
<!-- Generator: Adobe Illustrator 24.0.1, SVG Export Plug-In . SVG Version: 6.00 Build 0)  -->
<svg version="1.1" id="Layer_1" xmlns="http://www.w3.org/2000/svg" xmlns:xlink="http://www.w3.org/1999/xlink" x="0px" y="0px"
	 viewBox="0 0 89 32" style="enable-background:new 0 0 89 32;" xml:space="preserve">
<style type="text/css">
	.st0{fill:#D2D8C0;}
</style>
<g id="Layer_2_1_">
</g>
<g>
	<path class="st0" d="M0,4.9C0,2,1.7,0.3,3.7,0.3c0.7,0,1.9,0.2,2.8,0.8c-1.3,8.8,5,14.3,10.7,15c-5.7,0.6-12,6.1-10.7,14.9
		c-0.8,0.6-2.1,0.8-2.8,0.8c-2,0-3.6-1.7-3.6-4.6c0-6.3,5-11.1,11.6-11.1C5.1,16,0,11.2,0,4.9z"/>
</g>
<g>
	<g>
		<path class="st0" d="M89,16.5h-4.1v-1H89V16.5z M80.7,16.5h-4.1v-1h4.1V16.5z M72.5,16.5h-4.1v-1h4.1V16.5z M64.2,16.5h-4.1v-1
			h4.1V16.5z M56,16.5h-4.1v-1H56V16.5z M47.7,16.5h-4.1v-1h4.1V16.5z M39.5,16.5h-4.1v-1h4.1V16.5z M31.2,16.5h-4.1v-1h4.1V16.5z
			 M23,16.5h-4.1v-1H23V16.5z"/>
	</g>
</g>
</svg>
