<svg xmlns="http://www.w3.org/2000/svg" fill="#f9f9f9" id="splat" data-name="splat" viewBox="0 0 229.61 254.89">
  <path d="M130.44.06c.8-.4.8 1.23 0 .83zM197.56 1.16c1-.21.59 1.77-.28 1.37a1.77 1.77 0 01.28-1.37zM197.56 8.28c.82.18-.26.59 0 1.1-.69-.04-.08-.93 0-1.1zM54.28 8.56a.58.58 0 110 1.09zM30.45 9.38c.8-.41.8 1.22 0 .82zM128.52 12.39c-.64 0-.81.47-1.64.28-1.64-2.41 2.42-3.6 1.64-.28zM101.67 11.57c.7 0 .55-.14.55.55-.69 0-.55.14-.55-.55zM42.5 12.12c.57-.12.73.19 1.1.27a1.28 1.28 0 00-.28.82c-.72.08-.89-.38-.82-1.09zM88.25 15.41c-.28 1.34-1.76.58-3 .54-8.5-.3-1.78-2.52 3-.54zM148 16.23a1 1 0 01.82 1.64c-1.26.37-1.36-1.1-.82-1.64zM158.11 25.54c-.53-.75-1.93-.63-2.47-1.37-1.87-5 5-6.7 5.21-2.46.09 1.84-1.98 2.29-2.74 3.83zM37.3 21.71c1.14 1.06-.31 2.5-1.37 1.36-.19-1.07.26-1.56 1.37-1.36zM40.58 23.62c.69 0 .55-.14.55.55-.69 0-.55.14-.55-.55zM14.29 23.9a2.28 2.28 0 011.64.27c-.07.83-1.78.63-1.64-.27zM105.23 24.17c.6.67.21 2-.82 1.92-1.27-2.66 1.23-1.92.82-1.92zM126.6 26.36c.7 0 .55-.14.55.55-.69 0-.55.14-.55-.55zM42.23 27.73c.69 0 .55-.14.55.55-.69 0-.55.14-.55-.55zM68.25 28.55c.86-.12 1.23.24 1.1 1.1-1.35 0-1.1.28-1.1-1.1zM157.83 28.55c1.69-.39 1.25 2.17 0 1.92-.54-.47-.13-1.29 0-1.92zM93.73 29.92c.16 1.44-1.13 1.45-1.1.28a1.52 1.52 0 011.1-.28zM150.16 32.11c1.51-.21 1.15 1.7 0 1.65-.53-.51-.08-1 0-1.65zM129.07 33.21c.46-.1.52.22.55.55-.38-.09-.35.95-.55-.55zM71 34.86c1.13-.28 1.31 1.12.83 1.64-1.24.37-1.35-1.11-.83-1.64zM96.47 36a2.24 2.24 0 01-1.65-.55c-.07-1.15 2.24-.66 1.65.55zM138.93 39.24c-.48.24-.69.76-1.64.54-1.5-2.17 2.1-3.63 1.64-.54zM163.86 38.14c.69 0 .55-.14.55.55-.69 0-.55.14-.55-.55zM188.79 39a2 2 0 01-1.1 2.2c-2.47-.31-.16-4.12 1.1-2.2zM51.82 39c.58-.12.52.4.54.82-.22-.05-.27-.27-.54-.27zM183 39.24c.63-.09.3.79.82.82 0 .52-.91.19-.82.82-.74-.28.11-1.16 0-1.64zM162.49 39.78a2.29 2.29 0 01-1.37 2.74c-2.22-.33-.84-4.35 1.37-2.74zM100.85 40.61c.54-.11.4 1.24-.27.82 0-.9.22-.27.27-.82zM103 40.88c.49.2 0 .5 0 .82-.44-.2 0-.5 0-.82zM181.67 41.7c1 .44 2.76.16 2.73 1.65a2.49 2.49 0 01-2.73-1.65zM120.58 42.8v1.64a.91.91 0 110-1.64zM151.81 45c.69 0 .54-.14.54.55-.68-.01-.54.13-.54-.55zM146.33 47.46c.14 1-.44 1.2-.82 1.64-1.8-.31-.15-3.41.82-1.64zM129.89 47.18v1.65h-1.09a1 1 0 011.09-1.65zM133.45 47.73c1.32-.13.79 1.59.28 1.92-1.04-.29-.81-1.24-.28-1.92zM226.32 48.28c-.1.36-.48.43-.55.82-.68-.1-.01-1.1.55-.82zM82.77 48.83c0-.42 2-.6 1.65.27-.84.2-1-.28-1.65-.27zM113.45 48.83c.53-.11.4 1.24-.27.82v-.55c.23.05.26-.1.27-.27zM162.49 49.1c.29.91-.09.93.27 1.92-.59.69-2.28 1.26-3 .27-.16-1.93.94-2.96 2.73-2.19zM60.58 49.1c.69 0 .55-.14.55.55-.69 0-.55.14-.55-.55zM211.25 50.19c.05 0 .58-.52.82-.27.42.42-1.68 1.14-.82.27zM58.94 51.57c.69 0 .55-.15.55.54-.69 0-.55.15-.55-.54zM101.67 51.57a1 1 0 01.55 1.64c-1.03.23-.97-1.21-.55-1.64zM136.47 57.32c-3.74 2-4.36-3.13-1.92-4.66 2.27.04 3.1 2.76 1.92 4.66zM83.32 53.21c.64.07.63.73.27 1.1-.59-.08-.59-.74-.27-1.1zM143.86 53.21c.16 1.17-.09 1.92-1.37 1.64-.16-1.16.09-1.92 1.37-1.64zM96.47 54.58c1-.19 1 1 .55 1.37a.79.79 0 01-.55-1.37zM177.56 54.58c1.08-.36.56.9 1.64.55.06 1-.18 1.64-.82 1.91-.88.24-.85-.43-1.37-.54-.31-1.14.57-1.07.55-1.92zM149.89 55.13v1.09h-1.1c.33-.41.21-1.22 1.1-1.09zM106.06 56.5c.69 0 .55-.15.55.54-.69-.04-.55.15-.55-.54zM97 56.77h.55c0 .23.1.26.27.27 0 .9-.23.28-.27.83-1.09 0-.83-.93-.83-.83.28.06.28-.1.28-.27zM170.71 57c-.05.32.06.49.27.55 0 1.14-1.07 1.24-1.92.82a1.77 1.77 0 011.65-1.37zM211.53 57.59c.53-.11.4 1.25-.28.82v-.54c.24.05.26-.11.28-.28zM217.82 59c.47-.1.52.22.56.55-.38-.12-.38.91-.56-.55zM16.75 59.24c.88-.24.57.7 1.1.82-.54.94-1.72.12-1.1-.82zM92.08 59.24c.57.15.59.42.28.82-1.03 0-.25.1-.28-.82zM131.81 59.78c1.82 3.19.24 7.88-2.47 4.11.91-1.29.52-3.89 2.47-4.11zM9.36 60.06c.79-.4.79 1.22 0 .82zM42.78 60.33c1.29.09 1.81 1.94-.28 1.65a2.29 2.29 0 01.28-1.65zM116.74 60.33c2.65 1.86 1.71 6-1.64 3.29-.43-2.07.97-2.32 1.64-3.29zM196.73 60.88a.75.75 0 01-.82.55c-.12-.59.39-.52.82-.55zM145 61.15c1.24-.2 1 1.83-.28 1.37a1.82 1.82 0 01.28-1.37zM121.67 62c1.07.11.74.93.28 1.36-.7-.04-.65-1.04-.28-1.36zM95.65 62.25a.77.77 0 01-.82.55c-.13-.59.39-.53.82-.55zM165.23 62.8c.69 0 .55-.15.55.55-.69 0-.55.14-.55-.55zM178.38 63.35c.69 0 .55-.15.55.54-.69 0-.55.11-.55-.54zM92.63 63.89a.59.59 0 110 1.1zM167.15 65a10.42 10.42 0 01-.55 1.91c-2.98.71-1.45-3.33.55-1.91zM51 65a.64.64 0 01.54 1.09A1.19 1.19 0 0151 65zM143.86 65.26c.69 0 .55-.14.55.55-.69 0-.55.19-.55-.55zM66.33 65.54c.69 0 .55-.15.55.54-.69 0-.55.15-.55-.54zM126.06 65.54h1.09a1.71 1.71 0 010 1.91c-1.49 0-1.54.22-1.09-1.91zM135.65 71c.08.82.84 1 .54 2.19a5.39 5.39 0 01-.82-1.92c-1.46.2-1.64.36-2.74-.27-.45.39.33 1.46-.82 1.64-1.52-.09-.78-1.38-1.1-2.19 1.87 1.23-.84-1.14 1.37-4.39 4.05-2.42 6.1 2.94 3.57 4.94zM153.45 66.08c.72 0 .55-.21.55.83-1.5 0-.57-.32-.55-.83zM117.56 69.37c-.8 0-1-.62-1.36-1.09.17-3.38 3.8-.28 1.36 1.09zM44.69 66.9c.49.07.63.48.55 1.1-.82.28-.48-.61-.55-1.1zM195.36 67.18c.55-.09.86.06.83.55-1.04 0-.83.16-.83-.55zM109.07 68.82c-.4-.35-.61.49-1.64 0 .35-1.34 1.9 0 1.92-1.37 1.8-.16 2.43.85 2.46 2.47-.9 1.57-3.26.08-2.74-1.1zM35.11 67.73c1.82.54-1.71 5.79-1.92 8.22-.19-2.95 1.62-5.62 1.92-8.22zM62.77 68h1.1c0 .49.34.58.27 1.1-.67.64-1.72.11-1.37-1.1zM15.66 68.82c1.53 2.13-1.27 3.59-2.74 1.92a1.9 1.9 0 012.74-1.92zM144.41 69.37c1.39 3.24-3.07 4-3 1.37.01-1.13 1.27-2.13 3-1.37zM78.12 69.37c1.91.68.72.82.82 1.65-.75.19-.55-.55-1.1-.55-.03-.47.34-.58.28-1.1z" class="cls-1" transform="translate(.51)"/>
  <path d="M130.44 69.64v-.27c1.31-.23-1.29 1.77 0 .27zM115.1 69.64c1.32-.3 1.48 1.78 0 1.38zM103.32 69.92a3.1 3.1 0 011.91 1.64c-.4 3.44-5.65.84-1.91-1.64zM94.82 70.47c.7 0 .55-.15.55.55-.69-.02-.55.14-.55-.55zM89.62 71.84c.12 2.33-.43 1.34-1.09 1.37-.28-1.97 1.19-1.37 1.09-1.37zM159.2 71.84c1 .17.25 1.14-.55 1.09.15-.4.41-.69.55-1.09zM137.29 72.38h1.09c.25 1.78-1.23 2-1.09 0zM122 72.66a1 1 0 11-.28 1.92 1.49 1.49 0 01.28-1.92zM147.42 72.66c.7 0 .55-.14.55.55-.69 0-.55.14-.55-.55zM158.11 73.21c.69 0 .54-.15.54.54-.65 0-.54.15-.54-.54zM66.33 73.48c.4.24 1.07.22.83 1.1-.97.2-1.23-.72-.83-1.1zM186.32 74.85h-1.09c-.29-2.06 1.41-1.4 1.09 0zM35.65 74c.69 0 .55-.15.55.55-.69.03-.55.17-.55-.55zM143.31 74.3c-.11.85-1.69 1.71-1.64.28.71-.5.83.12 1.64-.28zM182.49 74.3c.57.16.58.43.27.82-1.1 0-.29-.37-.27-.82zM91.54 74.58c.85 0 1.23 1 .82 1.37-1.07.05-.82.34-.82-1.37zM53.73 77.59c-1.16 3.09-6.18 3.2-5.75-1.37 1.24-2.15 6.02-1.76 5.75 1.37zM117.56 75.4a.75.75 0 01.55.82c-.95.24-.94-.42-.55-.82zM186.87 75.4c.47-.1.52.21.55.55-.42-.09-.35.95-.55-.55zM104.14 76.77c0 .86.26 1.6-1.37 1.37-.47-.91.1-1.49 1.37-1.37zM82.77 77c1-.06 1.43.4 1.37 1.37-.57.63-2.46.19-1.37-1.37zM171.81 77.86c-.12-.53 1.24-.4.82.28-.92 0-.27-.22-.82-.28zM181.12 78.41a1.21 1.21 0 00.82.27c.2.75-.54.56-.55 1.1-.69-.03-.64-1.02-.27-1.37zM91.54 79c.06 1 .37 1.05 0 1.92-1.24.14-1.79-.4-1.64-1.65a2.32 2.32 0 011.64-.27zM100 79a3.43 3.43 0 01.55 4.11c-3.48 2.39-5.83-5.06-.55-4.11zM184.68 79.78c.13.86-.24 1.22-1.09 1.1-.13-.88.23-1.23 1.09-1.1zM12.37 80.6c.71-.07 1.18.1 1.09.82-.46.58-1.32.16-1.09-.82zM86.06 80.6c2.2 1 1.47 1.85 0 1.65a1.37 1.37 0 010-1.65zM101.67 80.88c.49.06.63.47.55 1.1a.65.65 0 01-.55-1.1zM88 81.7c.78 0 1.3.34 1.09 1.37-1.03.19-1.23-.44-1.09-1.37zM92.63 81.7c3-.16 1.71 3-.27 2.47.09-1.32.23-.99.27-2.47zM214 82c-.24.4-.21 1.06-1.09.82.23-.43.4-.89 1.09-.82zM187.15 82.25c.16 1.43-1.14 1.46-1.1.27a1.56 1.56 0 011.1-.27zM55.65 83.07c.09-.33.73-.22.82 0 .25.59-1 .63-.82 0zM167.7 83.07c.69 0 .54-.15.54.55-.68 0-.54.14-.54-.55zM86.06 83.34c1.92-.22 2.71 2.48 0 1.65zM202.48 83.62a1.37 1.37 0 00.83.27c-.17.57-.43 1-1.37.82-.2-.71.54-.55.54-1.09zM129.62 84.17c.68 0 .54-.15.54.54-.68 0-.54.15-.54-.54zM69.35 87.18c-4.88-.44.71-5 .82-1.37.02.75-.24.75-.82 1.37zM77.57 84.44c1.3.34 2.61-.47 2.46 1.64a2.28 2.28 0 01-1.64.27c.45-1.35-.95-.87-.82-1.91zM191 85.81c.52-.53 3.17-1.68 3.56-1.1.61.88 1.76.44 1.92 1.92.41 3.95-7.56 4.79-5.48-.82zM175.37 85v1.36a1.69 1.69 0 01-1.92 0 1.21 1.21 0 011.92-1.36zM186.87 85a1.16 1.16 0 01-1.87 1.08 1.26 1.26 0 011.87-1.08zM198.1 84.71c1.49.58.19 1.16-.27 1.92-.64-.09-.61-.85-1.1-1.1.09-.64 1.2-.26 1.37-.82zM130.44 85.26c.69 0 .55-.14.55.55-.69 0-.55.19-.55-.55zM172.08 85.53c.48.07.62.48.55 1.1-1.31 0-.84.13-.55-1.1zM52.91 85.81c.72-.08 1.18.1 1.1.82-.53-.12-1.18-.1-1.1-.82zM199.2 85.81c.69 0 .55-.15.55.55-.69 0-.55.14-.55-.55zM27.71 88.27c-1.26-.47-3.32-.14-3.29-1.92a2.43 2.43 0 013.29 1.92zM86.06 86.35c-.11-.52 1.25-.39.82.28h-.55c.05-.23-.1-.26-.27-.28zM181.39 86.35c.72 0 .55-.21.55.83-1.5 0-.57-.32-.55-.83zM129.07 86.9c0-.1.58-.48.82-.27.54.47-1.22 1.37-.82.27zM188.79 86.63a1.21 1.21 0 00.55 1.1 1.68 1.68 0 01-2.74.82c-.3-1.67.71-2.03 2.19-1.92zM65.79 86.9h.54c.13.59-.39.52-.82.55.06-.22.28-.27.28-.55zM132.08 86.9c1.74 0 1-.21.55 1.1-.48-.07-.63-.47-.55-1.1zM122.77 87.18c.33-.09.13.46.27.55 1.63 1 3.14 1.9 3.29 4.38-2.07-.09-3.69 3.39-5.75-1.1-.44.75.07 1.18 0 2.47-1.22.23-2.38-1.77-2.47-3.56 1.31-.25 1.79-1.32 3.29-1.37a.28.28 0 000-.55c.36-1 1.79.81 1.37-.82zM176.46 87.73v.54c-1.33.28-.46-1.46 0-.54zM145.51 87.73c.48.2 0 .49 0 .82-.51-.2-.04-.5 0-.82zM207.42 87.73c.8-.41.8 1.22 0 .82zM212.35 88.27a.75.75 0 01-.82.55c-.13-.58.39-.52.82-.55zM106.33 88.55c.57-.12.73.18 1.1.27.09.49-1.54.49-1.1-.27zM128.8 88.55c1.72 0 1.36-.29 1.36 1.1-1.72 0-1.36.28-1.36-1.1zM217.82 88.82c-.1-.53 1.26-.4.83.28h-.55c.05-.24-.1-.26-.28-.28zM55.93 90.19h-1.1c-.25-1.27 1.45-1.4 1.1 0zM104.41 89.1c.7 0 .65 1 .28 1.36-.57.12-.73-.18-1.1-.27-.24-.88.71-.57.82-1.09zM205.23 89.1c-.2.55-.83 1.11-1.37.54.04-.64.69-.59 1.37-.54zM140.58 89.92c-.52 1.52 1 1 1.09 1.92.74.18.53-.57.82-.83.82.19-.26.59 0 1.1-1.82-.27-2.43.67-3.28 1.37-.49-.24-.85-.92-1.1 0-.64-1-.38-1.77-.27-3 .6.14 1.51-1.39 1.64 0 .89.32.21-.9 1.1-.56zM28.53 90.47c0-.11.58-.49.82-.28.54.47-1.2 1.31-.82.28zM63.87 90.19c.69 0 .55-.14.55.55-.69 0-.55.14-.55-.55zM196.19 90.19c1.11-.08.14.57.27 1.1-.37-.09-.23-.69-.27-1.1zM71.82 90.74c.44-.08.47.26.82.27.1.53-1.25.4-.82-.27zM194.81 90.74c1.51 0 .57.32.55.82-.71 0-.55.21-.55-.82zM86.88 91c1.3.26 1.25.62 2.74.28-.38 1.87-1.29.14-2.74 1.09a1 1 0 010-1.37zM173.18 91c.61.66 1 1.57 1.91 1.92.4 3.89-4.1 4.75-4.38 1.65-.09-1 .81-.85 1.1-1.38.46-.85-.1-2.09 1.37-2.19zM197 91c.69 0 .55-.14.55.55-.68.01-.55.15-.55-.55zM106.88 91.29a1.34 1.34 0 00.82.27c.2.75-.54.55-.55 1.1-.69-.03-.64-1.02-.27-1.37zM136.74 91.29c.8-.4.8 1.22 0 .82zM105.51 91.56c-.11.66.5.6.27 1.37-.24.12-.49.24-.54.55-1.69.07-1.77-2.34.27-1.92zM209.61 91.56c2.26 0 .55.57.54 1.1-.48-.07-.62-.47-.54-1.1zM55.65 92.11c.2-.49.5 0 .82 0-.2.49-.47.04-.82 0zM196.46 91.84h1.1a.83.83 0 01-1.37.82 1.34 1.34 0 00.27-.82zM190.43 92.11c.8-.4.8 1.22 0 .82zM75.37 92.66a1.81 1.81 0 01-.54 2.46c-2.54.27-1.83-4.02.54-2.46zM192.62 92.66c.69 0 .55-.14.55.55-.69 0-.55.14-.55-.55zM89.07 92.93c.69 0 .55-.14.55.55-.69 0-.55.14-.55-.55zM117.84 93.2c1.08-.18.89 1.16 0 1.1zM140.58 93.2c.68 0 .54-.14.54.55-.69 0-.54.14-.54-.55zM207.69 93.2c.22.06.27.28.55.28V94c-2.01 0-.67-.07-.55-.8zM91.81 93.48c.69 0 .55-.14.55.55-.69-.03-.55.14-.55-.55z" class="cls-1" transform="translate(.51)"/>
  <path d="M125.78 94.58c1.06-.24.45 1.19 1.65.82-.32 1.89 1.46 4.87-3.29.54-.88 3.13-3.35 2.54-5.76 1.37-.08-.72.58-.7 1.1-.82.2-1.11-.88-.94-.55-2.19 2.76-1.46 4.52 1.91 6.85.28zM167.15 93.75c.55-.09.85.06.82.55-1.03 0-.82.17-.82-.55zM67.16 94c2.43-.31 2.78 2.23 0 1.91a2.21 2.21 0 010-1.91zM140.58 94c.79-.41.79 1.22 0 .82zM135.37 95.67c-.39 0-.78 0-.82.28-.76.11-.26-1-.82-1.1.13-.24 1.94-1.38 1.64.82zM182.22 94.3a1.24 1.24 0 00.82.28 1.24 1.24 0 00-.28.82c-.85.13-.98-.69-.54-1.1zM78.12 94.85c0-.11.58-.49.82-.27.54.47-1.22 1.32-.82.27zM142.22 94.58c.22 0 .27.27.55.27-.05.22-.28.27-.28.55-.22-.06-.27-.28-.54-.28.05-.22.27-.27.27-.54zM177 94.57c.69 0 .55-.14.55.55-.68 0-.55.15-.55-.55zM166.6 95.12c0-.1.58-.48.82-.27.58.47-1.22 1.3-.82.27zM56.75 95.4c.2-.49.5 0 .82 0-.2.48-.5.04-.82 0zM59.49 95.12c.44-.07.47.26.82.28-.05.22-.28.27-.28.54-.71 0-.54.21-.54-.82zM99.48 95.12c.69 0 .55-.14.55.55-.69 0-.55.14-.55-.55zM91.26 95.4h.82v.82c-.59.05-.87-.22-.82-.82zM65.51 96c.69 0 .55-.15.55.54-.69-.05-.55.1-.55-.54zM75.65 96.22c.07-.64 1.2-.16 1.37 0 .73 2.2-2.78 1.33-1.37 0zM110.44 98.68c-3.71 2.4-4.19-2.83-1.37-2.46 1.17.15 1.39 1.53 1.37 2.46zM114.55 96.77c0-.71-.21-.55.82-.55 0 1.5-.32.57-.82.55zM182.76 96.22c1 0 .83-.21.83.82-1.04-.04-.83.21-.83-.82zM210.71 96.77c.75.43 1.4 1 .54 1.64-.49 0-.58-.34-1.1-.28-.23-.87.44-.84.56-1.36zM140.3 97h.82c.41.84-1.22.84-.82 0zM198.1 97c1.61 0 1.13-.17.82 1.09-.71.13-.92-.33-.82-1.09zM64.69 97.59c.72-.08 1.18.1 1.1.82-.52.59-1.32.16-1.1-.82z" class="cls-1" transform="translate(.51)"/>
  <path d="M125.23 98.13c-.24.5-1.41 1-1.37-.27a.83.83 0 011.37.27zM165 97.59a.75.75 0 01.54.82c-.99.24-.98-.41-.54-.82zM188.51 97.86c-.07.64-.73.63-1.09.27.08-.63.73-.62 1.09-.27zM107.15 98.68c-1.12 1.89-1.73.11-1.09-.55.74-.19.55.55 1.09.55zM134.55 98.13c.72-.08.9.38.82 1.1-.57.12-.72-.19-1.09-.27a1.35 1.35 0 00.27-.83zM132.08 98.41c.84-.1.47 1 1.1 1.09a1 1 0 01-1.1 1.1c-.84-.97.66-1.26 0-2.19zM97.29 99.78c-1.33 0-1.32-.59-2.19-.55.16-.52 2.42-1.11 2.19.55zM121.12 98.68a.74.74 0 01-.82.55c-.12-.58.39-.52.82-.55zM73.73 100.33c.43-.31.57-.89 1.37-.83.69 1.4 1.08-.93-.82 3.57-1.61.31-2.81-1.37-1.64-2.19-1.7-1.39 1.46-3.29 1.09-.55zM130.16 99c.49.07.63.47.55 1.09-1.3-.04-.83.12-.55-1.09zM162.22 99c1.5 0 .57.32.54.82-.71-.04-.54.18-.54-.82zM190.71 99c.53-.11.4 1.25-.28.82v-.55c.24.01.26-.15.28-.27zM222.76 99a.75.75 0 01-.82.54c-.13-.62.39-.54.82-.54zM140 99.23c.12.85-.69 1-1.1.55.1-.48.5-.62 1.1-.55zM58.39 99.78c.59-.13.52.39.55.82-.22 0-.27-.27-.55-.27zM56.75 101.7c-.94.11-1.56-.09-1.37-1.1.88-.44 1.62-.24 1.37 1.1zM124.14 100.88c.07-.64.73-.64 1.09-.28-.07.64-.73.63-1.09.28zM36.75 101.7v-.82c1.05-1.04 2.58.99 0 .82zM42 100.6c1.9 1.13.31 1.44-.54.82.04-.36.43-.42.54-.82zM112.9 100.6a1.19 1.19 0 01.55 1.1c-1.01-.04-.69-.4-.55-1.1zM130.44 101.15c0 1.13-1.36.83-2.19 1.1-.52-1.54 1.84-2.14 2.19-1.1zM135.92 100.6c.69 0 .55-.14.55.55-.69 0-.55.14-.55-.55zM122.49 100.88h1.1c.93 4.26-.26 2.49-1.37 2.19-.22-1.07.33-1.31.27-2.19zM156.74 100.88c.35.38 1.29.16 1.64.54v1.37c-3.48 0-1.38-.4-1.64-1.91zM160.57 100.88c.69 0 .55-.14.55.54-.69 0-.55.14-.55-.54zM78.12 101.15c.69 0 .54-.14.54.55-.66 0-.54.14-.54-.55zM125 101.15a.76.76 0 01.55.82c-.99.24-.98-.42-.55-.82zM126.33 101.15c.44-.08.47.26.82.27.11.58-1.25.4-.82-.27zM185.5 101.15c.47-.1.52.21.55.55-.37-.08-.35.95-.55-.55zM178.38 101.7c-.1.36-.48.43-.55.82-.68-.11-.02-1.06.55-.82zM201.66 102.52c-.44.08-.47-.26-.82-.27.22-.92.85-.38.82.27zM172.63 102c.55-.09.85 0 .82.55-1.03-.03-.82.13-.82-.55zM205.5 104.71c-.52-3.74 3.88-3 4.11-1.09s-2.49 2.22-4.11 1.09zM131.26 102.25c.12.57-.19.72-.27 1.09-.8-.05-.67-1.34.27-1.09zM192.62 102.52c.23 0 .28.27.55.27 0 .22-.27.28-.27.55-.22 0-.27-.27-.55-.27.05-.23.28-.28.27-.55zM160.85 103.07c1.89-.26 1.81 1.19-.28 1.64a2.32 2.32 0 01.28-1.64zM218.92 103.34a2.65 2.65 0 01-1.64 3.56c-.63-.74-1.35-1.39-1.92-2.19-.16-1.95 2.12-1.79 3.56-1.37zM202.76 103.34c.69 0 .55-.14.55.55-.69 0-.55.11-.55-.55zM174 103.62c1 0 .82-.22.82.82-1.04 0-.82.21-.82-.82zM112.08 104.44c-.06.48-.47.62-1.09.55a.64.64 0 011.09-.55zM142.49 104.16h.82c.18 2.57-1.85 1.05-.82 0zM175.91 104.16c.56-.09.86.06.83.55-1.04 0-.83.16-.83-.55zM113.18 104.44c1-.16.84.81.82 1.64-1 0-1.76.26-.82-1.64zM133.73 104.44c1.88 0 .84.92.55 1.91-.57-.55-1.02-1.01-.55-1.91zM160 104.71v.55c-1.31.27-.48-1.46 0-.55zM195.91 104.71c.16 1.61-.72 1.75-1.92 1.37a1.22 1.22 0 011.92-1.37zM75.65 104.71h1.09v1.1c-.94.19-1.3-.16-1.09-1.1zM136.47 105.26c-.69 0-.55.14-.55-.55.69 0 .55-.14.55.55zM190.71 105.26c.1 2.09-2.29 2.27-3.29 1.09-.05-1.69 2.2-2.11 3.29-1.09zM127.43 105.26c.94-.19 1 1 .54 1.37-.97.19-.97-.96-.54-1.37zM167.15 105.26h.85v1.37c-1.14.31-1.38-.84-.85-1.37zM66.88 105.81c0 .1.43 5.79-1.37 1.91-.82-.74-1.61.18-2.19-.82a2.88 2.88 0 013.56-1.09zM73.18 105.81c0 .78-.34 1.3-1.36 1.09-.66-.9.54-1.78 1.36-1.09zM171.53 105.53c1.11 0 .29.37.28.82-.58-.15-.59-.42-.28-.82zM125.78 106.63c-.08-.44.26-.47.28-.82.53-.11.4 1.25-.28.82zM132.63 105.81c.57.15.58.42.28.82-1.1 0-.3-.39-.28-.82zM157.29 106.35c.55-.09.85.06.82.55-1.03 0-.82.17-.82-.55zM175.37 106.63c1.53 0 1.21.64 1.09 1.92-.73-.1-1-.69-1.64-.83 0-.54.74-.34.55-1.09zM199.48 107.72c-.8.34-1.25.14-1.38-.82.53-.53 1.68-.28 1.38.82zM54.83 107.18h.82v1.09c-.91.28-.9-.38-.82-1.09zM179.75 108c.08.71-.1 1.18-.82 1.09-.08-.71.07-1.17.82-1.09zM188.24 108c1.23-.25 1.52 1 0 .82zM68.8 108.27c.8-.4.8 1.23 0 .82zM184.13 109.09c-.36.74-.58 1.61-1.91 1.37-1.55-1.34 1.1-3.16 1.91-1.37zM196.46 108.27c.44-.07.47.26.82.28-.05.22-.27.27-.27.54-.72 0-.55.21-.55-.82zM200.84 108.27c.7 0 .55-.14.55.55-.69 0-.55.18-.55-.55zM212.62 108.27c.11.71.82.83.83 1.64-3.72 2.48-3.93-2.45-.83-1.64zM47.71 109.09c.41 2-1.76 2.31-2.74 1.37-.77-2.2 1.96-2.33 2.74-1.37zM155.37 108.82c.25 1.16-.66 1.17-1.65 1.1.46-.55 0-.35 0-1.1.64-.09 1.14-.54 1.65 0zM161.67 108.55h.55c-.05.23.1.25.27.27v.55c-.23-.05-.26.1-.27.27h-.55c.05-.23-.11-.26-.27-.27v-.55c.23.05.25-.11.27-.27zM70.72 109.09c.13 2.58-1.6 2.58-1.65.55.58-.16.79-.64 1.65-.55zM165.5 109.09a.77.77 0 01.55.83c-.95.24-.94-.43-.55-.83zM173.72 109.37v-.28c1.28-.23-1.3 1.76 0 .28zM76.2 109.64c.85-.13 1.22.24 1.09 1.1-1.37 0-1.09.26-1.09-1.1zM142.49 109.64c.48.07.63.47.55 1.1-1.6 0-.45-.25-.55-1.1zM179.75 109.64h.82c.19.92-.46 1-1.09 1.1a1.57 1.57 0 00.27-1.1zM44.42 109.92c.53-.11.4 1.24-.27.82v-.55c.23.05.25-.11.27-.27zM49.35 110.74a.76.76 0 01-.82.55c-.13-.59.39-.53.82-.55zM213.45 111.29a.59.59 0 11-1.1 0c.75.02.55-.46 1.1 0zM219.74 111.56c0 .54-.74.35-.54 1.09a1.57 1.57 0 00-1.1-.27c-.34-2.44 1.24-.91 1.64-.82zM62.77 111.29c1 .95.74 2.21.55 3.83a1.2 1.2 0 00-1.09.55c-1.29-.36-1.46-1.83-2.47-2.47.34-1.3 1.24-2.08 3.01-1.91zM33.19 111.56c.57 0 1.31-.22 1.09 1.37-1.99.45-1.44-.93-1.09-1.37zM70.72 112.11c1.28 0-.3.4 0 1.09a7.14 7.14 0 011.37 2.74c-1.32.55-3.09 1.33-4.11 0-.51-2.7 2.08-2.31 2.74-3.83zM74.83 113.2a1 1 0 01-1.37 0c-.13-1.14 1.67-1.58 1.37 0zM128.25 112.38c.93 0 .26.22.82.27 0 1.09-.92.83-.82.83.05-.24-.11-.26-.28-.28.03-.91.23-.27.28-.82zM163 112.38c.87 1.06 2.45 1.7 2.19 3.29-.59 3.58-6.86.86-3.84-2.47 1.47.1 1.65 0 1.65-.82zM55.93 117a10.55 10.55 0 01-1.92-1.1c-.01-5.96 6.9-.7 1.92 1.1zM84.42 113.2c-.61.27.42 1.1-1.1 1.1v-.82c.49.03.58-.34 1.1-.28zM167.7 113.48c.69 0 .54-.15.54.55-.68-.03-.54.14-.54-.55zM221.12 114.57c-.49 0-.58.34-1.1.28v-1.1c1.24.08.89-.94 1.1.82zM186.87 113.75c.91.18.47 1.27 1.64.55-.28.7-1.4 1.47-2.19.82-.2-.84.76-.53.55-1.37zM75.92 114c1.51 0 .57.31.55.82-.7.03-.55.23-.55-.82zM122.77 114.3a1.33 1.33 0 01.55 1.37c-.86.13-1.23-.24-1.1-1.1.32.05.49-.06.55-.27zM227.14 114.57c.44-.07.47.26.82.28-.05.22-.27.27-.27.54-.69 0-.55.21-.55-.82zM166.05 115.94c-.08-.72.38-.9 1.1-.82.22.98-.59 1.36-1.1.82zM219.47 115.12c1.72 1.29 1.24 1.85-.27 1.64.18-1.06 0-.97.27-1.64z" class="cls-1" transform="translate(.51)"/>
  <path d="M168.24 115.39c4.55 1.43 2.08 4.42 3.84 4.66-.49 2-3.37 1.56-4.93 2.47.57-1-.31-1-.83-1.65.22-2.08-1-2.84 0-4.38a5 5 0 001.92-1.1zM185.77 116.22c0 .86-.7.94-1.37 1.09-.89-.2-1.2-1-1.64-1.64.86-.06 2.37-.47 3.01.55zM147.7 115.94c-.08-.43 1.48-.38.82.28.11-.11-.82-.3-.82-.28zM149.07 115.67c.72-.08 1.17.1 1.09.82-.37.41-1.3.14-1.09-.82zM227.69 116.76c-.41.44-1.56.4-1.37-.54.41-.44 1.56-.41 1.37.54zM180.84 120.87a1.23 1.23 0 001.1.55c-1.34 2.62-1.92.93-3 .82a1.48 1.48 0 011.64-1.37c-2 .18-5.09-.69-4.66-2.73-.07-.58-1.2-.08-1.36-.55-.24-.88.7-.57.82-1.1.6-.15.38.52.82.55 4.16-3.3 6.74 3.65 4.64 3.83zM194.27 116.22c.69 0 .55-.15.55.54-.7 0-.55.14-.55-.54zM211.53 116.49c0-.11.58-.49.82-.27.54.47-1.22 1.32-.82.27zM215.36 116.22c.69 0 .55-.15.55.54-.69 0-.55.14-.55-.54zM9.9 116.76H11a.59.59 0 11-1.1 0zM148 117c.44-.08.47.26.82.27 0 .22-.27.28-.27.55-.73.04-.55.24-.55-.82zM187.69 118.68c-.77.23-.71-.38-1.37-.27-.06-1.33 1.82-1.41 1.37.27zM146.33 117.86c.63.07.63.73.27 1.1-.37-.09-.23-.69-.27-1.1zM202.48 117.86c.7 0 .55-.14.55.55-.69 0-.55.14-.55-.55zM172.63 118.13c.22.06.27.28.55.28-.06.22-.28.27-.28.55-1-.25-.27-.45-.27-.83zM211.8 118.41c-.11-.53 1.25-.4.82.27-.9 0-.27-.22-.82-.27zM189.89 119.5c-.69 0-.85-.43-1.38-.54.12-.96 1.79-.64 1.38.54zM193.45 118.41c.54-.1.85.06.82.55-1.03.04-.82.16-.82-.55zM17.3 119h1.1a1.82 1.82 0 01-.28 1.37c-1.63-.62-.79-.61-.82-1.37zM80.58 119.5H82v1.1c-.94.07-1.37-.33-1.42-1.1zM139.48 120.6c-.44.08-.47-.26-.82-.27.2-.88.84-.41.82.27zM185.23 121.15a1.72 1.72 0 01-1.37 0c-.27-2.03 1.63-1.83 1.37 0zM163.31 120.05c.69 0 .55-.14.55.55-.69 0-.55.14-.55-.55zM175.37 120.05c.44-.08.47.26.82.27.11.54-1.25.41-.82-.27zM217.82 120.05c.72 0 .56-.21.56.82-1.5 0-.57-.32-.56-.82zM147.42 120.32c.7 0 .55-.14.55.55-.69 0-.55.13-.55-.55zM198.1 120.32c.7 0 .56-.14.56.55-.66 0-.56.13-.56-.55zM195.91 120.6c.31.86-.43.66-.55 1.1-.66-.17-.14-1.39.55-1.1zM58.94 121.42c.53-.33 2.64.09 2.46 1.37h-1.64a1 1 0 00-.82-1.37zM80.85 121.42c.13.86-.23 1.22-1.09 1.1a.78.78 0 111.09-1.1zM139.21 121.15c1.1 0 .29.37.27.82-1.1.03-.29-.37-.27-.82zM151.53 121.15c.77.62 1 .08 1.92.55-.09 1.62-1.92.35-1.92-.55zM197.56 121.15c1.44.51-.39 1.57-1.1.82.03-1.18 1.17.46 1.1-.82zM41.41 122.52a1.67 1.67 0 11-3.29-.28c.62-1.09 3.01-1.1 3.29.28zM52.64 121.7c0-.33.5-.23.82-.28 0 1.82-.46.3-.82.28zM161.67 121.42c.69 0 .55-.14.55.55-.69.03-.55.14-.55-.55zM185 121.7c2 .41 1.82 1.88 0 1.64a1.35 1.35 0 010-1.64zM150.44 122c1.09-.09 1.48.52 1.37 1.64-1.28-.27-1.53.48-1.37 1.65-2.32-.15-.26-2.48 0-3.29zM85.24 123.89c-.45.07-.47-.26-.82-.28.2-.88.84-.4.82.28zM157.56 123.06c1.39 0 .52-.12.55.83a.76.76 0 01-.55-.83zM164.13 123.34c0 .93-.82 1.83-1.64 1.1a1.42 1.42 0 011.64-1.1zM174.55 123.34c.68 0 .54-.14.54.55-.69 0-.54.11-.54-.55zM200 123.61c.07-.64 1.21-.15 1.37 0-.21.81-.67-.35-1.37 0zM181.94 123.61c.69 0 .55-.14.55.55-.69 0-.55.14-.55-.55zM84.14 124.16c.69 0 .55-.14.55.55-.69 0-.55.14-.55-.55zM59.49 124.43c.8-.4.8 1.23 0 .83zM162.49 125c.64.08.63.73.27 1.1-.44-.29-.63-.75-.27-1.1zM203.86 125a20.14 20.14 0 003 1.1c-.24 2.35-2.6 1.94-4.11 1.09.73-.39.57-1.65 1.11-2.19zM38.39 125.26c.12 2.16-.35 1.87-1.91 1.09a1.52 1.52 0 011.91-1.09zM147.42 125.26c.11 0 1.38.75.55.82s-.55.2-.55-.82zM151.53 125.26c.49.2 0 .5 0 .82-.48-.2-.04-.5 0-.82zM177 125.26c.86-.13 1.22.23 1.09 1.09-.84.13-1.21-.24-1.09-1.09zM54.83 125.8v.55c-1.33.28-.5-1.46 0-.55zM57.3 125.53c1.16-.16 1.92.09 1.64 1.37-2.07 0-1.64.35-1.64-1.37zM173.18 126.08c.07-.64.73-.63 1.09-.28-.08.64-.73.63-1.09.28zM214.27 125.53h1.09c.32.95-1.53 1.27-1.09 0zM45.24 125.8c.8-.4.8 1.23 0 .83zM73.18 125.8c.7 0 .55-.14.55.55-.73 0-.55.14-.55-.55zM182.49 126.08c-.11-.53 1.25-.4.82.27h-.55c.05-.23-.11-.25-.27-.27zM165.5 126.08c1.92-.22 2.21 2.15-.27 1.37-.23-.78.39-.71.27-1.37zM180.57 126.08c.15.61-.52.39-.55.82-.68-.11-.02-1.06.55-.82zM196.73 128c-1.22 0-1.69.67-2.74.82-1.99-2.9 3.13-3.93 2.74-.82zM68.52 126.35c.7 0 .55-.14.55.55-.69 0-.55.1-.55-.55zM174.82 127.17c-.58.12-.73-.18-1.1-.27a.57.57 0 111.1.27zM170.43 126.63c.49.06.63.47.56 1.09-1.33 0-.84.13-.56-1.09zM176.74 126.9c.23-.05.26.11.27.27.52.69 1.19-.34 1.92.28a4.78 4.78 0 01-1.92 3.29c-.72-.92-1.83-1.39-1.37-2.74-.02.07 1.36-.32 1.1-1.1zM157.56 127.45c1.08-.06 1.51 1.34 0 1.09zM30.18 128c0-.11.57-.49.82-.28.54.47-1.22 1.28-.82.28zM132.08 127.72c.6 0 .88.22.82.82-1.03 0-.82.22-.82-.82zM181.94 127.72c.53-.11.4 1.25-.27.82V128c.23 0 .25-.11.27-.28zM187.15 129.09c-.24.12-.49.24-.55.55-3.11-1.28.74-3.12.55-.55zM219.2 128c.15-.65 1.29-.17.54.27-.22-.05-.27-.27-.54-.27zM168 128c.69 0 .55-.15.55.54-.72 0-.55.15-.55-.54zM5.25 128.27c.53-.11.39 1.25-.28.82.03-.92.23-.27.28-.82zM162.49 128.54c1 0 .82-.21.82.82-1.04 0-.82.22-.82-.82zM166.05 128.54c.55-.09.86.06.82.55-1.03 0-.82.17-.82-.55zM208.79 128.54c.35.72.6.83.27 1.65-2.8.39-2.29-2.12-.27-1.65zM158.38 128.82c.94-.17 1.35 1.27-.27 1.09-.11-.57.19-.72.27-1.09zM174.55 128.82c.11 1.06.29 1-.28 1.64-1.27.08-2.74-1.8.28-1.64zM214.81 129.64c-.77.23-.71-.39-1.36-.27-.09-.72 1.85-.96 1.36.27zM58.66 129.09c.7 0 1.42 0 1.37.82.22.88-1.94.77-.81 1.65-.16.57-1.78.34-1.65-.28.11-.98 1.21-.98 1.09-2.19zM152.9 129.09c.75-.2.55.55 1.1.55-.07.3-.55.18-.55.55-.45-.07-.62-.47-.55-1.1zM69.35 129.36c.48.07.62.48.55 1.1-.57.12-.73-.19-1.1-.27.1-.36.48-.43.55-.83zM157 129.36a1.57 1.57 0 00-.27 1.1c-.44.08-.47-.26-.82-.27v-.55c.5.03.58-.34 1.09-.28zM201.12 129.91c1.29-1.29-.12 1.52-.28.28-.04-.33.16-.19.28-.28zM175.09 129.91c.57-.11.73.19 1.1.28.08.63-.79.3-.82.82-.37-.08-.23-.69-.28-1.1zM37 130.19c.95-.19 1 1 .55 1.37-.93.19-.96-.96-.55-1.37zM35.65 131.56c.11 1.19-.94 1.24-1.64 1.64-2.8-1.05.6-4.36 1.64-1.64zM198.38 130.46c.85-.13 1.22.24 1.1 1.1-.86.13-1.23-.24-1.1-1.1zM65.24 131h1.09c0 1 .31.78 0 1.64-.44-.45-1.14-.64-1.09-1.64zM63.32 131.56c.69 0 .55-.14.55.54-.69 0-.55.14-.55-.54zM68.25 131.56h.82c2.64 5.75-1.92 2.16-.82 0zM168.79 131.83c.09.72-.38.9-1.09.82.23-.4.21-1.06 1.09-.82zM177 131.83c.55-.09.86.06.82.55-1.02 0-.82.16-.82-.55zM213.17 133.2c0 1.13-1.48.82-2.19.55-.65-2.07 2.2-2.03 2.19-.55zM148.79 132.38c.6 0 .87.22.83.82-1.04 0-.83.21-.83-.82zM62.23 132.65c1.57-.15 1.11 1.66-.28 1.37a1.82 1.82 0 01.28-1.37zM50.72 132.93h.55c.13.58-.39.52-.82.54.05-.22.27-.27.27-.54zM56.2 132.93c.69.08.72 1.09-.55 1.09v-.82c.35.04.49-.06.55-.27zM158.93 133.2c-.91.94.73.88 1.1 1.37.13 1.17-1.59-.95-1.65.82-1.18.18-1.53-.47-2.19-.82.32-1.11 1.29-2.19 2.74-1.37zM132.36 133.2c.74-.2.55.54 1.09.55-.09.58-1.3.06-1.09-.55zM194 134.3c-.66-.12-.59.5-1.37.27-1.03-1.05.77-2.33 1.37-.27zM77 133.47v1.37c-1.31-.47-1.22.16-2.46.28.02-1.01-.62-1.12 2.46-1.65zM49.62 133.75c1.45-.3 1.32 1.64 0 1.37-.51-.52-.03-.69 0-1.37zM59.22 134h.54c.13.59-.39.52-.82.55.06-.2.28-.25.28-.55zM85 134c2.15 0 .69.56.82 1.37-1.66-.56-.82-.54-.82-1.37zM126.06 134.3c0-.05.57-.52.82-.28.41.42-1.68 1.15-.82.28zM151 134c.45-.07.48.26.83.28-.06.22-.28.27-.28.54-.73.02-.55.23-.55-.82zM48.53 135.12h-1.1a.59.59 0 111.1 0zM125 134.3c.69 0 .55-.14.55.54-.73 0-.55.16-.55-.54zM160 135.39c.68 0 .54-.14.54.55-.66 0-.54.14-.54-.55zM196.46 135.39c.7 0 .55-.14.55.55-.7 0-.55.14-.55-.55zM191.53 135.67h.54c.13.58-.38.52-.82.54.06-.21.28-.27.28-.54zM217.82 135.67c.56-.1.86.05.83.54-1.04 0-.83.17-.83-.54zM186.05 137.86c.56 2.35-3.28 2.12-2.46-.28.91-.58 1.88-.58 2.46.28zM191 137c.7 0 .55-.15.55.54-.71.04-.55.19-.55-.54zM196.73 137h.82v.82c-.55.09-.87-.19-.82-.82zM150.16 137.58c.83-.27.49.61.55 1.1-1.3 0-.84.15-.55-1.1zM159.75 137.58c.72-.08.9.38.82 1.1-.72.08-.9-.38-.82-1.1zM217.55 137.86c0 .69-1 .64-1.37.27.03-.7 1.03-.64 1.37-.27zM78.39 137.86c.81 0 .73 1.63-.27 1.37-.51-.49.12-.8.27-1.37zM174 138.13c.49-.91 1.36 1.52 0 1.1-.84-.49.74-.85 0-1.1zM181.12 138.68a.79.79 0 01.55 1.37c-1.06-.7-.97.4-.55-1.37zM202.76 138.68c.44-.08.47.26.82.27.11.54-1.25.41-.82-.27zM162.22 139c.69 0 .54-.14.54.55-.69-.05-.54.09-.54-.55zM166.32 141.42c-.42 1.18-2.24.78-3 .27-.51-3.53 3.68-2.21 3-.27zM167.15 139.5c.44-.08.47.26.82.28-.05.22-.27.27-.27.54-.7 0-.55.21-.55-.82zM26.61 139.78a.75.75 0 01-.82.54c-.13-.58.39-.52.82-.54zM72.09 140.6c.2.84-.28 1-.27 1.64h-1.38c-.98-1.36.56-2.94 1.65-1.64z" class="cls-1" transform="translate(.51)"/>
  <path d="M182.49 142h-1.1c-1.39-1.64 2.15-3 1.1 0zM193.45 140.32c.51.31 1.32.33 1.09 1.37-1.38 0-1.09.36-1.09-1.37zM174 140.6c.69 0 .55-.15.55.55-.7 0-.55.14-.55-.55zM184.4 140.6c.69 0 .55-.15.55.55-.69 0-.55.14-.55-.55zM65.51 140.87c2.09-.28 1.19 1.16.28 1.1.03-.49-.34-.58-.28-1.1zM158.93 141.69h-.82v-.82c.6-.05.89.22.82.82zM161.67 140.87c1 0 .82-.21.82.82-1.03 0-.82.22-.82-.82zM166.87 140.87c.32.69 1 1 .83 2.19-1.6.04-.79-1.06-.83-2.19zM168.79 140.87h1.1c0 .39 0 .78.27.82-.3.63-1.72.11-1.37-.82zM178.93 140.87V142h-1.1c-.12-.89.24-1.26 1.1-1.13zM190.16 140.87c.57-.11.72.19 1.09.28-.25.56-1.2.75-1.09-.28zM227.41 141.15c1.3-1.3-.11 1.51-.27.27-.04-.33.14-.14.27-.27zM47.43 141.15a1.48 1.48 0 011.65 1.64c-.71-.39-1.55-.64-1.65-1.64zM77 141.42c0-.68.93-.08 1.1 0-.03.68-.91.08-1.1 0zM171.26 141.42c.09-.33.73-.22.82 0 .25.58-1.01.63-.82 0z" class="cls-1" transform="translate(.51)"/>
  <path d="M159.75 141.42a1.32 1.32 0 010 1.64c-1.2-.06-1.44-1.6 0-1.64zM203.58 141.42c.69 0 .55-.14.55.55-.69.03-.55.14-.55-.55zM176.74 142c.09-.33.72-.23.82 0 .24.56-1 .6-.82 0zM83.05 142.24c-.11-.53 1.25-.4.82.27h-.55c.05-.23-.11-.25-.27-.27zM173.18 142.24c.11-.68 1.06 0 .82.55-.61.15-.39-.52-.82-.55zM205 142.24c0 .49.34.58.27 1.1-1.34 1.38-2.98-1.48-.27-1.1zM149.07 142.51c.44-.07.47.26.82.28 0 .22-.28.27-.27.55-.72 0-.55.21-.55-.83zM227.14 142.51c.78 0 1.5 0 1.37.83-.63.66-1.45.06-1.37-.83zM18.67 142.79c.69 0 .55-.15.55.55-.69 0-.55.14-.55-.55zM181.39 142.79c1-.43.17.93.83.82-.09.37-.69.23-1.1.27a1.53 1.53 0 00.27-1.09zM73.46 143.34c.69 0 .55-.14.55.54-.69 0-.55.12-.55-.54zM83.87 143.34c.69 0 .55-.14.55.54-.69 0-.55.12-.55-.54zM198.1 143.34c.91 0 .27.22.82.27 0 .91-.23.28-.26.82-.93 0-.27-.22-.83-.27 0-.92.23-.27.27-.82zM159.48 144.16c0-1.12.36-.29.82-.28-.15.57-.43.58-.82.28zM168.79 145.25c-.77.23-.71-.38-1.37-.27-.31-2.4 2.21-.68 1.37.27zM150.71 145c.19-.22.43-.75 0-.82.39-1.18 1.13 1.27 0 .82zM95.1 144.16c2 0 .71.15.82 1.09-.72.09-.92-.37-.82-1.09zM166.05 144.16c.15 2.13-1.23 1.44-1.09.27a1.53 1.53 0 011.09-.27zM181.39 144.16c-.08.61 1.16 1.08-1.37 1.09-.02-.55-.22-1.31 1.37-1.09zM148.79 145.25c0-.59.23-.87.83-.82.04.57-.23.87-.83.82zM42.78 145c1.72-.26 1.38 2-.28.82a1.26 1.26 0 00.28-.82z" class="cls-1" transform="translate(.51)"/>
  <path d="M151.53 146.62a1.54 1.54 0 00-1.09-.27c.2-1.35 2.39-2.35 1.09.27zM220.57 145a2.34 2.34 0 011.64.27v1.37c-1.32.54-2.21-.39-1.64-1.64zM208.51 145.8c-.32 2.13-2.63 1.16-2.18-.27.73-.7 1.61-.02 2.18.27zM170.71 145.53c.8-.4.8 1.22 0 .82zM198.92 145.8v.55c-1.33.27-.5-1.46 0-.55zM172.9 145.8c.64.08.63.73.28 1.1-.38-.09-.18-.69-.28-1.1zM73.73 146.35c.15 1.24-.4 1.79-1.64 1.65a1.16 1.16 0 111.64-1.65zM163.59 146.08c.4.23.87.41.82 1.09-.88.24-.85-.43-1.37-.55.07-.29.54-.18.55-.54zM188.51 146.08c.47.39 1 1.48.56 1.92-1 .39-.53-.76-1.38-.55.22-.51.36-1.11.82-1.37zM100 146.35a.76.76 0 01-.82.55.75.75 0 01.82-.55zM153.45 147.17c0-.07.59-.5.82-.27s-1.08.75-.82.27zM178.65 147.45c-1-.36-1.64.81-2.74.82-.63.08-.3-.79-.82-.82.91.06 2.63-1.16 3.56 0zM181.39 146.9c.79 0 1.3.34 1.1 1.37-1.15.03-1.49-.54-1.1-1.37zM85.24 147.17c.68 0 .54-.14.54.55-.68 0-.54.14-.54-.55zM205 147.17c.49 0 .58.34 1.1.28 0 2.85-.9.77-1.65.82-.25-.75.55-.55.55-1.1zM97.84 147.72c.69 0 .55-.14.55.55-.69 0-.55.14-.55-.55zM139.48 148v1.09c-2.62 0-.92-2.09 0-1.09zM166.87 148h.55c.13.58-.39.52-.82.54.05-.22.27-.27.27-.54z" class="cls-1" transform="translate(.51)"/>
  <path d="M178.38 150.73c-1.23.05-.74-1.63-1.1-2.46 1.72-1.27 1.96.98 1.1 2.46zM45.52 148.27c.64.14.16 1.29-.28.54.06-.22.28-.27.28-.54zM100 148.54c.11 1.12-.28 1.73-1.37 1.65-.83-1.07.26-2.5 1.37-1.65zM210.43 149.36c0 1.51-1.66 1-2.46.55-.16-2.05 1.92-1.76 2.46-.55zM57.3 148.54c.8-.4.8 1.23 0 .82zM77 148.54a1.72 1.72 0 010 1.92c-2 .42-2.08-2.41 0-1.92zM29.9 149.09a.58.58 0 11-1.09 0c.74.03.55-.46 1.09 0zM89.9 148.81h.54c.13.59-.39.53-.82.55.05-.22.28-.27.28-.55zM94 148.81c.86-.12 1.23.25 1.1 1.1-1.38 0-1.1.28-1.1-1.1zM104.69 149.09c.36-.84 1.25.48.55.82-.96-.08.02-.74-.55-.82zM194 149.09c.59-.13.52.39.55.82-.22 0-.27-.27-.55-.27zM68.8 149.36c.69 0 .55-.14.55.55-.69 0-.55.14-.55-.55zM105 151.28c-2.19.85-1.46 1.23-2.74-1.64 1.14-.06 2.63-.54 2.74 1.64zM206.32 151.28c-.74-.17-1.07-.75-1.1-1.64 1.61-1.04 3.05 1.25 1.1 1.64zM45.79 149.91c.69 0 .55-.14.55.55-.69 0-.55.14-.55-.55zM105.23 150.73c.37.1.44.49.83.55-.06.72-1.06.02-.83-.55zM139.21 150.73c.44-.07.47.26.82.28-.05.22-.28.27-.28.54-.75 0-.54.21-.54-.82zM136.47 151c.44-.08.47.26.82.27.11.54-1.29.41-.82-.27zM53.73 157c-.63-.28-.88-.94-1.91-.82a5.77 5.77 0 01-.28-3.56c4.06-4.08 7.27 3.38 2.19 4.38zM66.61 151.83c1.22-.25 1.52 1 0 .82zM83.05 151.83c.58-.13.52.39.55.82-.23-.05-.28-.27-.55-.27zM85.51 151.83a.76.76 0 01.55.82c-.95.24-.94-.42-.55-.82zM201.39 152.38c-.25 1 0 1.28-.27 1.92-.93-.18-1.26-.94-1.37-1.92.51-.54 1-.09 1.64 0zM212.07 152.38c.69 0 .55-.15.55.54-.69 0-.55.15-.55-.54zM212.62 154c-.07.5-1.17 1.35-.27 1.92-.22 1-1.95.42-1.64 1.91-1.82 0-4.44-1.94-3.84-3.56.9-2.39 3.26-.81 5.75-.27zM163.86 153.75c.54 0 1.31-.23 1.1 1.36-1.15.04-1.5-.53-1.1-1.36zM124.41 154c1.17 0 1 1-.27.82a1.32 1.32 0 00.27-.82zM220.57 154c1.63.57.79.56.82 1.37-.89.11-1.46-.72-.82-1.37zM100 154.29c.69 0 .55-.14.55.55-.66 0-.55.16-.55-.55zM105.23 154.3v1.09h-1.09a1 1 0 011.09-1.09zM199.75 154.84v1.37c-.73-.28-1.56-.45-1.65-1.37.58-.6.79.16 1.65 0zM203.58 154.57c.36.09.43.48.82.54 0 .82-1.63.74-1.37-.27.32.05.49-.06.55-.27zM105.51 155.11c.6 0 .87.23.82.83-1.03 0-.82.21-.82-.83zM124.14 155.39h.55c.13.58-.4.52-.83.55.05-.22.28-.27.28-.55zM97.56 156.49c.7 0 .55-.15.55.55-.69-.04-.55.14-.55-.55zM184.68 157.31c.1-.33.73-.22.82 0 .25.59-1 .63-.82 0zM212.9 157h.82v.82c-.6.09-.87-.19-.82-.82zM70.72 157.31c.69 0 .55-.14.55.54-.7 0-.55.15-.55-.54zM182.22 157.31c.68 0 .54-.14.54.54-.69 0-.54.15-.54-.54zM41.68 162c.41-1-.31-1.64 0-2.46.92-2.46 4.88-2.18 5.2.27.36 2.61-2.83 4.19-5.2 2.19zM147.7 157.58c1 0 .82-.21.82.82-1.04 0-.82.22-.82-.82zM193.72 157.58c1.49-.3 1.82.56 3 .55a4.18 4.18 0 00-1.09 1.92c-1.32.4-1.15-.69-2.19-.55.38-.35.28-1.19.28-1.92zM86.88 157.85c.53-.1.4 1.25-.27.83 0-.91.21-.26.27-.83zM117 158.13a.75.75 0 01-.81.55c-.12-.59.39-.52.81-.55zM200.57 158.13h.82v.87c-.6 0-.87-.27-.82-.87zM181.94 159.5c-1-.57-.72.39-1.92.27-1.67-1.58 1.24-1.77 1.92-.27zM226.05 158.4c1 0 1.32.69 2.19.82-.15 1-.77 1.61-2.19 1.38-.52-.67-.76-1.6 0-2.2zM140 158.68c.72-.09.9.38.82 1.09-.57.12-.73-.18-1.1-.27a1.28 1.28 0 00.28-.82zM106.06 159.22v-.27c1.31-.23-1.3 1.76 0 .27zM145.23 159h1.1c-.11 1 1 1.5.82 3.29a1.84 1.84 0 01-2.47-.55c-.21-1.74 1.22-1.3.55-2.74zM147.7 159.22c1 0 .82-.21.82.83-1.04 0-.82.21-.82-.83zM75.65 159.5c.8-.4.8 1.22 0 .82zM100 159.5c0 1.77.16.79-.82.82.03-.38-.09-.85.82-.82zM117 159.77c0-.07.6-.5.83-.27s-1.08.75-.83.27zM93.46 160.05c.53-.11.4 1.24-.28.82 0-.87.22-.27.28-.82zM185.23 160.05c.11.52.59.69.54 1.37-.35-.74-2.11-.08-2.18-1.1.71-.5.82.12 1.64-.27zM135.37 160.32h.82v.82c-.6.05-.87-.22-.82-.82zM179.75 160.32c.72-.08.71.57.82 1.1-.98.22-1.36-.59-.82-1.1zM192.35 163.06c.38-.54 1.65-.17 1.65-1.1 1 .16 1 1.36 2.19 1.37-.58.87.24 1.53-.28 2.19 1.74-1.41 4.49 1.34 2.19 2.2-.1.93 1.22.43.82 1.64-1.12.51-.72-.66-1.09-1.1-.66-.77-1.75-1.19-2.19-2.18-1.32.95-3.4-.13-3.56-1.92a.75.75 0 00-.55.82c-5.05.2-2.53-9.44.82-1.92zM48.8 161.14c.1-.33.73-.22.82 0 .25.6-1 .64-.82 0zM113.73 160.87c1.62-.25 1.93 2.07 0 1.92a1.72 1.72 0 010-1.92zM143.31 161.14c.69 0 .55-.14.55.55-.69 0-.55.15-.55-.55zM115.65 161.69c.53-.11.4 1.25-.28.82V162c.24 0 .26-.14.28-.31zM118.38 161.69a1.25 1.25 0 00.83.27c0 3.58-1 1.11-.28 1.1-.3-.33-.78-.5-.55-1.37zM199.48 161.69c-.23.78.38.71.27 1.37-.51 0-.92.18-1.09.55-1.19-.44-.95-2.3.82-1.92zM200.84 161.69c.57.16 1.15.53.55 1.1-.48-.07-.62-.48-.55-1.1zM184.13 162a1.52 1.52 0 001.1.28c.09.44-1.54.45-1.1-.28zM211 162.24c-.11-.53 1.25-.4.82.27-.93 0-.29-.22-.82-.27zM151 164.16c-.78.58-1.35 1.38-2.73 1.36-2.4-4.63 2.62-3.77 2.73-1.36zM152.35 163.33c-.72.09-.89-.37-.82-1.09.98-.24 1.36.58.82 1.09zM59.76 162.79a1.57 1.57 0 01-.82 1.64c-1.94-.1-.67-2.85.82-1.64z" class="cls-1" transform="translate(.51)"/>
  <path d="M113.45 162.51c.51.48 0 1-.81.82-.06-.59.22-.87.81-.82zM163.86 162.51c.69 0 .55-.14.55.55-.69 0-.55.14-.55-.55zM73.73 162.79c.49.2 0 .5 0 .82-.49-.2-.04-.5 0-.82zM146.33 163.61c-.25.48-.86.6-1.65.55 0-2.41.85-.43 1.65-.55zM188.79 165a9.63 9.63 0 00-.28 2.74 8.25 8.25 0 01-3.56 1.64c0-.32.07-.49.28-.55-.59-.5-1.35-.84-1.92-1.37.22-.75-.31-1.06-.27-1.64.19-3.39 3.59-2.2 5.75-.82zM112.9 163.61c.54-.11.41 1.25-.27.82 0-.92.23-.27.27-.82zM117 165.52a1.53 1.53 0 00-1.09-.27c-.36-3.25 2.22-.99 1.09.27zM21.41 164.16c.55-.1.86.05.82.55-1.03 0-.82.16-.82-.55zM65.79 165.52c-.22.24-.75.17-.82.56-.54-.2-.74-.74-.83-1.37.75-.65 1.72-.61 1.65.81zM204.13 164.43c.44-.08.47.26.82.28.11.53-1.24.39-.82-.28zM83.05 164.71c.69 0 .55-.15.55.54-.69 0-.55.15-.55-.54zM106.61 164.71h1.09c.19 1.08-1.15.89-1.09 0zM111 165c.67.79 1.79 1.13 1.37 3-1.23-.08-.81 1-2.19-.82C110 166 111 166 111 165zM112.9 165.25c.7 0 .55-.14.55.55-.69 0-.55.14-.55-.55zM142 165.25c.94-.19 1 1 .54 1.37-.99.2-1.03-.96-.54-1.37zM199.48 165.25c1.2-.14 1.1 1.54-.28 1.37-.2-.77.38-.71.28-1.37zM81.4 166.62c-1-.09-.67-.75-1.64-.27-.3-.92 2.24-.88 1.64.27zM137 165.8c1.69.9 2.3-.37 3.57.82.12 1.41-.51 2-1.92 1.92.35-1.85-3.35-.36-1.65-2.74zM147.15 165.8c.57-.12.72.19 1.1.28a1.48 1.48 0 00-.28 1.09c-.48-.25-.97-.51-.82-1.37zM144.41 166.08c.85-.13 1 .68.55 1.09-.48-.07-.63-.47-.55-1.09zM118.66 166.62c.8-.07.84.62 1.64.55.17 1.35-.26 2.11-1.64 1.92-.55-1.09-1.03.21 0-2.47zM166.6 166.62c.69 0 .55-.14.55.55-.69 0-.55.14-.55-.55zM145.78 166.9c2.14 0 .68.56.82 1.36-.86.13-.88-.58-.82-1.36zM52.91 167.17c.53-.11.4 1.25-.27.82 0-.9.23-.28.27-.82zM64.42 169.36a1.94 1.94 0 01-3 .55c-.58-2.91 3.08-3.06 3-.55zM102.49 167.72c.65.07.16 1.2 0 1.37-.95-.22-.31-.96 0-1.37zM114.55 168c.32 0 .23.5.27.82-1.82-.01-.29-.45-.27-.82zM178.38 168.26c.1 0 1.37.76.55.83s-.55.2-.55-.83zM192.9 169.36c-.52-.11-1.18-.1-1.1-.82.52-.54 1.32-.16 1.1.82zM194 168.81c1 .95 2.57-.38 2.74 1.37-.77.07-1.73.9-2.74 0zM204.13 168.81c.69 0 .55-.14.55.55-.68 0-.55.15-.55-.55zM138.93 169.64c0 .44-1.79.55-1.37-.28.57-.59.89.04 1.37.28zM31.82 169.64c.08.72-.57.7-1.1.81-.08-.71.38-.89 1.1-.81zM185.5 169.91c.18-.77.32.63.27.82-.12.55-.51.27-.27-.82zM139.21 169.91c2.45.25 2.1.83 4.65.27.73.77.57 2.17.28 3.29a2 2 0 01-3-1.64c-1.68.57-1.75-.91-1.93-1.92zM148 170.18c2.09 0 .43 1.47 1.37 1.65-.38.79-.94-.49-1.64-.28a1.78 1.78 0 01.27-1.37zM176.74 171.83c-1.09-1 .79-3.11 1.36-.28a1.79 1.79 0 01-1.36.28zM219.47 171c.22 1-.4 1.05-.27 1.91-3.07 1.29-2.56-3.91.27-1.91zM17 170.73c.69 0 .54-.14.54.55-.66 0-.54.14-.54-.55zM87.16 170.73c0 .79 0 1.5-.83 1.37-.53-.53-.28-1.68.83-1.37zM98.94 171c0 .22-.28.27-.28.54-.22-.05-.27-.27-.55-.27.24-1.01.43-.27.83-.27zM178.93 170.73h.82v.82c-.6.05-.87-.22-.82-.82zM196.73 170.73c.69 0 .55-.14.55.55-.69 0-.55.14-.55-.55zM116.74 172.1c-.1.72-.88.77-.54 1.92-3.74 1.37-3.65 0-2.47 0a2.61 2.61 0 01.27-2.47c1.2-.7 1.57.45 2.74.55zM153.18 171.28v1.1c-.9.05-1.09-1.29 0-1.1zM187.69 171.28c.86-.13 1.23.24 1.1 1.1-.64-.1-1.29-.18-1.1-1.1zM117 171.55c.6-.05.88.23.83.82-.59.06-.83-.22-.83-.82zM86.06 171.83c.08.44-.26.47-.28.82-.22-.05-.27-.27-.54-.27 0-.72-.24-.55.82-.55zM102.22 171.83c1.74 0 1.82-.33.82 1.64-1.04-.72-.82.53-.82-1.64zM149.89 172.37c.69 0 .55-.14.55.55-.69 0-.55.14-.55-.55zM214.27 172.38c.86 1 2.35.25 1.64 2.73-2.24.7-3.29-1.99-1.64-2.73zM220.57 172.38c.87-.24.85.43 1.37.54-.33.73-1.68.75-1.37-.54zM180 172.65c.6-.05.88.22.82.82-1.01 0-.82.21-.82-.82zM156.74 173.2c0-.11.58-.49.82-.28.54.47-1.22 1.32-.82.28zM158.38 172.92c.86-.12 1.22.24 1.1 1.1-1.38-.02-1.1.28-1.1-1.1zM98.66 173.2c2 0 .4 1.17 1.65 2.74-.33 0-.24.5-.28.82-.55-.09-.86.05-.82.55-.98-1.43-.59-2.45-.55-4.11zM65.79 173.47c.22.05.27.28.54.28 0 .22-.27.27-.27.54-1-.23-.27-.45-.27-.82zM206.6 173.47c1.7-.42 1.65.9 2.74 1.09 0 1-.79 1.23-.83 2.2a2.28 2.28 0 01-1.91-3.29zM137 174a2.42 2.42 0 000-.27c1.33-.22-1.29 1.78 0 .27zM147.42 174c.55 0 1.32-.22 1.1 1.37-1.38.02-1.1.37-1.1-1.37zM92.91 174.84c-1.34 2.31-3.41 3.9-4.66 6.3a9.49 9.49 0 00-4.11 4.38c-2.46.65-3.23 3-5.75 3.57.58-1.44 2.11-1.91 3.29-2.74 1.29-2.85 6.06-3.57 5.48-7.4.24-.59 1.56 0 .82.27 1.63-.22 3.33-4.15 4.93-4.38zM181.39 174.56h.83c-.23.78.38.72.27 1.38-2.2.3-1.15-1.16-1.1-1.38zM.59 175.11c0 .5-.34.58-.28 1.1-.79-.05-.65-1.3.28-1.1zM77.84 175.11c.71 0 .55-.2.55.83-1.5 0-.57-.32-.55-.83zM130.44 175.11c.9 0 .27.23.82.28 0 .9-.22.28-.27.82-1.09 0-.83-.92-.83-.82.24.05.26-.11.28-.28zM178.93 175.39c-.05.22-.28.27-.28.55h-.55c.06-.43-.9-1.37.83-.55zM142.77 175.39a1.31 1.31 0 01.82 1.64 1.1 1.1 0 01-.82-1.64zM197.28 177.85c-1.27 1.73-3.71.2-3.29-2.19 1.75-.79 3.15.53 3.29 2.19zM151.26 175.66c1.61 0 .44.25.55 1.1a1.21 1.21 0 01-.55-1.1zM158.65 175.94c.18-.82.59.26 1.1 0-.04.68-.93.06-1.1 0zM98.11 175.94c.15 2.13-1.23 1.45-1.09.27a1.54 1.54 0 011.09-.27zM154.27 176.76c-.08 1.49-.4 2 .28 3-.58.6-1.22.06-1.65-.27.3-.26.09-1 .82-.82-.51-.49-1.21-.8-1.09-1.92.51-.53 1-.08 1.64.01zM169.34 176.48c.69 0 .55-.14.55.55-.69-.03-.55.15-.55-.55zM170.16 176.48h1.65v1.37c-.14-.01-1.89.93-1.65-1.37zM112.64 177c0-.1.57-.48.81-.27.55.5-1.19 1.34-.81.27zM203 177c.84 0 1.07.58 1.65.82-.48.44-.57 1.26-1.37 1.37.38-1.19-1.14-1.19-.28-2.19zM151.26 177.31a1.92 1.92 0 011.09 1.64c-1.35.44-1.71-.95-1.09-1.64zM109.07 177.58c.69 0 .55-.15.55.55-.69 0-.55.14-.55-.55zM41.68 177.85c0 1.62.2 1.13-1.1.83.24-.41.42-.87 1.1-.83zM206.6 177.85c0 1.31.15.84-1.1.55.07-.48.5-.62 1.1-.55zM147.42 178.4c.25-.74 1.11.13.83.82-.98.43-.17-.93-.83-.82zM172.35 178.13c1.28-.25 1.41 1.45 0 1.09zM84.42 178.4h.82c.08.72-.1 1.18-.82 1.1zM154.82 178.4c.69 0 .55-.14.55.55-.69.05-.55.14-.55-.55zM163.59 179c.3.7-.94 1.41.27 1.37.08.72-1.06.22-.82 1.09-.33-1.09-1.11-1.11-1.37-2.73.58-.65 1.53-.2 1.92.27zM151 179c.38.37.53 1.91-.27 1.92-1.34-.17-1.4-2.28.27-1.92zM194.27 179c.8-.4.8 1.22 0 .82zM199.48 180.05c-.07.85-1.37.46-2.2.54-.36-2.3 2.55-1.59 2.2-.54zM175.64 179.5v1.64c-1.16-1.97-1.06-1.64 0-1.64zM141.4 180.05c1.1 1.88 4.38 2 6 1.91 3.61 4.15-5.43 6.89 2.2 7.95-.11 1.09 1.09 1.78.27 2.74-2.07-.58-2.92-2.38-4.66-3.29-2.5 1.37-5.31-.37-6.3-2.19-.68-3.9 1.66-4.76 2.49-7.12z" class="cls-1" transform="translate(.51)"/>
  <path d="M144.41 180.32c.6 0 .87.22.82.82-1.03 0-.82.21-.82-.82zM205.23 181.41c-.27 0-.22.34-.28.55-1.2.2-1.42-.58-1.64-1.37.61-.53 1.97-.14 1.92.82zM105.78 181.14c.69 0 .55-.14.55.55-.69 0-.55.14-.55-.55zM166.87 182c-.44.08-.47-.26-.82-.27.2-.92.84-.44.82.27zM195.36 181.41a1.37 1.37 0 00-.27.83c-.36-.1-.43-.48-.82-.55.23-.8.41-.31 1.09-.28zM225.23 181.41c.91-.18 1 .47 1.09 1.1-.64-.09-1.32-.18-1.09-1.1zM187.69 181.69c.87-.32.67.43 1.1.55-.11.6-1.61.36-1.1-.55zM44.69 186.07c-1.78-3.74 3.32-5.4 3.84-2.46a2.56 2.56 0 01-3.84 2.46zM166.6 182.24c1.43 2.41.77 1.61-.27 1.37-.12-.61.5-.61.27-1.37zM155.92 182.78c.85-.12 1 .69.54 1.1-.46-.07-.62-.47-.54-1.1zM161.4 183.06c1-.21 1.22.71.82 1.09-.73.09-.9-.38-.82-1.09zM109.07 183.61v-.28c1.32-.23-1.31 1.75 0 .28zM116.47 183.61c.58-.13.52.39.54.82-.22-.05-.27-.28-.54-.28zM166.05 184.15c.78.14.79 1 1.1 1.65-1.23.31-.72-1.1-1.1-1.65zM212.35 184.43h.82v.82c-.6.05-.87-.25-.82-.82zM215.36 184.43c.69 0 .55-.14.55.55-.69.02-.55.14-.55-.55zM150.16 185.25c.8-.4.8 1.23 0 .82zM149.07 185.8c1-.16.83.81.82 1.64-.63.38-1-.7-1.1 0-.79-.38.49-.94.28-1.64zM186.32 185.8c.74.1 1.29 1.45 0 1.37a1.72 1.72 0 010-1.37zM.59 186.89c.11.94-.08 1.56-1.1 1.37-.07-.89.33-1.26 1.1-1.37zM93.46 187.17v.55c-1.34.28-.46-1.46 0-.55zM134 187.44c.44-.07.47.26.82.28 0 .22-.27.27-.27.54-.72 0-.55.22-.55-.82zM164.13 187.72c.1-.34.74-.23.83 0 .25.59-.96.63-.83 0zM166.87 188c.69 0 .55-.14.55.55-.69-.01-.55.13-.55-.55zM218.92 188c1.73-.35 3.16 2.63-.27.82a1.26 1.26 0 00.27-.82zM109.89 188.26c.68 0 .08.93 0 1.1-.68-.04-.08-.93 0-1.1zM151.81 188.26h.82c3.37 4.62-2.17 2.51-.82 0zM177.56 188.54c-.36 1.25-1.41.74-.82 2.46-1.41 0-2.41-.32-2.19-1.91.19-.22 1.52-.61 1.64 0 .39-.37.69-1.26 1.37-.55zM181.39 190.73a3.89 3.89 0 01-3.56-.28v-1.91c.49 0 .58-.34 1.1-.28 1.19.86 2.6.08 2.46 2.47zM158.11 189.09c1.61 0 1.12-.21.82 1.09-.4-.24-1.06-.18-.82-1.09zM197.28 189.09c.22 0 .27.27.55.27-.05.22-.28.27-.27.55-1-.24-.28-.46-.28-.82zM111.81 189.36c.69 0 .55-.14.55.55-.69 0-.55.14-.55-.55zM158.93 190.45c-.2.49-.5 0-.82 0 .2-.45.5-.04.82 0zM145.78 190.45c0 .39 0 .78.27.83-.25.84-1.45.74-1.37 1.92-1.24 0-1.61-1.19-1.09-2.2.98.9.73-1.08 2.19-.55zM172.63 190.45c.69 0 .55-.14.55.55-.69 0-.55.15-.55-.55zM122.77 191.28c.75 0 .65 1.29.27 1.64-.75-.01-.65-1.29-.27-1.64zM173.18 191.55a.75.75 0 01.54.82c-.95.24-.94-.37-.54-.82zM189.89 191.55c.58-.13.52.39.54.82-.22-.05-.27-.27-.54-.27zM161.4 191.82a1.91 1.91 0 11-2.47 2.47c.07-1.63.38-2.91 2.47-2.47zM183.31 191.83c.69 0 .55-.15.55.54-.69 0-.55.15-.55-.54zM127.7 193.74c-.35-.64 0-.51-.27-1.37 1.85-1.37 1.66 1.36.27 1.37zM155.09 193.74c-1.52 2.36-4.07-1.88-1.09-1.64.54.37.17 1.65 1.09 1.64zM183 192.92c.72-.08.7.57.82 1.1-.68.08-.82-.38-.82-1.1zM201.66 192.92c.81-.4.81 1.23 0 .82zM228 193.47c-.12.87-1.18.54-1.37 0 .18-.96.92-.32 1.37 0zM97 193.2c2.12-.3 1.31 1.69 1.09 1.91H97a1.71 1.71 0 010-1.91zM149.89 193.2c1 0 .82-.22.82.82-1.03-.02-.82.21-.82-.82zM171.53 193.47v.53c-1.34.29-.53-1.44 0-.53zM157.56 193.74v.55c-1.34.27-.51-1.46 0-.55zM145.78 193.74c.72 0 .55-.26.55 1.1-.72 0-.55.27-.55-1.1zM143.31 194.84c.53 1 .05 1.82.83 2.19-.66.62-1.1 1.46-2.19 1.64-2.65-.75-1.75-5.88 1.36-3.83zM135.37 194.56c.53-.1.4 1.25-.27.83v-.55c.23.05.25-.11.27-.28zM227.69 195.39a1.28 1.28 0 00-.82-.28c.13-.75.95-.58.82.28zM152.08 195.39c.68-.58 2 .5 1.64 1.91-1.9.41-1.4-1.3-1.64-1.91zM184.13 195.11c.72-.08.9.38.82 1.1-.73-.02-1.31-.63-.82-1.1zM121.12 195.39h.88v1.09c-1 .28-.95-.38-.88-1.09zM137.84 195.39c.95.08 0 .74.54.82-.38.84-1.25-.48-.54-.82zM122.22 196.48a1.31 1.31 0 01.82 1.64c-1.43.08-1.47-.89-.82-1.64zM183.86 196.76c.6 0 .87.22.82.82-.6.05-.87-.23-.82-.82zM92.63 197c1.57-.23 1.41 1.54 0 1.37a1.72 1.72 0 010-1.37zM152.35 199c.59-.13.53.39.55.82-.22-.05-.27-.27-.55-.27zM171.26 199.5c.69 0 .55-.15.55.55-.7 0-.55.14-.55-.55zM172.63 199.5c.77.05 1.16.47 1.09 1.36-1.14.04-1.49-.53-1.09-1.36zM181.39 199.5c.44-.08.47.26.83.27-.06.22-.28.27-.28.55-.71 0-.55.21-.55-.82zM159.75 199.77v1.37c-1.05-.05-1.84-1.45 0-1.37zM170.71 200.32c1.53-.08 1.92 1 1.92 2.46a3 3 0 01-2.2-.55c.01-.72-.1-1.56.28-1.91zM179.48 200.59c.44-.07.46.26.82.27.11.54-1.25.4-.82-.27zM144.14 202.23c1-.17 1.07.57 1.09 1.37a1.54 1.54 0 00-1.09-.27zM116.2 202.51c1.29 0 .84-.14.54 1.1-.48-.07-.62-.48-.54-1.1zM181.12 203.06c.54.19.73.73.82 1.37-.54-.19-.73-.73-.82-1.37zM80.85 203.33c.47-.1.52.22.55.55-.4-.08-.35.94-.55-.55zM152.35 204.15h.83v1.1c-.72.08-.9-.38-.83-1.1zM177.56 205a.76.76 0 01.54.82.74.74 0 01-.54-.82zM214.81 206.89c2.49-.86 3.24 1.21 3.57 3.29a12.14 12.14 0 00-2.74-.28c-3.14-5.71-.76-3.74-.83-3.01zM80 206.34c.64.08.63.73.28 1.1-.61-.08-.6-.73-.28-1.1zM168.24 206.62a1 1 0 01.82 1.64c-1.22.37-1.33-1.1-.82-1.64zM175.09 206.62c.86-.13.88.58.82 1.37-.82.01-1.39-.81-.82-1.37zM139.48 208c1 0 .82-.22.82.82-1.03-.01-.82.18-.82-.82zM178.1 210.18c.1-.33.73-.22.83 0 .25.59-1.01.63-.83 0zM106.06 210.18c1-.18 1.08 1.7 0 1.64-.06-.64-.54-1.13 0-1.64zM176.46 210.18a.75.75 0 01.55.82.76.76 0 01-.55-.82zM194.81 210.45c.45-.07.48.26.83.28.11.53-1.25.4-.83-.28zM206.87 210.73c.69 0 .55-.14.55.55-.69 0-.55.14-.55-.55zM130.16 211.55h1.1c.55.74.4 2.63-.82 2.47a2.33 2.33 0 01-.28-2.47zM220 212.37a.76.76 0 01.55.82.76.76 0 01-.55-.82zM169.34 214.56c-1.26.26-1.13-.87-1.64-1.37.79-1.29 2.62.07 1.64 1.37zM121.12 212.92c.83-.28.49.61.55 1.1-.48-.02-.62-.48-.55-1.1zM210.43 213.47c-.47 1.31-1.36 0-1.92 0-3-.05-5.67.91-9.59.82 3.08-1.12 7.87-1.13 11.51-.82zM112.08 214.29c-.25.92-.5.13-1.37.27 0-2.04.42.09 1.37-.27zM195.64 214.56c.85-.12 1.22.24 1.09 1.1-.85.12-1.22-.24-1.09-1.1zM168.24 216.48c0-.59 1-.12 1.37-.27.05.59-.97.12-1.37.27zM161.67 217.3h.55c.12.59-.4.52-.82.55.05-.22.27-.27.27-.55zM228.51 217.58c.58-.13.52.39.55.82-.22-.05-.27-.28-.55-.28zM186.6 217.85a1.57 1.57 0 01.82 1.64.92.92 0 11-.82-1.64zM86.06 218.4c.8-.41.8 1.22 0 .82zM147.7 218.67c1.87-.38 1.12 2.46-.28 1.1-.03-.49.34-.58.28-1.1zM175.64 222c-1.41-.33-2.9-.57-2.46-2.74 1.58-1.36 3.45.64 2.46 2.74zM190.16 220.31c-.09-.48 1.54-.48 1.09.28a1.53 1.53 0 00-1.09-.28zM215.91 220a2.21 2.21 0 01-1.64.55c-.27-.95 1.08-.34 1.64-.55zM219.47 220a.76.76 0 01.55.82c-.95.28-.94-.38-.55-.82zM140.58 220.86c.68 0 .54-.14.54.55-.69 0-.54.14-.54-.55zM180.84 222.78c-1 .13-1-.69-1.37-1.1.01-.99 2.71-.74 1.37 1.1zM228.79 222.23c.57 1 .14 3 .27 4.39-1.68-.62-2.89-3.95-.27-4.39zM158.65 222.51a1.24 1.24 0 01.83 2.19c-.72-.29-.9-1.11-.83-2.19zM67.16 223.06c.69 0 .55-.15.55.54-.71 0-.55.14-.55-.54zM97.56 226.34c-.77-.22-.71.39-1.36.28-1.55-3.1 2.7-3.43 1.36-.28zM140.85 226.07a1.35 1.35 0 01-1.37.55c.04-.62.69-.62 1.37-.55zM168.24 226.62c.86-.13.88.58.82 1.37-.84.01-1.23-.99-.82-1.37zM153.18 227.44c1.08.06 1.17 1.12.82 1.92-.63-.29-1.42-1.24-.82-1.92zM155.09 228a1 1 0 01.83 1.64c-.99.15-.84-.82-.83-1.64zM167.7 228.53c-.11-.53 1.24-.4.82.28-.91 0-.27-.22-.82-.28zM115.1 228.53c.9.85-.42 3.2-1.1.28a1.57 1.57 0 011.1-.28zM173.72 229.08c1.29-.39 1.92 1.59.83 1.92-.94 0-.81-1-.83-1.92zM116.74 231.55c0-.11.58-.49.82-.28.55.47-1.22 1.32-.82.28zM119.75 232.92c.8-.4.8 1.22 0 .82zM147.42 233.47a.58.58 0 110 1.09zM129.34 234.56c.95-.09 1 1.43.55 1.92-.89.05-1.07-1.36-.55-1.92zM183.31 235.11c.8 0 1.2-.29 1.1 1.64-.88-.04-1.21-.62-1.1-1.64zM175.91 235.38c.86-.12.88.59.83 1.37-.86.13-.88-.58-.83-1.37zM154 236.2c.59.25.83 1.53-.28 1.37-.3-.86-.13-.72.28-1.37zM195.64 236.2h1.09c2 3.87-1.79 1.8-1.09 0zM83.87 237.57c.95-.24.47.9.27 1.1-.37-.09-.23-.67-.27-1.1zM178.65 239.22c.91.49 1.14 1.06.82 2.19-1.16-.09-1.72-1.56-.82-2.19zM129.62 239.76c.85-.12 1 .69.54 1.1-.48-.07-.62-.47-.54-1.1zM169.61 241.41c.69 0 .55-.14.55.55-.69.04-.55.14-.55-.55zM93.73 246.61c.82-.27.49.61.55 1.1-.48-.07-.63-.47-.55-1.1zM172.63 247.16c.36.85-.08.78 0 1.92-1.54.54-1.54-2.45 0-1.92zM167.7 248.8c1.32-.07 1.22 1.58.82 2.47-1.11-.18-1.78-1.78-.82-2.47zM177.28 250.45c-.25 1-.8.17-1.64.27.36-.39 1.22-.72 1.64-.27zM161.4 251.54c1.26.39 1.86 1.43 1.64 3.29-2.1.47-2.75-2.24-1.64-3.29zM154.27 252.64c.59-.13.53.39.55.82-.22-.05-.27-.27-.55-.27zM155.37 252.64c.48.25.95.51.82 1.37a.82.82 0 01-.82-1.37zM223.58 28.28c.84.27-.32.73-.27 1.09-.65-.07.31-.73.27-1.09z" class="cls-1" transform="translate(.51)"/>
  <path d="M125.51 174.29c0-1.09-.12-1.09-.28-1.09-.88 1-.32-1.67-1.37-1.37a1.65 1.65 0 001.65 2.46zm40.27-3.29c.06-.76 1.54-.1 1.37-1.1-1.59.22-2.14-.6-2.19-1.92-.4.15-1.42-.32-1.37.27 1.16.49 1.1 2.2 2.19 2.75zm-11.51-2.2c.19-.73-.57-.53-.82-.82-.05.61.22.88.82.83zm7.4 0c1.43.9 2 .31.27-1.09.06.52-.31.61-.27 1.1zm3.29-2.19c-.7-.14-.72.55-1.65 0-.07.63.07 1 .55 1.1-.16-1.4 1.16.95 1.64-.28-.85.09.7-.79-.27-.82-.23 1.49-1.08-.15-.23.01zm-9.87-14c-1.39.24-2.84.49-3.83-.27-.48 1.15-.17 2 .27 3.28-2.53 0 .11-.2 0 2.74 1 .3.44-1 1.37-.82-.14.87-.8 1.2-.82 2.19.62 1.12 1.94 1.54 2.74 2.47.26-.51-.82-.92 0-1.1.51.64 2.58.87 3 0-.16-.47-1.3 0-1.37-.54-.08-.73.38-.9 1.1-.83-.31 1.7.85.23.55 1.92 2.86 0-.43-1.46-.82-3.56 1.23.19.73-.56.27-.82 1-.31 1.85-.71 1.92-1.92-2.15-.1-4.57-1.08-4.38-2.7zm-40-.27c.68 0 .66-.62 1.1-.83-.22-.06-.32-.22-.28-.54-.41 0-1-.1-1.1.27.81.28.32.45.29 1.14zm11 1.09c-.17-.38-1.06 0-1.1-.55 1-.87-.21-1.34.55-2.73-.77-.36-4.4-1.16-3.84.54-1.49-.74-1.61 1.47-3 1.65-.08.53.37.54.55.82-.22.06-.32.23-.28.55-.89-.16-1.27.18-1.92.27-.44-.46-.59-1.23-1.09-1.64 0 .48-1.54.79-.55 1.37.41-.83.82.61 1.1.82 1.74 0 3.79-.33 3.56 1.64 2.21-.16.5 1.9 1.64 2.74-.08-.72.38-.9 1.1-.82.16-1-.84-.81-.82-1.64.84.2.52-.76 1.37-.55.93 1.17.83 2.16-.55 2.74.82.43-1.27 1-.28 1.64.74-.12 1.37-1.06.83-1.64 1.4-1.11 2.17-.13 3.56-.55a1 1 0 01-.55-1.64c-.92 0-.74-1.09-1.1-1.65 1.07.16 1-.86 1.65-1.09-.34-.23-.67-1.85-1.1-1.1.28.09.26.47.24.86zm-11.24-4.93c-.39.15-1.41-.32-1.37.27.41.5 1.23.84 1.34-.23zm26.58-3c-.05-.41.09-1-.28-1.1-.38.4-.39 1.05.25 1.13zm-.55.55c-.41-.42-1.56-.09-1.37-1.1.26-.75 1.31-.7 1.37-1.64-1.31.71-1.43-.16-2.47.27a.74.74 0 01.55.82c-.57.16-.88.58-1.37.82 0-.81-1.29-.35-1.64-.82 1.06 1.67 1.82 3.67 1.37 5.48 2.05-1.07.16 2.69 3 1.92.33-.82.08-.93-.27-1.64 1.55-.59 1.09-3.88 3.29-3-.49-2.84-3.92 1.46-4.94-.27.13-.7 1.19-.46 1.37-1.1.06.26 1 .93 1.08.29zM123 143.88c.69 0 .55.15.55-.54-.65 0-.55-.14-.55.54zm15.34-1.09h-.54c.39-.4.21-.87-.55-.82-.08.6.86 1.51 1.13.82zM116.2 142c1.38.4-.19 0 0 .82 1.79.22.66-1.35.54-1.37 0 .33-.48.22-.54.55zm-11.51-1.1c-1.09-.27-.83.82-1.92.55-.45-.94 0-.83.55-1.37-1.31-.28-4.09-.23-4.66 1.1 2.26.52 4.42-.09 4.38 3 1.22.13 1.37-.38 2.2 0-1.12-.82.3-2.27-.55-3.31zm18.63.82c-.36-.09.52-2.33-.55-2.46.41-.78 1.31-1.07 1.37-2.19-.75-.72-1.17.44-1.92.54.98 1.16-.46 4.5 1.1 4.08zm13.42-4.11a1.58 1.58 0 01.27 2.47c.84 0 .66 1 1.65.82-.06-.52.31-.6.27-1.09-.47-.11-.7.4-.82 0 .32-.41.34-1.13.82-1.37.81-.22 1.21 2 1.65-1.1-1.68-.86-2.19-1-3 .82a1.5 1.5 0 01.28-1.92c-.79.03-1.19.45-1.12 1.34zm-18.08.83c.55.55.93-.47 1.09-1.1-.54-.28-.43-1.21-1.37-1.1-.56.45-.63 1.38-.54 2.47-.66-.11-.6.5-1.37.27-1-1 .62-1.8-.82-2.19 0 .8-.44 1.14-1.1.28-.14 1.1 1.12 1.33 0 1.91a5.2 5.2 0 012.74 2.2c-.05-.6 1-.13 1.37-.28-.12.94.82.82 1.09 1.37-.64.65-2.28 2.24-2.74 1.37-.37 1-1.38 1.35-1.64 2.47.3.25.09 1 .83.82-.31-1.59 1.33-1.22 2.46-1.37.67-.33-.56-1 .27-1.37h.82c0 .77-.23 1.88.55 1.92-.09-1.86.68-.21 1.1-.83-.68 0-.08-.92 0-1.09-1.28 0-.52-.78-.55-1.65-.72-1-1.88-1.58-1.64-3.56-.37-.67-1 .31-1.1-.27.32-.6 0-1.77.82-1.92.59.78.55 1.15-.27 1.62zm9.59-1.37c1.06-.24 1 .67 1.64.82-.56-1.82-2.06-2.69-1.92-5.21a4.43 4.43 0 01-3-.55c-.13 1.24-.88 1.87-1.1 3 1.08.8 2.39-.34 2.74 1.09.12.76-1 .26-1.09.83a1.35 1.35 0 011.37.54c-1.43-.21-2.32-.22-2.74.83 5.87-1.11 2.65-1.48 3-2.74.91-.99 1.94.58 1.1 1.32zm-3-5.76c1.09-.17 1.1.73 2.2.55.23-.87-.44-.85-.55-1.37a5.2 5.2 0 00-1.67.79zm-12.87 1.1c1.88 0 0-2.49 1.64-3-.76-.06-.09-1.54-1.09-1.36-.18 1.17-1.22 2.3-.57 4.33zm18.9-6c.92.06.55 1.8 0 1.92-.7-.59-1.55.25-1.92-.27.85-1-.2-2-.82-3.29-2 5 4.07 2.71 3.56 12.87 5.21-1.6 3.14-2.92 4.66-1.91.2-2.52-3 .58-3.29-.83 0-1 1.21-.62 1.37-1.37-1 .26-.62-1.81 0-1.64s0 1.3.55 1.37a5.1 5.1 0 01.82-2.46c-.75-.66-1.76.53-2.46-.28 1.15.21-.38-1.05.82-1.1 1 .29 2.62-.27 1.64-1.09-.45.83-2.61.29-3-.55.3-2.27 2.27-2.82.55-3.29-.71 1.29-1.49 2.19-2.5 1.86zm.82-3c.88-.24.38.9 1.1.82-.09-1.16.8-1.64-.55-1.92.18.69-.56.48-.57 1.03zM120 121.7c.71-.74-.29-1.33-1.1-1.37.19.67.27 1.4 1.1 1.37zm-2.47-1.37c0 1 .13 1.88.82 2.19-.36-.65.65-2.08-.27-2.74 0 .33-.08.65-.52.55zm-1.36-1.92c.52.22 1.12 1.77 1.91.82-.85-.24 0-2.2-1.1-2.19-.21.48-1.07.35-.78 1.37zm23-1.65c.17.75-.35 2.18.27 2.47a.28.28 0 01.55 0c-.81 1-2.09-.65-2.47 0 .74.58-1 2.43-.55 2.74s1.67.34 2.2 1.09c1.69-1.78 1.51-4.56 2.46-6.57a2.7 2.7 0 00-2.42.27zm12.6-3.28a1.34 1.34 0 001.37-.55c-.45-.05-1.42-.92-1.65-.28.36.05.34.44.32.83zm-32.33.27c.88 0 1.14 1.53.82 1.92.52.26.92-.82 1.1 0 .29 1-1.3 1.17.82 1.92.17-.57.42-1 1.37-.83v1.1h1.1c-1.14-2.22 0-3.6-.55-6-1.71.86-3.17.54-4.62 1.89zm32.05-1.92c-.84-.06-.46-1.36-1.64-1.09a1.34 1.34 0 01-.27.82c.42.2 1.95.61 1.95.27zm-61.09-4.11c0-.68 0-1.33-.54-1.37.14.52-.34 1.65.58 1.37zm-2.4-4.1c1.15.39 1.16 1.94 2.19 2.46.54-1.78-2.66-2.1 1.91-2.74.53-3.92-3.2-3.34-4.1.28zm27.67-18.91c1.12-.13-.27.74.82.82.35-.93 1.52-1 1.64-2.19-1.2.29-.9-.92-1.91-.82-.07.87-.65 1.2-.57 2.19zm34.24-3c.63-.77.09-2.11 0-3-.78.23-.71-.38-1.37-.27-.32 1.86-.98 3.95 1.35 3.26zm-17 69.85c1 2.46-1 2-1.1 3.84 1.53-.17 1.52 1.21 1.92 2.19a5.58 5.58 0 00-4.11 3c.54 0 .35.74 1.09.54.45-.47 1.13-.69 1.37-1.37 1.95.55 3.79-2.21 4.11-3.28 1.21.83 1.38-1.72 2.47-1.92-1.29-1.71 2.92-.28 1.64-2.19-.24.81-.41-.64-1.09-.28-.06.22-.23.32-.55.28.63 1.12-1.08 1-1.1 2.19.31-1.31-.85-1.16-.55-2.47.72.08 1.18-.1 1.1-.82-2.21-.95-2.99.86-5.2.28zm5.2-73.41h3c.2 1.59 2.36 2.49 1.65 4.11.7 0 1-.51 1.37-.83 3.35.34 3.53-2.49 4.65-4.38.39 0 .78 0 .83-.27 0 .37 1.3.74 1.09.55.53.49-.25.93 1.37.54-.25.49-1.11.35-.82 1.37 1.53.78 4.51.87 6 .82 1.81 1.68 2.37 4.4 6 3.57a3.76 3.76 0 012.19 3.56c-.73.08-.49 1.15-1.09 1.37.16 4.29-2.41 6.92-2.74 9.86-1.39 1.17-4.2.92-5.21 2.47 0 1.81-1.43 2.21-2.74 2.74a3.06 3.06 0 01-1.37 2.19c.26.56 1.08.56 1.1 1.37-.48-.25-.8-.67-1.37-.83-.36.1-.43.49-.82.55 0 .51.93.17 1.09.55.18 3.48-1.7.64-3 .82a1.72 1.72 0 010-1.37c-1.59.56-.72.42-.82 2.19a.75.75 0 01-1.1 0c.93.71-.45.85-.82 1.37-.73 1.05-.16 2.14 0 3.84.39-.8 1.33-1 2.19-1.37-.08-.64-.84-.61-1.09-1.1-.32-1.23 1.53-.29 1.09-1.64 1.84.66 1.93-.65 3.56-.82.75.87 2.56 1.18 1.65 1.64 1.39-.05 3.76.87 3.83 3-1 1.66-2.42-.16-3.83.54.05-.68-.62-.66-.82-1.09-.37.19.13.73-.28 1.37-1.93.5-3.54.17-5.75.82 0 .85-1.62 1.65-1.92 3 .35 1.51 2.59 1.82.82 3.29 1.48-.11 1.15.76 2.47.27 0 2.33.17.14-2.19.82a6.52 6.52 0 00-1.37-2.19c-1 1.3 1.12 1.79 1.09 3-.83.26-.63 1.56-1.91 1.37.07.71.09 1.37-.82 1.09.09.36.48.43.54.82.36-.64 1.24-.77 1.92-1.09.71 1.3 2.33.94 3.56 1.09 1 .13 2.06.93 2.74.55-1.08.85 1.11 2.56-.27 3.84-1.82-.11-4.33-.74-4.93 1.91-1.76-.2-1.78 1.33-2.47 2.2 1.26.66 3 .66 3.84-.28-.69 2.36 1.6 3 .82 5.48.11.53 1.06.22.82 1.1-.55.09-.86-.06-.82-.55-1.14 1.39.06 3.94-.82 5.75 1.17-2.4 4.35.09 4.1 2.47 4.46-1.39 3.53 2.1 2.74-3.29a2.52 2.52 0 001.65-1.1c1.46 0 2.2 2.65 3.56 1.1 1.67.88 1.63 3.79-1.37 1.37-.65.92 1.21 1.23 2.19 1.37.5-.41.68-1.14 1.37-1.37 1.73 0 2.67 1 3.83.82.43 1-.92.17-.82.82.38 1.72 2.58-1.64 4.93-1.91.54 1.9.35 2.92.83 5.2-1-.88-4.29 1.14-4.39-1.92h-1.09c-.41.08-1.18 1.15-.55 1.37-.28 0-2-.54-2.74.28.59 1.07-.38 1.65-1.37 1.92 1.41 1.33 3.71 1.77 4.66 3.55.82-.18-.27-.58 0-1.09a16.1 16.1 0 013.83-.82c.43.73.33 2 1.38 1.37-.08.56-.74.54-1.1.82.68.42 1.11 1.08 2.19 1.09.83-1.07.4-3.43 2.47-3.28 0-.51-.12-1.88.27-.55.79.58 2.18.55 2.46 1.64.49-.06.63-.47.55-1.09.82.57 2.78.61 3-.28.18-.68-1.34-.61-.82-1.64-1 .17-2.34 2.07-3 .82-.28-.82.61-.48 1.09-.54-.24-.68-1.52-.3-1.36-1.38.92-.62 1.59-1.51 3.28-1.37.31 1.77 3.72 1.41 1.37 0a6.41 6.41 0 002.47-1.36c3.55.68 4.25-1.84 7.67-.55.31.86 0 .62 0 1.64 1.6-.45 1.93.42 3.83.27.46.55 0 .35 0 1.1.68.73 2 .25 2.47.55-.44.79-1 .33-1.64 0a16.28 16.28 0 00-1.65 4.11c-2.48-1.54-5.38.37-4.38-2.47-.54-.83-1.87-.87-2.47-1.64-.59 0-.59.69-.54 1.37-1.14.68-2.5-.07-3 .82-.08.73 1.54-.26 1.1.82a2.42 2.42 0 00-2.19.55c-1.55-1-3.49-.31-4.66.55.88.61.49 2.24.27 3.29-.53-.14-1.74.39-1.09.54-1.06-.22-4.34-.14-4.66-1.37-.61.46.78 1.21 1.1 1.65a16.81 16.81 0 00-1.37 2.19c0 .61 1.16.12 1.64.27a3 3 0 01.82 2.47c-1.63.66-2.81-.12-2.46-2.19-1.85.25-3.09 1.11-3.29 3-1.09-.47-2.93-1.63-2.19-3-.72-1.11-2-1.62-2.74-2.74 1.17-.44 1.84 1.73 3 2.19.33-1-1.44-2.21-1.64-3.56-1.64.46-1.9 2.3-4.11 2.19.31 1.31 1.57 2.89.82 4.38 1 0 .93-1.94 2.19-.82-.56-2.5 1.66-1.38 2.19.28-.46-.11-.51.21-.55.54-.31 1.24 1.54.3 1.1 1.64 1.74.49 2.5-.21 4.11.28-.09-1.18-1.95-.61-1.64-2.19 1.53-1.65 1.83 1.16 2.19 1.91.82-.17-.26-.58 0-1.09.9 0 1.36-.46 2.47-.27.56 1.35 2.81 1 2.73 3-1.32-.61-2.77-3.65-4.65-1.92 1 .59.87.54 1.09 2.19.74.19.53-.56.83-.82.81 0 .93.71 1.64.82a1.77 1.77 0 01-.28 1.37c.74-.1 1.23 1.45 1.37 2.74-1-.19-1.21.44-1.09 1.37-2.26 0-1.71-2.23-1.64-3.83-.24-.65-.68.75-1.65.27-.1-1.45.27-2.2-1.09-3.29-1.49.34-3.81-.6-4.11.28 1.14.5 3 .28 3 1.92-.32.77-.57 1.62-1.65 1.64 0 3.51-.5 1.21-3.28 1.64.2.62.82.82 1.37 1.1.6 2.52-1.6 3.58-.55 5.2-1.2.65-1.36-2.1-2.19-2.74.25-.92.51-.13 1.37-.27-.29-1.72-.55-3.47-1.92-4.11a.91.91 0 01-1.64 0c-.8.24-.31.41-.28 1.09-.92-.13.13-2.43-1.37-1.36-.33-.65-1.45-1.43-.82-2.19-.64.08-.51 1-1.37.82s-1.53-.29-1.37-1.37c-.31-.13-1.32 0-1.09-1.37-2-.14-2.8.85-4.11 1.37-.26-1-1.61-1.49-1.1-3-.05-.44-1.3.45-1.09-.82 1.93.11 1.4 0 1.09-1.37 1.34.71 2 .36 2.74 1.65a1 1 0 00-.82-1.65c.69.25.15-1 1.09-1.09a4.1 4.1 0 00-1.64-2.2c-.19-2.9-3.14-5-6-6-.77-.23-.71.38-1.37.27-.57.08.4.73-.27 1.1-.42 0-.9-.75 0-.55-1.57-1.91-3.1.75-2.19 2.74-1.21 0-1.32-3.66.27-3.29-.42-1.37-1.45-.49-2.19-1.37-1.54.42 1.6 1.62-2.19 1.37a4.76 4.76 0 011.37 2.19c-.35-.37-1.34-.42-1.37.28a1.57 1.57 0 01-.82-1.65c-.8.21-.53 1.48-1.64 1.37-.14.86.94.73.27 1.37-.76 0-.94-.42-.55-.82-2.07.89-2.21 2.29-4.11 3 .52 2.2 3.28-.35 3 3.56 4.26-1.3 0 4.39.27.56-2.62 1.12-2.41 5.08-5.21 6a1.34 1.34 0 00-2.19.28c.65 3.13.74 5.41 1.65 8.49 1.79-1.22 4.22-.11 3.56 2.74-1.66 1.08-5 .52-5.48 2.74a6.81 6.81 0 00-3.56 1.37c.32-.36.1-.44 0-.83-2.3-.38-3.41-1.7-5.48-1.64-.31-2.39-.47-3.49-2.19-4.66.12-.7 1.18-.46 1.36-1.09-.43-2.65.47-3.66.28-5.21.86-.13 1.07.39 1.64.55-.82-1.59 1.41.13 1.37-1.64 1.61.72 2.75-.74 3.29-1.92-.61-.77-1.69.3-1.37 1.37-1 0-.93-1.08-1.1-1.92 4-3.15.14-2.15-.54-4.93a1.21 1.21 0 00-1.1.55c-1.68-.87-1.2-2.31.27-2.19-.32-.73.53-1.62 0-1.65a2.73 2.73 0 001.65-1.37 5.36 5.36 0 01-1.92-3.29c-1.69-.21-1.83.66-2.74-.82-1.72 1.92-2.67 4.18-5.2 4.66.41 3-4.36 4.23-4.39.82-.74 0-.55.46-1.09 0 .79-.81 2.23-3.27.27-3.83-.09-2.83 1.71-3.77 2.47-5.76 0-.77-.48-1.16-1.37-1.09 1.71-3-2.47-4.24-4.39-2.74-.14-.72-.36-.26-1.37-.55.31-3.32-3.88-2.81-3.83-6.57-1.76.17-4.31.8-4.93-.82 1.88-10.32-1.57-4.19-8-12.88-1.48.65-4.32.37-5.2-1.1-.24-1.55 1.23-2.85 3.84-.27a1.21 1.21 0 01.82-.27c1.65-3.19 5.18-4.5 5.2-9.32-.05-.22-.27-.27-.27-.55-1.64.61-5.55-.29-6.3 1.92-16.09-2.31-4.42-1.05 5.75-2.19-.55-1.27-3.08-.58-2.74-2.74a1.72 1.72 0 011.37 0c-.3-.76-.43-1.54.82-1.37.6.92-.82.85-.82 1.37 0 1 1.82 1.6 3 1.92 0-1-1.7-.49-1.91-1.37a1.48 1.48 0 011.37-1.65 4.78 4.78 0 01.82 2.2c1.17-2.51-1.87-2.84-.82-5.48-1.14-.23-1 .8-1.65 1.09-7.07-.23-3.2-.16-3.83 1.37-.59-.12-.53.39-.55.82-.52 0-.19-.9-.82-.82-1 .94-1.12 1.53-3.56 1.92-.2-.66-.78-1.66-.28-2.19.79-.06 1.39.07 1.64.55.74 0 .6-.87 1.38-.82-1.75-1.91-1.91-2.76-5.49-3.29-.39.33-.41 1-.82 1.37-.64-.41-.5-.58-1.36-.28.52-.52 1.13-.91.27-2.19 2.78-.74 3.67 2.39 6.85 1.1-.77-1.42 0-3.39.55-4.38-2.44-1.11-3.87-4.08-1.65-6.31.43.46 1.07-.09 1.65-.27-.92-.5.48-2.33 2.19-1.92.27.37.26 1 .82 1.1-.09.64-.28 1.18-.82 1.37.24 1.21 1.71 1.2 1.36 3 .23.87 1.81.38 1.65 1.65.95-.16 1.2-1 1.64-1.65-.3-1.24-1.38-1.6-.82-3 .53-.48 1.39-.62 1.92-1.1.08-.72-1.06-.21-.82-1.09.86-.13 1.22.23 1.09 1.09 3.83 0 1 .71 2.74-2.74-.26-.55-1.05-.59-1.92-.55-.93-.61-.52-2.57-1.91-2.73.56-1 .32-1.83.55-2.74a1.34 1.34 0 00-1.37-.55c.5-.87-.54-2.73 0-3.56 1.51.58 3.09 1.11 3.55 2.73 1-1.16 2.69-.18 4.39-.82.81 2 3.35.59 4.11 2.47.24.88-.9.37-.82 1.1.67 1 1.61.81 1.09 2.46.62-.42 1.7-1 1.1-2.46.75-.21.55.54 1.09.54-.64.27-.64 1.18-1.09 1.65a17.92 17.92 0 004.66 4.65c0 2.13-1.67 2.54-3.29 3-1.22-1-1.1-3.41-.83-4.66-1.51-.1-2.37.61-3.28-.27-.13-.86.74-.73.82-1.37-.73 0-1.56.1-1.92-.28-.35.37-.17.83.28 1.1-.55.84-1 .06-1.92.55.56.44.63 1.37.55 2.46-.49.35-1.71 1.38-2.47.55-.7 1.22-1.35.83-2.47 1.64.77.88 2.82.48 3 1.92 2-.34 3.6-.69 3.84 1.37.43-.75-.17-1.26.27-2.19-.7-.94-1.78-1.52-1.92-3 1.35-.4 3.85-2 4.11 1.64.07.57 1.21.08 1.37.55 1.36 2.53-1.27 5-3.29 3.29-.8.23.36.68 0 1.37 1.38.19 1.91-.47 3.29-.28.31.61 1.08.74 1.37 1.37 2.78-1.71 1.86-7.09 5.75-1.92-.67.24-.49 1.34-1.09 1.65.86.78 2.24 1.87 3.56 1.37-.37 2.42 2.6 2.81 1.92 4.65.66-.11.59.5 1.37.28a7.82 7.82 0 01-.55-6.3c-.07-.85-.76-1.07-1.1-1.65 0-2.24.8-3.81 2.74-3.83 2.21 0 3 3.11 4.93 3.29.89 1.87.36 3.34 0 5.2.16.66 1 .61 1.65.82.63-.74.83-1.9 2.46-1.64.31.78.75 1.44 1.1 2.19 0 .43 1.63-.53 1.37.82a.83.83 0 01-1.37-.27c-.72.31.37 1.06.55 1.37-.34 1.15-.08 3.85 1.64 3.83v1.1c.89-.3 2.52.14 2.74-.82-5.65-1.16-1.44-.32-2.19-2.47a1.59 1.59 0 011.92.82c.47-.25.5-1 .82-1.37-.81-.33-1.62-.06-2.47-.82.14-1.42.68-2.42 2.19-2.46.86-.13.77.68 1.1 1.09.62-.29.1-1.72.27-2.46a5.25 5.25 0 003.84-2.74 3.54 3.54 0 01-1.1-3c.53.41 1.59 1 1.92 1.92.53 1.5 1.84-2.41 2.47-4.66-.13-.4-.36.11-.83 0a4.25 4.25 0 013.84-1.37c1.71 2.21-1 3.84-1.64 6.31-.52 1.94.35 3.75-1.1 4.65a30.72 30.72 0 001.1 5.48c1.5-.71-.56-1.06-.28-2.19.69 0 .86-.52 1.1.27.76-2.32 4.31-6.39 2.46-6.57a16.68 16.68 0 003.29-4.66c-1.3-2.07-3.78-5.15-1.92-7.94-.44-1.72-.72-3.25 1.1-3.84 0-.68-.43-.85-.55-1.37-3.55.59-4.75-2.19-6.85-2.19.07-.3.54-.19.55-.55-.84.28-2.15 2.84-4.11 3.56-.23.78.38.71.27 1.37-.22.24-.75.17-.82.55-.88.24-.37-.9-1.09-.82-1.52.31-2.17 1.49-3.56 1.92a2 2 0 00.82.55.55.55 0 01-1.1 0c-.56 1.68-5.37 3.88-3 1.36-1.28-1.19-.3-3-1.92-3.83-.13-1.5.8-2.75-.82-3 .63-.65 0-1.65-.28-2.18-.64.08-.5 1-1.37.82 0-1.44-.59-1.85-.82-3.57 1.16-1.13 1.69.39 2.74.83-1 2 1 4.81 2.47 6 .15 1.07-.7 1.13-.82 1.92.46 1.75 1.92-.68 1.91 1.37 2.68-.34 4.44-1.59 5.21-3.83.88-.45 1.48-.14 2.46 0-1.16-.21-1.18-1.57-2.46-1.65-.15-1.06.69-1.13.82-1.91-.07-.85-.59-1.24-.82-1.92-4.3 1.55-2.89-1.15-4.66-1.1v-3.26c-3.67 0-6.31 1-8.22 2.74 1.16 1.33-.55.77-4.93 5.21.06 1 1.15 1 1.1 2.19-1.51 2.07-3.12 5-2.74 7.4-.86.13-1-.69-.55-1.1-.31-1-2.37-.19-3-.82.83.72 3.1 2.57 1.1 3 .11.62 1.34.11 1.91.28.44 1.54-1.2 2.44-.82 3-.63.52-1.82-.73-2.47-1.1.7-1.85-.67-1.67-1.09-3 .24-.67.24-1.58 1.09-1.64-1.7-1.84-4-4.79-3.56-7.13.43.12.24.86 1.1.55-.12-.74-1-1.4-.27-2.19h1.09c-.11.66.5.6.27 1.37 1.43-.22 3.61.32 3.29-1.64a2.28 2.28 0 01-1.1-2.47c-1.41 1.33-4.24-.64-3.83-1.92 1-.42.16.93.82.82.42-.73.94-1.36.55-2.19.35 1.27 1.71.06 2.46 1.1 1.11-1.73 5.53-.13 5.21-3.29 1.4-.12 1.4 1.16 2.46 1.37.27-.26.2-2.06 1.37-2.19.73-.08.71.57.83 1.1.2 1-1 .59-1.1 1.36s.93.54.55 1.65c2.55-2.18 5.53-3.86 9-3 0-.35-2.32-3.29.82-2.74 0 1.56-.49 2.78 2.47 0 1.4-.21 1.44 1.11 2.46.54-.71.7-1.2 3.75 1.1 3-1.87-9.12.09-.35.96.02zM163.31 75.4c1.88-.6 1.74 4.28-.82 3.83-.12-.24-.24-.48-.55-.55-.36-1.74 1.64-2.55 1.37-3.28z" class="cls-1" transform="translate(.51)"/>
  <path d="M131.26 94.58c0-.44.13-1-.27-1.1 1-1.17 3.33 2.37 1.37 2.46-.23-.77.38-.71.27-1.36-.52-.52-.49.16-1.37 0zM127.7 97a3.42 3.42 0 013.84 0c-1 1.09-1.84 2.59-3.84 1.37-.36-.64.61-1.29 0-1.37zM193.17 98.68c.18-.43 1.6.21 1.92.55 0 .88-.62 1.21-1.64 1.1-.71-.33.21-1.64-.28-1.65zM173.18 108.27c-.26 1.21-1.13 1.8-1.37 3-.83.36-2.44.11-2.75.27-1.49-6.2 2.24-6.69 4.12-3.27z" class="cls-1" transform="translate(.51)"/>
  <path d="M171.53 115.67c-2.57-3.73 3.4-6.06 4.66-2.19-.05.31-.28.15-.28 0-.57 2.14-2.08 2.23-4.38 2.19zM208 112.11c-.14-.36 1.36-.12 1.09.54-.77.2-.58-.54-1.09-.54zM150.44 117.31c.44.83 2.23.33 2.19 1.65.9-.29.92-1.46 1.09-2.47.58-.48 1.34.52.83-.82.1 0 5.49-1.52 4.38 4.93.33.4 1.2.26.82 1.37-1.29.19-1.08-1.11-1.92-1.37-1.69 1.64-3.27.18-4.38-1.37-.25.07-.73 1.21-.27 1.1-.66 1-2.09-1.46-2.74-1.1-.69-.55.81-1.02 0-1.92zM160.57 120.33c1.53.11.07 1.61-.27 1.64-.01-.65.47-.81.27-1.64zM23.05 120.87c.06.47-.47.71 0 .83-.05.79-2.16-1.09 0-.83zM163.31 121.7c-.56-.71.76.18.82.54-.46 1.04-.45-.59-.82-.54zM51 123.34c-.27-.28-.55-.56-.83-.82 0-.77 1.67-.77 1.65 0-.53.65-.8 1.57-1.65 1.92.57-.38-.62-1.31.83-1.1zM157.83 127.17c-1.42.18-1 .59-2.19.55-.47 0-1 .55-1.09.55-.53 0-1.32-1.25-1.37 0-.56-1.13-.35-3.56-.55-5.2 1.68.12 1.26-.61 2.46-.55-1 1.06 1.41 2 2.74 1.92.14.86-.6 1.06 0 1.64.78 0 .69-.78 1.1-1.1.85.87-1.32 1.02-1.1 2.19zM162.76 130.46c.6-.62.94.23 1.92 0-.18.28-.63.28-.55.82-.51-.77-2.18-.66-2.19.55-.14-.46-1.06-2.21-2.46-1.09-1.07-.49.72-1.78 1.09-.83.52-.91 2.33-1.12 2.19.55zM175.37 133.47c.23.82.41-.63 1.09-.27.12.58-.18.73-.27 1.1 1.62-.08 1.88 1.22 2.46 2.19-1.15-.51-.69.59-1.37 1.64-.49 0-.57-.33-1.09-.27 0-.86-.28-1.6 1.37-1.37 0-.73-.77-.7-1.1-1.1-.81.84-1.35 2.77-3 1.92-2 .95-4.19.12-4.39-2.19-.11-.62-1.6.14-1.09-1.1.55-.09.86.06.82.55 1.51-2.81 4.49-1.9 6.85-3.56 0 .7 1.51 2.53.55 1.64-.53.03-.2.91-.83.82zM196.19 131.28c.5 0-.82.54-1.1.28.03-.11.91-.96 1.1-.28zM181.12 135.67a2.92 2.92 0 01-1.37-3 12.65 12.65 0 003.29-1.37c1.46.29 1.4 2.74 1.09 3.29-.7-.09-2.02.64-3.01 1.08zM158.93 132.93c-.37-.09-.23-.69-.27-1.1.85-.13.77.69 1.09 1.1-.08.97-.55-1.16-.82 0zM197.56 132.65c-.62-.44 2 .06 2.19.55a1.48 1.48 0 00-.27 1.1 2.09 2.09 0 01-1.92-.55c.08-.17.68-1.06 0-1.1zM149.62 136.49a2 2 0 00.82.55c-.22 1-1.95.33-1.65-.83.55.1.86-.05.83-.54.62-.38 1 .7 1.09 0 .48.06.63.47.55 1.09 2.58 0 .69.09.82-.82 1-.09 2.13 1.64 3 1.92.32.1.76-.38.55-.55 1.12.87 1.54 1.55.82 3.29-.5 0-.16-.93-.54-1.1-1.32.86-.48-.25-.55 1.37-.36-.09-.43-.48-.82-.55.11.53-.92 2.17 0 2.47.08.63-.79.3-.83.82-.75-.65.44-1.66-.27-2.46-.52.11-.69.58-1.37.54.55 1-.38 1.62-1.37 1.1.24-.49.77-.7.55-1.64 1.09.08 1.38-.64 2.46-.55-.19-1-.82.11-1.37-.55.54-.51.09-1 0-1.64-.36.09-.43.48-.82.54s1-1.46 1.37-.82V137c-1.37.53-1.62-.24-3.27-.51zM75.65 137.58c.63.47 1.34.86 1.37 1.92h-1.1c.31-1.2 0-.9-.27-1.92zM168 137.86c.62-.51 1.93.61 2.74.82.13 1.13 0 2-1.1 1.92-.08-1-1-1.19-1.64-1.65-.41-.62.68-1.03 0-1.09zM85.78 137.86c-1 1.84-4.13 1.52-5.75 2.74-1.14-.56-1.07-1.38-.54-2.47 1 .26 1.28 0 1.91.28 0 .77-.92.53-.55 1.64 1.38-1 2.63-2.13 4.93-2.19zM79.49 140.87c.84.28-.6.45-.55.82-1.04-.46.59-.45.55-.82zM162.22 142.51c.31.06.15.28 0 .28.46.54 1.38.63 1.09 1.92-.91 1.24-2-.55-3 .27-.52-.88 1.38-1.7 1.91-2.47zM79.21 143.34c-.28 1.12.1 1.9-.82 2.74-2.39-.67-1-1.56-.82-2.2 1.59.3.83-.46 1.64-.54zM157.56 143.88c.17-.2 1.15-.5 1.1.55-.87.32-.66-.43-1.1-.55zM175.37 145.8c0-.68-.52-.85 0-1.37 1-.29.53.93 1.09 1.1-.24.41-.41-.08-1.09.27zM163.59 152.65c.6-.15.39.52.82.55.08.49-1.07.01-.82-.55zM169.89 153.2c.8.29 1 1.23.82 2.46-.59-.22-1.69.08-2.46-.55.22-.77-.39-.7-.28-1.36.46-.6 3.75-1.07 1.92-.55zM92.91 162c-.5-.14 1.59-.42 2.19 0a1.55 1.55 0 01-1.37 1.92c-.64-.31-.33-1.53-.82-1.92zM177.83 162.51c.52-1.33 2.52 1.29 3.56.27 1.31.6 1.83 2.87.55 3.84-1.67.12-2.6-.5-3.84-.82a3.55 3.55 0 011.1-2.74c-.35-.71-.56-.86-1.37-.55zM176.19 163.88c.53-1.32 1.47.34 1.37.55-.22.63-.96-.43-1.37-.55zM114.55 163.88c.72.39-.58 1-1.1 1.1 0-1.93.7.24 1.1-1.1zM175.64 166.9c-.74-1.37.41-.19.27 0s-.16.2-.27 0zM180.57 169.09a1.78 1.78 0 012.47 2.19c-1.88.62-3.04-2.19-2.47-2.19zM2 170.73c.12 0 2.2 1.5 1.64 2.19-.82-.5-.99-1.6-1.64-2.19zM25.79 172.1c-.39 1.9-2.48 4.46-4.11 6 .09.55-.05.85-.54.82 1.21-2.59 3.34-4.3 4.65-6.82zM140.3 174v-1.1c1.18.11.36.94.82 1.37-.29.96-.12-.74-.82-.27zM160.3 178.13c.74.42.7 2.29.27.82-.35.38-1.29.17-1.64.55-.58-.42 1.43-.56 1.37-1.37zM145 178.68a1 1 0 011.37 0c.29 1-.58.88-.82 1.37-.09-.45-.55-.34-.55-1.37zM156.46 181.14a2.18 2.18 0 01-.54-2.74c1.32-.14 1.61.77 2.46 1.1-.33.59-.29 1.53-.82 1.91-1.27-.81-1.33.5-1.64 1.37-1.09.36-.56-.9-1.65-.54.73-.4.73-1.43 2.19-1.1zM161.94 181.41c-1 .82.16 1.35-1.64 0 .45-.6 1.48.06.82-1.09.64.09.61.85 1.09 1.09-.04.31-.27.16-.27 0zM173.45 181.14a2 2 0 01.55.82c-.12.69-.59-.45-.55-.82zM165 183.33c-.61 0-.12-1.16-.28-1.64.94-.12.83.82 1.37 1.09-.09.54-1.09-.47-1.09.55zM197.28 182.24c-1.07-.62.33-.33.28 0s-.24.02-.28 0zM17.85 183.33c.36.74-.85 2.25-1.64 2.74-.34.28 1.15-2.07 1.64-2.74zM191.25 189.09c-.92-1.09-2.46-1.56-2.46-3.57 2.94-2.74 3.47 3.93 7.12 3.84 1.73 3.45.6 2.07 3 2.19 1.13 1.94 4.18 6.6 4.39 4.38 1 .07.11.42.27.83 1.46 3.66 7 5.37 9.32 8.76-2.82-2.57-6.52-4.25-9-7.12-.28.18-.29.63-.83.55-.95-2.7-2.6-4.71-5.75-5.21-.17-1.31 0-3.06-1.64-2.19-1.33-.91-1.73-3.81-4.42-2.46zM165.78 186.35c.18-.58 1.7.53.82 1.09-.6-.07-.26-1.02-.82-1.09zM130.71 190.18c.24.88-.42.86-.82 1.1s.28-1.15.82-1.1zM176.46 197.58c-.73.45.15 2.52-.55 3-4.15-.21-5.58-7-.82-6.3 2.49.36 2 4.29 6 3.56-.68 1.63-2.54-.75-4.63-.26zM116.47 196.76c-.26.93-1.54.84-2.19 1.36-.12-.21 1.21-1.33 2.19-1.36zM220.29 219.22a3.6 3.6 0 01-1.91.55c-.52-.27 1.24-.57 1.91-.55zM120 248s2-.43.27 0c-.27.07-.68.16-.27 0zM76.2 249.9c.35-.65 1.48-.53 2.19-.82a3.23 3.23 0 01-2.19.82zM202.21 75.12a12.83 12.83 0 00-.82 3.56c-.86-.12-1.22.24-1.09 1.1-3.7-.54-2.84 3.62-6 .28 1.16-1.35-.29-2 0-3.29.7-3.3 5.18-3.84 7.91-1.65z" class="cls-1" transform="translate(.51)"/>
</svg>
