<svg xmlns="http://www.w3.org/2000/svg" viewBox="0 0 32 32">
  <circle cx="16" cy="16" r="5.2" fill="none" stroke="currentColor" stroke-width="1.4"/>
  <path fill="currentColor" d="M16 1.5c1.12 1.62 1.12 3.35 0 5-1.12-1.65-1.12-3.38 0-5Z"/>
  <path fill="currentColor" d="M16 1.5c1.12 1.62 1.12 3.35 0 5-1.12-1.65-1.12-3.38 0-5Z" transform="rotate(90 16 16)"/>
  <path fill="currentColor" d="M16 1.5c1.12 1.62 1.12 3.35 0 5-1.12-1.65-1.12-3.38 0-5Z" transform="rotate(180 16 16)"/>
  <path fill="currentColor" d="M16 1.5c1.12 1.62 1.12 3.35 0 5-1.12-1.65-1.12-3.38 0-5Z" transform="rotate(270 16 16)"/>
  <path fill="currentColor" d="M5.6 5.6c1.85.32 3.1 1.57 3.42 3.42-1.85-.32-3.1-1.57-3.42-3.42Z"/>
  <path fill="currentColor" d="M5.6 5.6c1.85.32 3.1 1.57 3.42 3.42-1.85-.32-3.1-1.57-3.42-3.42Z" transform="rotate(90 16 16)"/>
  <path fill="currentColor" d="M5.6 5.6c1.85.32 3.1 1.57 3.42 3.42-1.85-.32-3.1-1.57-3.42-3.42Z" transform="rotate(180 16 16)"/>
  <path fill="currentColor" d="M5.6 5.6c1.85.32 3.1 1.57 3.42 3.42-1.85-.32-3.1-1.57-3.42-3.42Z" transform="rotate(270 16 16)"/>
</svg>
