<svg xmlns="http://www.w3.org/2000/svg" id="art" viewBox="0 0 2144.7 993.6">
  <defs>
    <style>
      .st0{fill:currentColor;}
    </style>
  </defs>
  <path d="M1461.8 300.1c.1 0 0 0 .2-.2h-.2ZM1679.2 610.9c.4 0 .5.1 0 0M1681.1 611.3q.3 0 0 0M1681.5 611.4q-.45 0 0 0M957.9 410.1c15.4-6.1 43.1-20.5 52.4-34.1 4.6-1.1 4.2-5.2 1.1-7.8-8.1-8.8-37.4-12.8-38.7-10.9.3 6.5 6.3 1.6-15.9 22.5-2.3 3-7.1 15.4-25 31.7-14.4 13.2 11.1 4.6 26.1-1.4M1562 491.7s0 .1 0 0M1562 489.9v1.6zM1562 491.5v.2zM1562 489.7s0-.1 0 0M1562 489.7v.2zM756.9 665.5v-.3zM795.3 659.4c.1 0 2.2-.8 2.1-.7.1 0 2.1-.9 2-.8.1 0 2-1 1.9-.9.1 0 1.8-1.1 1.7-1.1.1 0 1.7-1.4 1.6-1.3 1.7-1.8 2.4-3.2 2.3-3.1 0-.1 1.1-2.1 1.1-2 13.5-28.3 10.4-29.6 31.2-67.4 16.1-25.7 30.2-49.9 30.1-49.8 4.4-9.3-.7-11.5-.6-11.4-3.5-1.9-7.6-4.6-9.2-5.4-1.6-1 2.3-3.4 2.2-3.3 3.2-1.3 17-2.7 16.9-2.7 1.8-1.4 3.4-2.9 3.3-2.8 0 0 25.8-27.4 25.7-27.3 16.8-18.5 14.6-17.9 14.5-17.8 0-.1.4-.8.4-.7 0-.1.3-.7.3-.6.3-1 .3-1.7.3-1.6-.1-.4-.2-.8-.7-1.2l-1-.3c-.1 0-.7.1-.6.1-36.7 15.4-33.7 13.4-33.6 13.4-10.5 2.5-12.1 3-12 3-.1 0-7.2 2.7-7.2 2.6-.7.5-2.1 1.6-2 1.5-.1 0-2.2 1.9-2 1.8-.1 0-2.1 2-2 1.8-4.6 4.8-6.7 7.6-6.7 7.5C771.5 599.7 749.5 668 749.2 666v2.1s.4 1.3.5 1.5c0 0 1.1 1.2 1.3 1.4.6.4 1.9.6 1.8.6h1.4c.1 0 1.6-.1 1.5-.1.1 0 1.8-.3 1.7-.2 6.7-1.3 20.3-6.4 20.2-6.3.1 0 9.6-3.4 9.5-3.3.1 0 4.8-1.1 4.5-1 .1 0 4.1-1.2 3.8-1.1ZM784.7 515.9c0-.1 3.5-5.2 3.3-4.9 19.7-27.1 27.3-34.2 27.2-34.1 0-.1 6.1-6.5 5.7-6.1 0-.1 6-6.6 5.6-6.2 0-.1 3.6-4.3 3.4-4 1.1-1.3 2.1-2.8 2-2.7 0-.1 1.5-2.6 1.4-2.5 0 0 1.1-2.3 1.2-2.5 0 0 1.6-3.8 1.7-4 4.3-8.9 14.2-14.6 14.1-14.6.1 0 4.9-3.5 4.6-3.3 9.4-6.6 10.1-7.3 10-7.2.1 0 1.7-1.3 1.6-1.2.1 0 1.5-1.2 1.4-1.1 5.5-5.1 2.4-10.5 2.5-10.4 0-.1-.8-1.7-.7-1.6 0-.1-.8-1.5-.8-1.4 0-.1-.8-1.2-.7-1.1 0 0-.4-.6-.4-.7-.1-.2-.4-.8-1.1-.7-.2 0-3.4 1.4-3.3 1.3-.1 0-4.4 1.6-4.1 1.5-3.4 1.1-25.3 11.5-61.9 33.7-2.2 1.4-4.3 2.9-6.1 4.8C749 492.1 655 675.8 661.7 662.8c0 .1-1.1 2.1-1 2-2.9 5.9-4.3 8.6-4.2 8.5-37.4 78.9-68 142-68 141.9 0 .1.6 1.7.5 1.5.3.5 1 .8.9.7.1 0 .6.1.5 0h.5c.1 0 1.1-.1 1-.1.1 0 1.6-.3 1.5-.3.1 0 1.9-.4 1.8-.4.1 0 2.2-.5 2-.5.1 0 2.4-.6 2.2-.6 29.1-8.1 35-29.8 42.7-43.2 17.9-31.4 29.8-62 29.7-61.9 0-.1 2.7-4.6 2.5-4.3 93.5-177 110.3-190.5 110.2-190.4ZM1987.4 235.9c-1.6-2.4-2.9-2.8-2.8-2.7-.1 0-1.8-.6-1.7-.5-.1 0-1.8-.3-1.7-.2h-3.4c-.1 0-2.4.2-2.2.2-.1 0-3.8.5-3.6.5-.1 0-3.7.6-3.5.6-.1 0-3 .6-2.8.5-.1 0-1.5.3-1.4.3-.1 0-1.3.2-1.2.2-.1 0-1.1.2-1 .2h-.5c-.1 0-9.9 1.3-9.3 1.2-.1 0-5.6.8-5.2.7-.1 0-3.8.1-3.6.1-.1 0-2.4.3-2.2.2-.1 0-1.9.4-1.8.3-.1 0-1.9.5-1.8.5-.1 0-1.8.8-1.7.7-.1 0-1.7 1.1-1.6 1-.1 0-1.5 1.4-1.4 1.3-.4.5-1.3 1.8-1.3 1.7 0 .1-1.3 2-1.2 1.9 0 .1-1.2 2.2-1.2 2.1 0 .1-1.2 2.4-1.2 2.3 0 0-1.9 4-2 4.3 0 .1-2.3 5.6-2.2 5.2 0 .1-2.3 5.7-2.1 5.3 0 .1-2.2 5.5-2 5.2 0 .1-1.3 3.2-1.2 3 0 .1-1 2.4-.9 2.2 0 .1-.9 2.2-.9 2 0 .1-.9 1.9-.8 1.8 0 .1-1.1 2.2-1 2 0 .1-3.6 7.1-3.4 6.7-33.6 51.6-78.7 126.5-108.9 183.7-8.5 16.2-15.6 27.9-21.4 37.1-2.5.6-4.6 1-6.2 1.4 0 .2-.2.3-.3.5-6.4 1.4-9.5 2.4-15.1 3.7-5.1 1-4.7.7-10 2.1.1-.2.2-.4.3-.5-21.9 5-26.1 5.9-39.8 9.2 1.6-8.2 2.8-13.7 5.3-21.6 3.1-9.7 6.1-16.2 8.9-22.5 5.3-11.7 4.8-11.9 15.4-29 2.2-3.5 2.7-5.7 4.7-7.6 5.2-9.5 18.9-30.4 25.3-39.4 11-12.9 22.5-26.6 35.4-36.3l.3-.6c1.5-1 4-2.2 5.1-3.9 1.4-.7 2.9-1.7 3.1-2.4.5-1.5 1.1-2.1-.2-3.3.4-.7.8-1.5.6-2.3-.6-2-2.8-2.9-4.9-3.4-1.6-1.9-3.7-3.9-6.2-3.6-7.7 1.1-12.9 7.9-29.5 4.2-4.6-1-7.1-1.8-7.8 2.5-.8-1.9-.3-3.1-1.9-5.3-.4-.6-.9-1.3-1.8-2.5-6.2-5.6-8.9-5.3-14.2-5.5-.1 0-.4-.2-1.9 1-11.5 1.3-28.2 5.7-45.4 13.3-12.7 4.8-33.8 15.6-39.1 19.3-22.6 15.1-35.9 28.1-60.5 55.7-70.8 67.3-137.3 107.8-137.4 107.8-33.2 16.2-48.3 5.1-50.4-13.3-.8-6.7-.7-16-.4-19.7.6-.8 0-21 13.8-49.6 16.3-33.9 36.5-50.2 45.6-57.6 17.9-14.6 38.2-32.1 61.1-32.6v.8c-4.2 4.7-8.1 9.6-11.9 14.6-.2.6-.6 1.1-1 1.6-.1.1-.6 1.1-1.1 2-6.2 10.8-6.6 10.5-8.2 25.7.8 16.8 7.6 24.3 8.8 25.9 1.5 1.3 3.9 4.2 7.5 1.6.6-.5 1.3-.9 1.9-1.4 1.8-2.3 20.3-27.8 20.7-28.3 5-6.3 9.7-15.5 11.5-20.1.8-2.1 3.9-12.9-.5-19.4-3.6-2.8-15.2-7.5-21.3-9-14.7-3.8-26.8-6.3-60.8-1.2-5.2 1.6-52.5 13.3-76.4 49.3-6.8 10.2-14.3 18-23.4 40.6-28 69 8.2 110 43.2 110s52.4-7.4 163.8-101.2c2.3-1.9 4.8-4.3 7.2-6.9-4.7 7.2-10.1 15.6-15 24.1-3.2 5.6-8.2 17.5-7.3 26.6.2 2.4 1 4.8 1.6 7.2 2.7 9.6 7.8 15.9 14.9 22.9 5.3 5.2 11.7 8.8 16.4 10.1 11 3.1 20.5-.6 30.8-5.6 14.7-7.2 28.5-18.5 40.5-29.5-3.2 10.2-3.4 12.5-4.3 15.1-.1.4-.4.8-.4.9.9 2.4 0 3.5-2.2 9.5 0 .3.2.5.3.7 0 .3-.1.6-.2.9q-.45.15-.9.6c.7.2.4.2 1.1.4.3 0 .5 0 .8-.1.1.2.1.3.3.5.5.2 1 .4 1.6.5-.9.5-2.1 1.2-3 1.7 2.4 2.9 2.8 5.9 3.3 7.9 47.6-11.1 79.5-18.3 101.2-23.1-.9 1.4-1.7 2.8-2.4 4.1l-.9 1.5c-2.3 4.1-32.6 58.4-33.7 63 .8 6.4 4.2 5.4 2.5 5.1 1.5.3 2.2.5 3.9.6 1.6-.3 3.2-.7 4.8-1 1.1 0 16-3.5 21.2-6.9 1.5-.4 3.9 0 6-.7 3.7-1.3 4.9-2.1 6.1-3.1 2.7-2.1 7.4-6.7 7.4-10.1 0-1.6-1.8-3.5-4.8-3.6-1.1 0-3.6.4-4.2.6 0-.1.1-.3.2-.4-9.1 2.6-36.1 11.2 2.1-4.1l.3-.6c-14-11.4 5.6-27.6 16.3-28.4 7.8-12.6 12.6-20.2 15.4-24.8 5.9-1.2 7.5-1.6 9.5-2.3 11.9-4 46.2-10.5 46.3-10.5 1.6-.5 28.6-7.6 44-15.1 14.9-7.1 21.8-8.6 29.8-15 3.8-3 8.4-6 10.2-12.6.7-.8.6-1 .9-2 .4-1.2.1-2-1.1-2.6-.2.1-.3.3-.5.4-1.2-1.7-7.5.1-11.5 3-1.3.9-2.1 1.8-2.9 3.1-.4.6-.2 1.4-.2 2.5 0 0 0 .1.2.3-.4 1.6-1 3.2-1.7 4.5-.2.3-.5.6-.8.9-.1 0-4.6 3.7-4.7 3.8-16.3 9.2-45.7 15-61.3 19.3v-.4c-9.2 1.1-28.5 4.9-47.5 8.8 4.4-6.9 10.5-16.6 13.8-22.1.2 0 .4 0 .5-.1 23.7-37.4 52.2-84.4 130.7-200.1-41.2 9.5-34.3 3.9 3.1-4.5 12.6-18.5 17.6-22.6 16.9-25v-.2c-.4-.9-1-1.6-2-1.9 0-.1 1.4-2.8 1.3-2.7 0-.1.6-1.4.6-1.3 0-.1.4-1.3.4-1.2 0-.1.3-1.2.3-1.1 0-.1.2-1.2.2-1.1 0 0-.2-2-.2-1.7Zm-331.6 234.6c-14.5 17.4-19.9 25.7-40.3 42.7-1.8 1.5-7.8 6.6-9.8 7.9-2.1 1.3-4.6 2.3-7.1 2.2-1.5 0-2.9-.2-4.1-.9-4.5-2.7-6.7-7.3-4.3-15.1 1.7-5.6 7-15.7 9.8-20.9 3.4-6.3 7.6-12.4 14.5-22.4-1 1.3 22.9-34.2 43.8-52 3.1-2.7 9.1-9.2 24.7-19.9 24.7-17 51-27.6 70.7-31.4-2.8 3.4-14.3 15.5-37.1 41.3-18.4 20.8-28.3 34.6-60.7 68.5ZM590 762.6l.8-.7c.1 0 1.2-1 1.1-.9 1.3-1 1.1-3 .7-4-1.9-29.1 15.8-71.1 29.1-96.8 0 0 26.8-48.7 24.8-45.6 0-.1 1.7-2.7 1.6-2.5 0-.1 3.5-5.6 3.3-5.3 0 0 2.9-4.7 3.1-5 18.8-31.8 84.9-129.6 84.6-129 0-.1.8-1.8.8-1.7 0-.1.7-1.7.6-1.6 1.6-5.1.5-5.7.5-5.6-.6-1-1.3-1.7-1.2-1.6 0 0-1.2-.8-1.1-.8-5.4-.4-51.9 27.3-51.8 27.2-.1 0-2.7 1-2.5 1-.1 0-2.4 1-2.3 1-6.2 3-8.9 8.4-8.8 8.4 0 .1-1.6 1.8-1.5 1.7 0 .1-1.1 1.4-1.1 1.3 0 .1-1 1.4-.9 1.3-14.6 24.5-7.2 15-23.9 45-.4 1.1-17.8 35.7-36.5 73.8 0-.2 0 0-.3.7-1.1 2.1-2.1 4.3-3.2 6.5-21.5 38.3-97.6 92.5-129.5 113.6-45 29.8-102.4 59.2-116.4 64.6-1.3.5-98.2 38.7-102.3-34.5-2.1-36.8 47.6-114.1 44.6-109.2 26.1-39.7 72.2-74.2 71.3-73.5 2.2-1.7 10.9-8.5 10.3-8 40.5-30.5 115.9-61.1 111-59 .1 0 7.1-2.8 6.7-2.6.1 0 7.1-2.6 6.7-2.4 16.4-5.1 16.7-5.3 16.6-5.3.1 0 2.4-.9 2.2-.9l.8-.3c5-.2 8.2-4 .9-7-5.5-7.8-54.1 4-79.2-51.2-9.1-20.1 6.7-40.3 20.1-53.6 9-9 19.6-16.2 19.2-15.9 12.9-9 25.4-17.3 25.2-17.1 96.8-61.9 137.4-41.9 137.5-41.9.7 0 1.6-.7 2.3-.5.7.1.8.6.9 1.2.1.9-.2 1.3.3 2.1 14.5 23-68.3 63.4-72.7 96.4-1.2 9.4 4.1 33.8 16.9 25.3 8.7-5.8 16.5-14.6 20.5-18.2 10.7-9.8 34.3-45.2 33.9-44.6 8.3-13.5 11.5-20.1 11.5-20 0-.1 2.2-4.4 2.1-4.2 0-.1 1.7-3.7 1.6-3.5 1.7-4.3 1.1-2.6 2.7-7.1 2.3-6.3 4.9-29.6-5.5-38.9-17.4-15.4-47.4-15.9-68.3-11.2-120.7 26.7-213.1 108.8-225 135.6-1.9 4.2-3.1 8.5-3.7 13-4.7 31.5 64.2 62 104 63.5.1 0 5.2.2 4.9.2-45.7 9.8-276.9 112.4-303 298.5-1.3 9-2.5 17.8-1.4 26.9 0 0 .7 3.5.7 3.7 6.5 22.8 21.8 31.6 26.7 33.4.9.4 20.4 8.2 94.6-17.6 78-27 227.1-130.1 292.7-192.4-10.6 22.1-19.4 41.2-22.9 50.4 0 .1-56.1 119.1-56.2 119.2 0 0-1.7 3.1-1.6 2.9 0 .1-1.5 2.8-1.4 2.6 0 0-1.6 3.3-1.7 3.5 0 .1-1.8 4-1.7 3.7 0 0-1.1 2.8-1.1 3 0 .1-1 3.2-.9 3 0 .1-.6 2.8-.5 2.6 0 .1-.1 1.3-.1 1.2 0 .5.3 2.4.3 2.3 0 .1.9 1.8.9 1.7 11.3 3.7 21.5 3 20 2.9.1 0 1.8-.2 1.7-.2.1 0 1.8-.6 1.7-.5.1 0 1.4-.9 1.3-.8.9-.7 1.9-2.5 1.8-2.4 0-.1 1-1.8.9-1.7 0-.1 1-2.1.9-1.9 0-.1 1.1-2.4 1-2.2 0-.1 1.1-2.6 1.1-2.5 0-.1 1.2-2.9 1.2-2.7 0-.1 1.3-3.1 1.2-2.9 0-.1 1.4-3.2 1.3-3 0-.1 1.5-3.3 1.4-3.1 13.3-25.5 8.7-16.4 44.5-68.7l1.4-1.8 1.4-1.8 1.5-1.8 1.5-1.7 1.5-1.6 1.2-1.1.8-.7Zm-400.7 15.6v-.3h.1v.3ZM1375.3 396.4c0-.2-.4-.8-.6-1-3.8-4-6.2-.5-9.8-1-.9-.1-1.8 0-2.5.5-20.4 11.8-35.2 16.5-41.9 22.4-2 1.8-4.5 6.1-4.4 6-3.3 4.5-9.1 12.8-9.8 14.1-23.4 43.5-32.7 57.1-37.4 65-16.9 26.9-74.8 54.3-137.5 93.4-3.6 2.2-7.8-1.8-5.7-5.4 109.5-198.2 113.9-187.8 158.1-256.4.6-.9 1.5-1.6 2.6-1.8 39.1-8.4 48-9.5 49.4-10.2 8.8-4 60.4-9.3 71.1-11.4 12.9-2.5 36.2-9.5 37.9-10.6 3-2 19.7-13.3 27.2-19.7 1.8-1.5 1.9-4.2.3-5.9-16.4-17-35.8-25.3-40.4-27.2-.7-.3-1.4-.4-2.2-.3-1.5.2-2.5 1.3-2.4 1.2 0 .1-.7.8-.6.7-2.5 3.2-19.2 22.1-19.1 22-.6.8-.5.8-2.4 2.9-2.3 2.6-17.8 15.4-16.8 14.6-10.1 8.1-13.9 10.2-13.8 10.2-.1 0-3.2 1.9-3 1.8-1.7.9-2.2 1.3-3.2 1.5-42.1 6.6-32.6 3-70.3 11.3 0-.2-.3-.4-.5-.6 15.4-20.6 37-45.5 54.5-64.4v-.1c-.2-.9-.3-1.8-.5-2.6-4.2-.1-4.1-.1-5.5-.2-1.2 0-2.3.4-3.1 1.3-5.7 6-13.9 7.3-21.9.9-2.1-1.7-3.5-1.5-4.6-2.6-.9-.8-1.5-1.4-2.8-1.7-.6-.1-2.2-.3-2.1-.3-8.7-.6-17.1 0-16.5 0-6.6.4-7.4 1.7-7.3 1.7-2 1.4-3.8 8.8-4.6 10-1.2 2-1.2 1.9-1.2 2-16 23.8-12.1 25.7-45.1 69.2-.6.8-1.4 1.3-2.3 1.5-9 2.2-14.1 3-14.3 3-132.9 26-118.6 36-96.5 32 3.1-.3 68.8-12.5 94.2-14.5.9 0 2-.2 3-.3 5.9-.5 5.2-.9 3.2 2.5-.5.8-1.2 2-2.4 4-17.6 28.7-76 121.4-145.7 262.1-.1.3-.3.6-.5.8-1.6 2-.6 1.8-1.7 3.7-4.4 7.6-22.3 30.7-7.6 31.7 8.7 1.4 20.2-6.7 22-9.6 3.8-6.1 80.5-60.8 149.6-103.3 3.6-2.2 7.8 1.8 5.7 5.5-2.5 4.3-4.8 8.3-5.8 10.1-4.7 8.1-6 13.6 12.4 6.9.8-.3 1.3-.2 2.1-.3 34.6-3.2 41.8-12.9 42.7-15.7.2-.3.4-.7.5-1.1 1-1.5 1.9-3.1 2.6-4.9v-.2c2.8-6.7 1.1-5.9 3.9-20.6.6-3.2 48.3-94.8 73.4-121.7v-.9Z" class="st0"/>
  <path d="M1106.4 472.5v-3.3c0-.1-.2-3.5-.1-3.3 0-.1-.3-3.5-.3-3.3-1.1-11.5-6.3-23.6-14.2-32-9.6-10.2-22.7-13.9-36.3-14.6-41.9-2.2-73.6 26.5-100.1 58.7 0 .1-22.9 32.1-56 83.3-14 21.7-23.6 43.6-37 65.7-12.5 20.7-23.7 41.5-35.7 62.4-9 15.6-13.2 26.7-23.2 45.2-.6 2.6-.2 5.4.4 10.3.7 5.1.9 5.9.3 7-2.6 4.5-11.5 3.6-14.4 6.8-.7.8-.6 1.2-1 1.5-3.8 6.3-5.2 8.2-5.5 8.9-.3.6-.9 1.8-.9 1.7 0 .1-.5 1.2-.5 1.1-.6 1.6-.7 2.1-.7 2 0 0-.2 1-.2.9v.7c0 .2.3.9.3.8 0 0 .6.5.5.4l.6.2h.4l.4.2c1.8 1.1 5.4-.4 6.6-.8 40.7-11 52.8-26.2 50.4-23.6 3.2-4.4 3.4-8.9 3.3-8 9.5-42.4 56.8-172.1 117.3-254.2 25.5-34.6 46-45.1 61.4-44.3s7.3 1.1 10.6 2.5 9.3 5.3 11.7 7.4c17.6 15.2-22.3 105.8-50.5 130.4-21 18.4-35 25.7-68.7 14.5-1-.3-2.1-.5-3.1-.5-5.8.2-10 1.3-11.6 11.2-.1.2-.1.3 0 .5-.8 5.4 1 8.1 2.4 9 13.6 9.2 77.4-7.9 111.9-29.4 32.1-20 78-63 81.5-116.2ZM912.8 617.1h.1ZM1039 623.4c.1 0 .3-.2.4-.3h-.6c0 .1.1.2.2.3" class="st0"/>
</svg>
