<?xml version="1.0" encoding="UTF-8"?>
<svg id="art" xmlns="http://www.w3.org/2000/svg" viewBox="0 0 1950.02 763.51">
  <defs>
    <style>
      .cls-1 {
        fill: #231f20;
      }
    </style>
  </defs>
  <path class="cls-1" d="M1370.58,125.66c.1-.09.05-.05.19-.17h0s-.03.03-.03.03l-.16.14Z"/>
  <path class="cls-1" d="M1588.82,437.71c.42.09.5.1,0,0h0Z"/>
  <path class="cls-1" d="M1590.73,438.1c.15.03.18.03,0,0h0Z"/>
  <path class="cls-1" d="M1591.09,438.16c-.29-.06-.32-.06,0,0h0Z"/>
  <path class="cls-1" d="M864.69,236.07c15.49-6.17,43.27-20.6,52.64-34.27,4.58-1.07,4.25-5.27,1.1-7.83-8.12-8.86-37.5-12.83-38.87-10.92.27,6.48,6.28,1.62-15.93,22.63-2.27,2.99-7.18,15.45-25.12,31.79-14.48,13.2,11.13,4.61,26.18-1.39Z"/>
  <path class="cls-1" d="M1471.16,318c0,.07,0,.12,0,.09,0,0,0-.05,0-.09Z"/>
  <path class="cls-1" d="M1471.16,316.17c0,.42,0,1.21,0,1.64,0-.42,0-1.21,0-1.64Z"/>
  <path class="cls-1" d="M1471.16,317.81c0,.08,0,.14,0,.19,0-.05,0-.11,0-.19Z"/>
  <path class="cls-1" d="M1471.16,315.98c0-.07,0-.12,0-.09,0,0,0,.05,0,.09Z"/>
  <path class="cls-1" d="M1471.16,315.98s0,.11,0,.19c0-.08,0-.14,0-.19Z"/>
  <path class="cls-1" d="M662.94,492.48c.01-.17.02-.3.02-.33-.03.17-.03.28-.02.33Z"/>
  <path class="cls-1" d="M701.53,486.34c.11-.04,2.25-.78,2.12-.74.1-.04,2.14-.88,2.01-.82.1-.05,2.01-.99,1.89-.93.1-.06,1.85-1.15,1.74-1.08.1-.08,1.66-1.36,1.56-1.27,1.67-1.8,2.41-3.23,2.35-3.13.05-.1,1.15-2.12,1.08-1.99,13.57-28.39,10.48-29.69,31.31-67.64h0c16.13-25.82,30.28-50.12,30.21-50,4.41-9.3-.67-11.5-.56-11.41-3.46-1.93-7.59-4.64-9.27-5.47-1.65-.96,2.29-3.4,2.22-3.34,3.26-1.32,17.02-2.74,16.92-2.67,1.76-1.41,3.37-2.9,3.27-2.81.1-.1,25.87-27.53,25.77-27.43,16.91-18.59,14.62-18.01,14.56-17.91.06-.1.43-.77.37-.67.05-.1.35-.74.3-.64.32-.97.29-1.68.28-1.57-.12-.44-.17-.84-.67-1.21l-1.02-.33c-.1.02-.73.14-.63.12-36.89,15.41-33.83,13.46-33.73,13.43-10.57,2.53-12.11,3.02-12.01,2.99-.1.05-7.27,2.66-7.21,2.63-.67.47-2.09,1.6-1.99,1.53-.1.09-2.18,1.87-2.05,1.76-.1.1-2.09,1.97-1.96,1.85-4.59,4.85-6.73,7.62-6.68,7.55-84.1,111.23-106.19,179.82-106.51,177.76-.03.38-.06.95-.06.88,0,.1.09,1.35.09,1.25.03.09.43,1.3.49,1.47.08.09,1.14,1.23,1.29,1.38.62.36,1.92.65,1.82.62.1,0,1.54.08,1.44.07.1,0,1.61-.12,1.51-.11.1-.01,1.76-.26,1.66-.24,6.7-1.28,20.35-6.4,20.25-6.37.1-.02,9.61-3.37,9.51-3.35.1-.02,4.81-1.12,4.51-1.05.1-.03,4.1-1.18,3.85-1.11Z"/>
  <path class="cls-1" d="M690.84,342.36c.07-.1,3.49-5.22,3.28-4.9,19.75-27.21,27.43-34.32,27.34-34.22.09-.1,6.1-6.48,5.72-6.08.09-.1,6.04-6.62,5.66-6.21.09-.1,3.63-4.27,3.4-4,1.07-1.32,2.1-2.81,2.03-2.71.06-.1,1.52-2.65,1.43-2.49.04-.09,1.1-2.33,1.17-2.48.04-.1,1.62-3.78,1.73-4.02,4.28-8.92,14.3-14.7,14.2-14.63.1-.07,4.96-3.55,4.65-3.32,9.42-6.66,10.17-7.29,10.07-7.22.1-.08,1.73-1.33,1.62-1.25.1-.09,1.48-1.22,1.38-1.13,5.55-5.16,2.45-10.55,2.49-10.45-.05-.1-.79-1.67-.74-1.56-.06-.1-.84-1.47-.78-1.37-.06-.1-.76-1.21-.69-1.11-.05-.09-.38-.61-.43-.68-.15-.23-.42-.82-1.07-.73-.24.03-3.4,1.36-3.3,1.31-.1.04-4.42,1.62-4.14,1.52-3.43,1.13-25.41,11.5-62.16,33.8-2.24,1.36-4.34,2.92-6.12,4.84-42.42,45.39-136.81,229.74-130.07,216.7-.05.1-1.07,2.1-1.01,1.97-2.9,5.89-4.27,8.65-4.2,8.52-37.57,79.19-68.27,142.54-68.26,142.44.04.11.57,1.7.5,1.5.35.5.96.79.86.73.1.02.59.1.49.08.1,0,.6,0,.5,0,.1-.01,1.12-.12,1.02-.11.1-.02,1.58-.28,1.48-.26.1-.02,1.9-.41,1.79-.39.1-.03,2.18-.53,2.05-.5.1-.03,2.4-.63,2.25-.59,29.17-8.15,35.18-29.91,42.9-43.35h0c18-31.49,29.88-62.28,29.83-62.18.06-.1,2.71-4.6,2.54-4.31,93.86-177.73,110.7-191.28,110.63-191.16Z"/>
  <path class="cls-1" d="M1898.2,61.24c-1.6-2.45-2.87-2.81-2.77-2.75-.1-.03-1.81-.58-1.69-.55-.1-.02-1.78-.26-1.67-.25-.1,0-1.8-.08-1.69-.07-.1,0-1.85.05-1.74.05-.1,0-2.36.19-2.22.18-.1.01-3.85.51-3.64.48-.1.02-3.75.65-3.54.61-.1.02-2.99.57-2.81.54-.1.02-1.5.29-1.4.27-.1.02-1.31.25-1.21.23-.1.02-1.06.19-.96.17-.1.01-.56.08-.46.07-.1.01-9.98,1.27-9.36,1.19-.1.01-5.6.79-5.25.74-.1,0-3.85.12-3.61.11-.1.01-2.38.26-2.23.24-.1.02-1.9.36-1.79.34-.1.03-1.87.54-1.76.51-.1.04-1.82.78-1.71.73-.1.06-1.73,1.09-1.62,1.02-.1.09-1.48,1.38-1.38,1.29-.42.5-1.34,1.76-1.26,1.66-.06.1-1.29,2.02-1.21,1.9-.06.1-1.25,2.23-1.18,2.09-.05.1-1.23,2.42-1.16,2.27-.04.09-1.86,4.04-1.98,4.29-.04.1-2.34,5.58-2.2,5.23-.04.1-2.26,5.69-2.12,5.34-.04.1-2.16,5.52-2.03,5.17-.04.1-1.29,3.22-1.21,3.02-.04.1-.99,2.38-.93,2.24-.04.1-.94,2.16-.88,2.03-.05.1-.89,1.91-.84,1.8-.05.1-1.1,2.19-1.03,2.06-.05.1-3.62,7.13-3.4,6.69-33.76,51.84-78.96,126.94-109.27,184.37h0c-8.52,16.27-15.66,28.04-21.46,37.27-2.54.56-4.66,1.04-6.24,1.4-.09.17-.18.34-.27.51-6.41,1.4-9.52,2.37-15.18,3.67-5.12,1.02-4.7.66-10.07,2.11.1-.18.21-.35.32-.53-21.98,5.02-26.19,5.97-39.99,9.23,1.64-8.19,2.81-13.76,5.33-21.65,0,0,0,0,0,0,3.1-9.72,6.12-16.22,8.98-22.54,5.31-11.77,4.87-11.9,15.46-29.14,2.18-3.54,2.71-5.74,4.72-7.67,5.19-9.52,19.01-30.52,25.4-39.55,11.09-12.99,22.59-26.75,35.49-36.46.15-.19.23-.39.28-.6,1.51-1.05,4.06-2.24,5.15-3.88,1.39-.73,2.9-1.68,3.14-2.42.51-1.52,1.07-2.13-.22-3.29.39-.74.81-1.51.56-2.3-.64-1.98-2.78-2.95-4.9-3.45-1.65-1.9-3.73-3.9-6.2-3.57-7.75,1.07-12.92,7.88-29.6,4.2-4.59-1.01-7.13-1.84-7.83,2.56-.84-1.87-.34-3.1-1.91-5.35,0,0,0,0,0,0-.41-.58-.95-1.3-1.85-2.56-6.22-5.61-8.92-5.36-14.28-5.55-.11.05-.43-.2-1.91,1-11.5,1.31-28.3,5.68-45.58,13.37-12.77,4.78-33.9,15.61-39.21,19.37-22.67,15.18-36.04,28.25-60.7,55.91-71.06,67.59-137.86,108.19-137.96,108.24-33.37,16.26-48.46,5.08-50.61-13.36-.79-6.72-.75-16.06-.44-19.77.6-.77-.1-21.04,13.9-49.82,16.37-34.04,36.63-50.37,45.79-57.85,17.95-14.62,38.31-32.2,61.38-32.76,0,.25.01.52.05.81-4.23,4.7-8.11,9.67-11.95,14.68-.24.57-.57,1.12-.98,1.62-.11.13-.58,1.11-1.11,2.02-6.22,10.8-6.59,10.57-8.26,25.8.84,16.84,7.63,24.36,8.79,26.02,1.46,1.28,3.91,4.17,7.52,1.57,0,0,0-.02.01-.03.63-.46,1.26-.94,1.88-1.42,1.77-2.36,20.37-27.94,20.77-28.45,5.02-6.37,9.72-15.59,11.55-20.21.83-2.11,3.96-12.93-.48-19.51-3.59-2.82-15.23-7.51-21.34-9.08,0,0,0,0-.02-.01-14.79-3.81-26.88-6.32-61.03-1.25-5.25,1.58-52.72,13.35-76.72,49.5-6.8,10.24-14.33,18.11-23.51,40.74-28.15,69.31,8.2,110.4,43.38,110.4,31.99,0,52.61-7.44,164.41-101.63,2.27-1.91,4.77-4.35,7.19-6.89-4.75,7.21-10.11,15.66-15.05,24.19-3.26,5.63-8.21,17.55-7.37,26.67.23,2.44.97,4.86,1.64,7.21,2.7,9.62,7.82,15.96,14.95,23,5.31,5.26,11.73,8.86,16.48,10.19,11.03,3.09,20.61-.58,30.91-5.61,14.73-7.21,28.62-18.55,40.68-29.56-3.17,10.22-3.44,12.59-4.32,15.16-.15.44-.37.78-.39.88.94,2.45,0,3.47-2.21,9.52.08.25.19.5.29.75-.07.3-.13.6-.2.89-.35.12-.64.33-.89.64.69.25.43.16,1.11.39.27-.04.54-.08.8-.13.11.2.12.26.26.5.52.18,1.04.37,1.56.55-.9.48-2.1,1.16-2.96,1.73,2.46,2.96,2.85,5.91,3.33,7.91,47.76-11.1,79.8-18.34,101.56-23.15-.86,1.41-1.66,2.77-2.41,4.09,0,0,0,0,0,0-.29.51-.58,1.02-.87,1.53,0,0,.02,0,.02,0-2.31,4.13-32.71,58.6-33.85,63.23.76,6.43,4.22,5.44,2.56,5.14,1.5.26,2.17.54,3.94.63,1.6-.35,3.2-.68,4.8-1.01,1.11.08,16.03-3.54,21.33-6.9,1.47-.37,3.91.05,6.06-.69,3.75-1.29,4.95-2.12,6.17-3.07,2.76-2.14,7.46-6.71,7.42-10.18-.01-1.64-1.76-3.48-4.86-3.56-1.15-.02-3.64.4-4.26.57.07-.14.13-.27.19-.41-9.16,2.6-36.25,11.25,2.13-4.09.11-.2.21-.39.31-.59-14.01-11.41,5.64-27.68,16.39-28.54,7.86-12.64,12.61-20.26,15.5-24.86,5.89-1.22,7.5-1.57,9.57-2.29,11.97-4.04,46.38-10.53,46.49-10.56,1.56-.48,28.75-7.65,44.19-15.17,14.91-7.1,21.91-8.67,29.92-15.04,3.84-3.06,8.4-6.02,10.21-12.6.69-.8.62-.96.94-2.02.37-1.23.13-2.05-1.09-2.59-.16.14-.32.28-.48.42-1.24-1.75-7.54.12-11.59,3.03-1.32.95-2.08,1.8-2.91,3.15-.36.58-.18,1.41-.21,2.56,0,.04.1.15.24.27-.36,1.57-.96,3.16-1.73,4.57-.25.3-.51.59-.78.86-.12.1-4.58,3.67-4.73,3.78-16.35,9.28-45.93,15.1-61.55,19.37-.03-.14-.06-.28-.09-.43-9.25,1.15-28.63,4.91-47.71,8.84,4.4-6.97,10.52-16.66,13.84-22.17.18-.04.35-.07.53-.11,23.75-37.58,52.45-84.72,131.22-200.83-41.41,9.52-34.43,3.89,3.08-4.53,12.66-18.61,17.66-22.66,16.93-25.1,0-.05.03-.1.04-.15-.38-.95-1.05-1.58-1.97-1.91.05-.1,1.37-2.79,1.32-2.69.05-.1.61-1.37.57-1.27.03-.1.39-1.31.36-1.2.02-.1.29-1.21.27-1.11.01-.1.17-1.23.15-1.13,0,0-.24-1.96-.21-1.73ZM1565.29,296.76c-14.58,17.51-19.96,25.84-40.42,42.88-1.8,1.55-7.8,6.67-9.88,7.95-2.1,1.29-4.63,2.35-7.15,2.23-1.46-.07-2.87-.17-4.16-.94-4.5-2.68-6.74-7.37-4.33-15.19,1.72-5.62,7.07-15.78,9.88-20.94,3.42-6.29,7.66-12.48,14.54-22.54-.96,1.26,22.98-34.37,43.99-52.18-.02.01-.04.03-.05.04,3.14-2.7,9.18-9.26,24.75-19.99,24.78-17.08,51.16-27.72,71.01-31.53-2.79,3.43-14.31,15.53-37.25,41.47-18.47,20.89-28.36,34.74-60.93,68.74Z"/>
  <polygon class="cls-1" points="551.46 374.87 551.46 374.87 551.47 374.85 551.46 374.87"/>
  <path class="cls-1" d="M495.35,589.99l.78-.66c.1-.08,1.24-.97,1.14-.89,1.28-.97,1.12-3.01.68-4.06-1.87-29.26,15.91-71.36,29.16-97.21h0c.06-.09,26.89-48.86,24.93-45.76.06-.1,1.7-2.72,1.6-2.55.06-.1,3.51-5.66,3.29-5.3.06-.09,2.93-4.74,3.12-5.05,18.83-31.95,85.22-130.12,84.9-129.48.05-.1.82-1.82.77-1.72.04-.1.68-1.74.64-1.64,1.63-5.13.51-5.69.53-5.63-.61-1-1.32-1.7-1.22-1.59-.1-.07-1.2-.85-1.1-.78-5.44-.38-52.1,27.38-52,27.35-.1.04-2.66,1.03-2.5.97-.1.04-2.45,1.05-2.3.99-6.26,3.06-8.89,8.48-8.81,8.4-.09.1-1.59,1.82-1.49,1.71-.08.1-1.14,1.45-1.06,1.35-.07.1-.98,1.4-.91,1.3-14.61,24.57-7.25,15.01-24.03,45.13-.45,1.06-17.88,35.83-36.66,74.13.06-.24-.03-.07-.34.68,0,.02-.02.04-.03.07-1.05,2.15-2.11,4.31-3.17,6.48-21.57,38.45-97.98,92.87-130,114.09-45.18,29.94-102.79,59.42-116.88,64.89-1.34.52-98.53,38.85-102.69-34.64-2.09-36.98,47.81-114.59,44.74-109.58,26.21-39.88,72.51-74.49,71.61-73.8,2.22-1.66,10.94-8.53,10.32-8.03,40.69-30.62,116.37-61.29,111.47-59.25.1-.04,7.13-2.83,6.7-2.66.1-.04,7.15-2.6,6.71-2.44,16.47-5.13,16.73-5.35,16.66-5.32.1-.04,2.39-.92,2.25-.87l.77-.32c5.05-.19,8.21-3.99.87-7.06-5.56-7.81-54.27,4.04-79.46-51.38-9.17-20.18,6.76-40.41,20.16-53.83,9.03-9.05,19.69-16.26,19.3-15.98,12.96-9.05,25.54-17.36,25.26-17.18,97.2-62.14,137.9-42.07,138-42.06.73.08,1.57-.65,2.28-.54.74.11.84.59.92,1.21.13.95-.18,1.29.35,2.13,14.54,23.04-68.58,63.61-72.95,96.76-1.24,9.43,4.17,33.95,16.95,25.37,8.7-5.84,16.57-14.62,20.55-18.26,10.73-9.82,34.39-45.41,33.99-44.79,8.3-13.58,11.59-20.18,11.53-20.08.05-.1,2.2-4.46,2.06-4.18.05-.1,1.66-3.69,1.56-3.47,1.74-4.28,1.11-2.62,2.73-7.15,2.27-6.35,4.92-29.75-5.56-39.01-17.44-15.41-47.59-15.92-68.61-11.26-121.13,26.84-213.94,109.25-225.86,136.13-1.86,4.2-3.07,8.49-3.74,13.02-4.67,31.6,64.48,62.21,104.38,63.79.1,0,5.2.21,4.87.19-45.86,9.88-277.98,112.8-304.22,299.64-1.27,9.04-2.56,17.91-1.43,26.97.02.09.7,3.48.74,3.7,6.48,22.88,21.87,31.69,26.77,33.54.94.36,20.44,8.21,94.97-17.65,78.28-27.15,227.99-130.57,293.78-193.19-10.63,22.23-19.5,41.4-23.03,50.63-.05.1-56.36,119.52-56.41,119.62v-.02c-.05.1-1.67,3.14-1.57,2.95-.05.1-1.46,2.83-1.37,2.65-.05.09-1.64,3.35-1.75,3.56-.05.1-1.77,3.98-1.66,3.74-.04.1-1.09,2.85-1.15,3.03-.03.1-.97,3.21-.91,3.02-.02.1-.56,2.81-.53,2.64-.01.1-.15,1.27-.13,1.17-.05.52.32,2.4.3,2.29.05.1.91,1.78.86,1.68,11.35,3.67,21.6,2.98,20.12,2.94.1-.01,1.79-.2,1.68-.19.1-.03,1.77-.57,1.66-.54.1-.06,1.42-.9,1.32-.83.86-.7,1.92-2.48,1.85-2.38.06-.1.97-1.79.91-1.68.05-.11,1.01-2.08.95-1.96.05-.1,1.07-2.37,1.01-2.23.04-.1,1.15-2.64,1.08-2.48.04-.1,1.23-2.88,1.16-2.7.04-.1,1.31-3.07,1.23-2.89.04-.1,1.39-3.23,1.31-3.03.04-.1,1.47-3.33,1.38-3.14,13.39-25.61,8.75-16.51,44.63-69l1.37-1.83,1.42-1.81,1.48-1.77,1.52-1.7,1.55-1.61,1.16-1.11.77-.69ZM93.18,605.61l.09-.32h.02s-.11.32-.11.32Z"/>
  <path class="cls-1" d="M406.2,679.83h0s0,.01,0,0Z"/>
  <path class="cls-1" d="M1283.77,222.31c-.08-.25-.42-.75-.63-.97h0c-3.84-3.97-6.19-.48-9.86-1-.87-.13-1.76.09-2.52.53-20.52,11.88-35.33,16.59-42.04,22.48-2.04,1.79-4.47,6.13-4.41,6.03-3.35,4.5-9.09,12.8-9.84,14.19-23.52,43.7-32.82,57.28-37.52,65.26-16.95,26.97-75.08,54.55-137.99,93.75-3.6,2.24-7.82-1.76-5.77-5.47,109.97-199,114.34-188.48,158.73-257.37.59-.92,1.52-1.57,2.58-1.8,39.25-8.47,48.15-9.55,49.59-10.21,8.81-4.02,60.63-9.37,71.39-11.47,0,0-.01,0-.02.01,12.94-2.48,36.32-9.53,38.04-10.69,2.99-2.01,19.81-13.36,27.26-19.73,1.79-1.53,1.91-4.26.28-5.95-16.45-17.04-35.91-25.43-40.57-27.34-.69-.28-1.42-.37-2.19-.26-1.49.22-2.48,1.3-2.38,1.21-.09.1-.66.76-.58.66-2.53,3.22-19.28,22.17-19.21,22.07-.57.77-.53.79-2.38,2.91-2.29,2.62-17.85,15.48-16.86,14.65-10.11,8.09-14,10.27-13.9,10.21-.1.06-3.25,1.96-3.05,1.84-1.71.94-2.23,1.32-3.18,1.47-42.25,6.6-32.74,2.98-70.55,11.37-.08-.23-.25-.44-.51-.62,15.45-20.7,37.1-45.69,54.68-64.64,0-.04-.01-.08-.02-.12h0c-.15-.88-.31-1.77-.45-2.65h0s0,0,0,0c-4.22-.14-4.08-.13-5.5-.18-1.18-.04-2.31.44-3.12,1.3-5.7,6-13.97,7.38-21.98.92,0,0,0,0,0,0,0,0,0,0,0,0-2.12-1.69-3.47-1.55-4.63-2.58-.91-.82-1.49-1.44-2.79-1.67-.59-.1-2.23-.27-2.13-.26-8.76-.61-17.18-.02-16.6-.05-6.61.45-7.39,1.74-7.33,1.7-1.96,1.46-3.84,8.8-4.57,10-1.24,2.03-1.17,1.92-1.24,2.03-16.1,23.89-12.11,25.8-45.23,69.48-.57.75-1.4,1.29-2.32,1.52-9.06,2.2-14.2,3.02-14.38,3.05-133.41,26.12-119.07,36.11-96.86,32.13,3.15-.33,69.03-12.59,94.52-14.59.93-.07,2.03-.17,3-.26,5.87-.53,5.26-.92,3.2,2.48-.51.84-1.16,2-2.37,3.97-17.62,28.78-76.25,121.83-146.22,263.12-.14.29-.32.56-.53.81-1.66,1.97-.64,1.85-1.72,3.69-4.47,7.59-22.4,30.8-7.66,31.85,8.69,1.43,20.25-6.69,22.04-9.61,3.78-6.17,80.83-61.06,150.14-103.75,3.63-2.23,7.84,1.85,5.71,5.55-2.47,4.3-4.82,8.33-5.87,10.15-4.68,8.16-6,13.62,12.48,6.95.79-.28,1.3-.23,2.13-.32,34.7-3.21,42-12.95,42.83-15.75.24-.35.39-.72.47-1.11,1.01-1.51,1.88-3.11,2.66-4.96h-.02c.03-.06.06-.13.08-.19,0,0,.01,0,.02-.01,2.84-6.77,1.13-5.92,3.95-20.72,0,0,.01-.01.02-.02.62-3.21,48.47-95.12,73.72-122.12l-.03-.88Z"/>
  <path class="cls-1" d="M1013.8,298.74c0-.1.04-3.53.04-3.32,0-.1-.15-3.52-.14-3.31-.01-.1-.35-3.5-.33-3.3-1.14-11.56-6.31-23.64-14.25-32.13-9.6-10.25-22.78-13.95-36.47-14.67-42.09-2.2-73.84,26.55-100.48,58.95-.09.11-22.97,32.26-56.25,83.59-14.1,21.74-23.73,43.8-37.1,65.99-12.5,20.75-23.75,41.65-35.88,62.61-9.04,15.63-13.24,26.76-23.24,45.41-.56,2.66-.2,5.45.44,10.34.67,5.11.93,5.87.26,7.03-2.63,4.55-11.57,3.62-14.44,6.78-.7.77-.64,1.17-1.03,1.47-3.85,6.29-5.18,8.27-5.49,8.89-.29.59-.91,1.83-.86,1.73-.04.1-.54,1.22-.49,1.12-.6,1.58-.73,2.14-.7,2.04-.02.1-.18,1.03-.17.93,0,.1,0,.81,0,.71.03.24.33.91.28.8.09.09.56.54.47.45.08.03.57.21.64.23.1,0,.52.05.42.04l.39.25c1.76,1.12,5.43-.43,6.64-.76,40.83-11.05,53.01-26.28,50.59-23.69,3.19-4.4,3.46-8.89,3.27-8.07,9.55-42.52,57-172.79,117.8-255.17,25.63-34.72,46.13-45.27,61.68-44.49,3.84.19,7.37,1.08,10.61,2.46,3.36,1.44,9.29,5.3,11.76,7.43,17.69,15.24-22.42,106.17-50.71,130.92-21.09,18.45-35.18,25.8-68.93,14.55-1.02-.34-2.08-.49-3.15-.46-5.79.17-9.99,1.3-11.66,11.26-.11.16-.14.3-.07.47-.8,5.4,1.05,8.12,2.41,9.04,13.66,9.19,77.7-7.94,112.3-29.49,32.26-20.09,78.34-63.24,81.82-116.65ZM819.43,443.88s-.04,0-.05,0c-.03-.02-.06-.04-.09-.08.05.03.09.05.14.08,0,0,0,0,0,0ZM827.65,429.08s-.01,0-.02,0c0,0,.01,0,.02,0h0Z"/>
  <path class="cls-1" d="M706.14,597.66h0s.01,0,0,0Z"/>
  <path class="cls-1" d="M946.14,450.2c.14-.09.28-.17.42-.26l-.58.06c.06.07.11.13.16.2Z"/>
</svg>