<svg xmlns="http://www.w3.org/2000/svg" id="elliptical-society-logotype" viewBox="0 0 1950 763.5">
  <defs>
    <style>
      .st0{fill:currentColor;}
    </style>
  </defs>
  <path d="m1572.2 536.9 9.5-3V531h-25v2.9l9.3 2.9-20.5 33.6-23.7-35.5 9.3-1.1V531h-32.4v2.8l9.1 1.2 28.2 41.6V607l-10.4 1.1v2.9h33.1v-2.9l-10.4-1.1v-31.3l23.8-38.8Zm-115.5-5.9-34.9.2v18.1h3.5l4.1-13.8 21.2-.2v71.8l-11.1 1.1v2.9h34.6v-2.9l-11.1-1.1v-71.8l21.2.2 4.1 13.8h3.6v-18.1l-34.9-.2Zm-49 80 1.4-17.8h-3.1l-5.6 13.6-31.1.4v-35.6h24.2l3.6 9.1h2.5v-22.2h-2.4l-3.7 8.9h-24.2v-32.2l27.5.4 4.1 12.7h3.1v-17h-57.4v2.9l10.4 1.1v72l-10.4 1.1v2.9h61.1Zm-86.9-76 10.4-1.1V531h-33.1v2.9l10.4 1.1v72l-10.4 1.1v2.9h33.1v-2.9l-10.4-1.1zm-95.3 35.6c0-22.8 11.8-37.1 28.6-37.1s11.4.5 17.2 3.6l3.3 18.2h4.2v-20.2c-8.5-3.5-16.4-5.5-24.3-5.5-25.5 0-43.4 15.3-43.4 40.3s12.2 42.2 41.4 42.2 18.3-1.8 26.2-4.5l.7-17.1h-3.2l-4.8 15.1c-5.6 2.4-11.4 3-16.1 3-18.5 0-29.8-15.2-29.8-37.9m-72 37.9c-19.7 0-25.7-16.6-25.7-37.8s6-37.8 25.7-37.8 25.4 15.2 25.4 37.8-6 37.8-25.4 37.8m0 3.7c24.9 0 40-18.2 40-41.5s-15.1-41.5-40-41.5-40.3 18.2-40.3 41.5 15.1 41.5 40.3 41.5m-89.5.1c19.1 0 31.1-9.6 31.1-23.1s-11.7-19.9-22.7-24.4c-9.6-3.9-18.9-7.8-18.9-17.2s8.4-14.8 17.1-14.8 9.1.7 12.7 2.5l3.6 14.8h3.3v-17.3c-6-2.3-13.5-3.8-20.8-3.8-14.2 0-27.8 5.7-27.8 22s11.2 19 23.4 24.2c10 4.2 18.9 8.9 18.9 17.9s-11.8 15.8-19.6 15.8-11.1-1.3-15.4-5l-3.6-15.3h-4.2v18.8c6.6 3.8 16.9 5 22.8 5M1370.6 125.7c.1 0 0 0 .2-.2h-.2ZM1588.8 437.7c.4 0 .5.1 0 0M1590.7 438.1q.3 0 0 0M1591.1 438.2q-.45 0 0 0M864.7 236.1c15.5-6.2 43.3-20.6 52.6-34.3 4.6-1.1 4.3-5.3 1.1-7.8-8.1-8.9-37.5-12.8-38.9-10.9.3 6.5 6.3 1.6-15.9 22.6-2.3 3-7.2 15.5-25.1 31.8-14.5 13.2 11.1 4.6 26.2-1.4M1471.2 318s0 .1 0 0M1471.2 316.2v1.6zM1471.2 317.8v.2zM1471.2 316s0-.1 0 0M1471.2 316v.2zM662.9 492.5v-.3zM701.5 486.3c.1 0 2.3-.8 2.1-.7.1 0 2.1-.9 2-.8.1 0 2-1 1.9-.9.1 0 1.8-1.1 1.7-1.1.1 0 1.7-1.4 1.6-1.3 1.7-1.8 2.4-3.2 2.3-3.1 0-.1 1.1-2.1 1.1-2 13.6-28.4 10.5-29.7 31.3-67.6 16.1-25.8 30.3-50.1 30.2-50 4.4-9.3-.7-11.5-.6-11.4-3.5-1.9-7.6-4.6-9.3-5.5-1.6-1 2.3-3.4 2.2-3.3 3.3-1.3 17-2.7 16.9-2.7 1.8-1.4 3.4-2.9 3.3-2.8.1 0 25.9-27.5 25.8-27.4 16.9-18.6 14.6-18 14.6-17.9 0-.1.4-.8.4-.7 0-.1.3-.7.3-.6.3-1 .3-1.7.3-1.6-.1-.4-.2-.8-.7-1.2l-1-.3c-.1 0-.7.1-.6.1-36.9 15.4-33.8 13.5-33.7 13.4-10.6 2.5-12.1 3-12 3-.1 0-7.3 2.7-7.2 2.6-.7.5-2.1 1.6-2 1.5-.1 0-2.2 1.9-2.1 1.8-.1 0-2.1 2-2 1.9-4.6 4.8-6.7 7.6-6.7 7.6-84.1 111.2-106.2 179.8-106.5 177.8v2.2s.4 1.3.5 1.5c0 0 1.1 1.2 1.3 1.4.6.4 1.9.6 1.8.6h1.4c.1 0 1.6-.1 1.5-.1.1 0 1.8-.3 1.7-.2 6.7-1.3 20.3-6.4 20.2-6.4.1 0 9.6-3.4 9.5-3.4.1 0 4.8-1.1 4.5-1.1.1 0 4.1-1.2 3.8-1.1ZM690.8 342.4c0-.1 3.5-5.2 3.3-4.9 19.7-27.2 27.4-34.3 27.3-34.2 0-.1 6.1-6.5 5.7-6.1 0-.1 6-6.6 5.7-6.2 0-.1 3.6-4.3 3.4-4 1.1-1.3 2.1-2.8 2-2.7 0-.1 1.5-2.7 1.4-2.5 0 0 1.1-2.3 1.2-2.5 0 0 1.6-3.8 1.7-4 4.3-8.9 14.3-14.7 14.2-14.6.1 0 5-3.5 4.6-3.3 9.4-6.7 10.2-7.3 10.1-7.2.1 0 1.7-1.3 1.6-1.2.1 0 1.5-1.2 1.4-1.1 5.5-5.2 2.5-10.5 2.5-10.4 0-.1-.8-1.7-.7-1.6 0-.1-.8-1.5-.8-1.4 0-.1-.8-1.2-.7-1.1 0 0-.4-.6-.4-.7-.1-.2-.4-.8-1.1-.7-.2 0-3.4 1.4-3.3 1.3-.1 0-4.4 1.6-4.1 1.5-3.4 1.1-25.4 11.5-62.2 33.8-2.2 1.4-4.3 2.9-6.1 4.8-42.4 45.4-136.8 229.7-130.1 216.7 0 .1-1.1 2.1-1 2-2.9 5.9-4.3 8.7-4.2 8.5-37.6 79.2-68.3 142.5-68.3 142.4 0 .1.6 1.7.5 1.5.3.5 1 .8.9.7.1 0 .6.1.5 0h.5c.1 0 1.1-.1 1-.1.1 0 1.6-.3 1.5-.3.1 0 1.9-.4 1.8-.4.1 0 2.2-.5 2.1-.5.1 0 2.4-.6 2.3-.6 29.2-8.1 35.2-29.9 42.9-43.3 18-31.5 29.9-62.3 29.8-62.2 0-.1 2.7-4.6 2.5-4.3 93.9-177.7 110.7-191.3 110.6-191.2ZM1898.2 61.2c-1.6-2.5-2.9-2.8-2.8-2.7-.1 0-1.8-.6-1.7-.5-.1 0-1.8-.3-1.7-.2h-3.4c-.1 0-2.4.2-2.2.2-.1 0-3.9.5-3.6.5-.1 0-3.7.6-3.5.6-.1 0-3 .6-2.8.5-.1 0-1.5.3-1.4.3-.1 0-1.3.2-1.2.2-.1 0-1.1.2-1 .2h-.5c-.1 0-10 1.3-9.4 1.2-.1 0-5.6.8-5.3.7-.1 0-3.8.1-3.6.1-.1 0-2.4.3-2.2.2-.1 0-1.9.4-1.8.3-.1 0-1.9.5-1.8.5-.1 0-1.8.8-1.7.7-.1 0-1.7 1.1-1.6 1-.1 0-1.5 1.4-1.4 1.3-.4.5-1.3 1.8-1.3 1.7 0 .1-1.3 2-1.2 1.9 0 .1-1.3 2.2-1.2 2.1 0 .1-1.2 2.4-1.2 2.3 0 0-1.9 4-2 4.3 0 .1-2.3 5.6-2.2 5.2 0 .1-2.3 5.7-2.1 5.3 0 .1-2.2 5.5-2 5.2 0 .1-1.3 3.2-1.2 3 0 .1-1 2.4-.9 2.2 0 .1-.9 2.2-.9 2 0 .1-.9 1.9-.8 1.8 0 .1-1.1 2.2-1 2.1 0 .1-3.6 7.1-3.4 6.7-33.8 51.8-79 126.9-109.3 184.4-8.5 16.3-15.7 28-21.5 37.3-2.5.6-4.7 1-6.2 1.4 0 .2-.2.3-.3.5-6.4 1.4-9.5 2.4-15.2 3.7-5.1 1-4.7.7-10.1 2.1.1-.2.2-.4.3-.5-22 5-26.2 6-40 9.2 1.6-8.2 2.8-13.8 5.3-21.7 3.1-9.7 6.1-16.2 9-22.5 5.3-11.8 4.9-11.9 15.5-29.1 2.2-3.5 2.7-5.7 4.7-7.7 5.2-9.5 19-30.5 25.4-39.6 11.1-13 22.6-26.7 35.5-36.5l.3-.6c1.5-1 4.1-2.2 5.1-3.9 1.4-.7 2.9-1.7 3.1-2.4.5-1.5 1.1-2.1-.2-3.3.4-.7.8-1.5.6-2.3-.6-2-2.8-2.9-4.9-3.4-1.6-1.9-3.7-3.9-6.2-3.6-7.7 1.1-12.9 7.9-29.6 4.2-4.6-1-7.1-1.8-7.8 2.6-.8-1.9-.3-3.1-1.9-5.3-.4-.6-1-1.3-1.8-2.6-6.2-5.6-8.9-5.4-14.3-5.5-.1 0-.4-.2-1.9 1-11.5 1.3-28.3 5.7-45.6 13.4-12.8 4.8-33.9 15.6-39.2 19.4-22.7 15.2-36 28.2-60.7 55.9-71.1 67.6-137.9 108.2-138 108.2-33.4 16.3-48.5 5.1-50.6-13.4-.8-6.7-.7-16.1-.4-19.8.6-.8 0-21 13.9-49.8 16.4-34 36.6-50.4 45.8-57.8 18-14.6 38.3-32.2 61.4-32.8v.8c-4.2 4.7-8.1 9.7-11.9 14.7-.2.6-.6 1.1-1 1.6-.1.1-.6 1.1-1.1 2-6.2 10.8-6.6 10.6-8.3 25.8.8 16.8 7.6 24.4 8.8 26 1.5 1.3 3.9 4.2 7.5 1.6.6-.5 1.3-.9 1.9-1.4 1.8-2.4 20.4-27.9 20.8-28.4 5-6.4 9.7-15.6 11.6-20.2.8-2.1 4-12.9-.5-19.5-3.6-2.8-15.2-7.5-21.3-9.1-14.8-3.8-26.9-6.3-61-1.2-5.3 1.6-52.7 13.3-76.7 49.5-6.8 10.2-14.3 18.1-23.5 40.7-28.1 69.3 8.2 110.4 43.4 110.4s52.6-7.4 164.4-101.6c2.3-1.9 4.8-4.4 7.2-6.9-4.8 7.2-10.1 15.7-15 24.2-3.3 5.6-8.2 17.6-7.4 26.7.2 2.4 1 4.9 1.6 7.2 2.7 9.6 7.8 16 15 23 5.3 5.3 11.7 8.9 16.5 10.2 11 3.1 20.6-.6 30.9-5.6 14.7-7.2 28.6-18.5 40.7-29.6-3.2 10.2-3.4 12.6-4.3 15.2-.2.4-.4.8-.4.9.9 2.5 0 3.5-2.2 9.5 0 .3.2.5.3.7 0 .3-.1.6-.2.9q-.45.15-.9.6c.7.2.4.2 1.1.4.3 0 .5 0 .8-.1.1.2.1.3.3.5.5.2 1 .4 1.6.5-.9.5-2.1 1.2-3 1.7 2.5 3 2.8 5.9 3.3 7.9 47.8-11.1 79.8-18.3 101.6-23.1-.9 1.4-1.7 2.8-2.4 4.1l-.9 1.5c-2.3 4.1-32.7 58.6-33.9 63.2.8 6.4 4.2 5.4 2.6 5.1 1.5.3 2.2.5 3.9.6 1.6-.3 3.2-.7 4.8-1 1.1 0 16-3.5 21.3-6.9 1.5-.4 3.9 0 6.1-.7 3.8-1.3 4.9-2.1 6.2-3.1 2.8-2.1 7.5-6.7 7.4-10.2 0-1.6-1.8-3.5-4.9-3.6-1.2 0-3.6.4-4.3.6 0-.1.1-.3.2-.4-9.2 2.6-36.3 11.2 2.1-4.1l.3-.6c-14-11.4 5.6-27.7 16.4-28.5 7.9-12.6 12.6-20.3 15.5-24.9 5.9-1.2 7.5-1.6 9.6-2.3 12-4 46.4-10.5 46.5-10.6 1.6-.5 28.8-7.6 44.2-15.2 14.9-7.1 21.9-8.7 29.9-15 3.8-3.1 8.4-6 10.2-12.6.7-.8.6-1 .9-2 .4-1.2.1-2.1-1.1-2.6-.2.1-.3.3-.5.4-1.2-1.8-7.5.1-11.6 3-1.3.9-2.1 1.8-2.9 3.2-.4.6-.2 1.4-.2 2.6 0 0 0 .1.2.3-.4 1.6-1 3.2-1.7 4.6-.2.3-.5.6-.8.9-.1 0-4.6 3.7-4.7 3.8-16.3 9.3-45.9 15.1-61.5 19.4v-.4c-9.2 1.1-28.6 4.9-47.7 8.8 4.4-7 10.5-16.7 13.8-22.2.2 0 .4 0 .5-.1 23.7-37.6 52.5-84.7 131.2-200.8-41.4 9.5-34.4 3.9 3.1-4.5 12.7-18.6 17.7-22.7 16.9-25.1v-.2c-.4-1-1-1.6-2-1.9 0-.1 1.4-2.8 1.3-2.7 0-.1.6-1.4.6-1.3 0-.1.4-1.3.4-1.2 0-.1.3-1.2.3-1.1 0-.1.2-1.2.2-1.1 0 0-.2-2-.2-1.7Zm-332.9 235.6c-14.6 17.5-20 25.8-40.4 42.9-1.8 1.6-7.8 6.7-9.9 7.9-2.1 1.3-4.6 2.4-7.2 2.2-1.5 0-2.9-.2-4.2-.9-4.5-2.7-6.7-7.4-4.3-15.2 1.7-5.6 7.1-15.8 9.9-20.9 3.4-6.3 7.7-12.5 14.5-22.5-1 1.3 23-34.4 44-52.2 3.1-2.7 9.2-9.3 24.8-20 24.8-17.1 51.2-27.7 71-31.5-2.8 3.4-14.3 15.5-37.3 41.5-18.5 20.9-28.4 34.7-60.9 68.7M495.3 590l.8-.7c.1 0 1.2-1 1.1-.9 1.3-1 1.1-3 .7-4.1-1.9-29.3 15.9-71.4 29.2-97.2 0 0 26.9-48.9 24.9-45.8 0-.1 1.7-2.7 1.6-2.6 0-.1 3.5-5.7 3.3-5.3 0 0 2.9-4.7 3.1-5 18.8-32 85.2-130.1 84.9-129.5 0-.1.8-1.8.8-1.7 0-.1.7-1.7.6-1.6 1.6-5.1.5-5.7.5-5.6-.6-1-1.3-1.7-1.2-1.6-.1 0-1.2-.8-1.1-.8-5.4-.4-52.1 27.4-52 27.3-.1 0-2.7 1-2.5 1-.1 0-2.4 1.1-2.3 1-6.3 3.1-8.9 8.5-8.8 8.4 0 .1-1.6 1.8-1.5 1.7 0 .1-1.1 1.5-1.1 1.4 0 .1-1 1.4-.9 1.3-14.6 24.6-7.3 15-24 45.1-.4 1.1-17.9 35.8-36.7 74.1 0-.2 0 0-.3.7-1.1 2.2-2.1 4.3-3.2 6.5-21.6 38.4-98 92.9-130 114.1-45.2 29.9-102.8 59.4-116.9 64.9-1.3.5-98.5 38.9-102.7-34.6-2.1-37 47.8-114.6 44.7-109.6 26.2-39.9 72.5-74.5 71.6-73.8 2.2-1.7 10.9-8.5 10.3-8 40.7-30.6 116.4-61.3 111.5-59.3.1 0 7.1-2.8 6.7-2.7.1 0 7.2-2.6 6.7-2.4 16.5-5.1 16.7-5.3 16.7-5.3.1 0 2.4-.9 2.2-.9l.8-.3c5-.2 8.2-4 .9-7.1-5.6-7.8-54.3 4-79.5-51.4-9.2-20.2 6.8-40.4 20.2-53.8 9-9 19.7-16.3 19.3-16 13-9 25.5-17.4 25.3-17.2 97.2-62.1 137.9-42.1 138-42.1.7 0 1.6-.7 2.3-.5.7.1.8.6.9 1.2.1 1-.2 1.3.3 2.1 14.5 23-68.6 63.6-73 96.8-1.2 9.4 4.2 33.9 16.9 25.4 8.7-5.8 16.6-14.6 20.6-18.3 10.7-9.8 34.4-45.4 34-44.8 8.3-13.6 11.6-20.2 11.5-20.1 0-.1 2.2-4.5 2.1-4.2 0-.1 1.7-3.7 1.6-3.5 1.7-4.3 1.1-2.6 2.7-7.2 2.3-6.4 4.9-29.7-5.6-39-17.4-15.4-47.6-15.9-68.6-11.3C381.6 154 288.8 236.5 276.8 263.3c-1.9 4.2-3.1 8.5-3.7 13-4.7 31.6 64.5 62.2 104.4 63.8.1 0 5.2.2 4.9.2-45.9 9.9-278 112.8-304.2 299.6-1.3 9-2.6 17.9-1.4 27 0 0 .7 3.5.7 3.7 6.5 22.9 21.9 31.7 26.8 33.5.9.4 20.4 8.2 95-17.6 78.3-27.2 228-130.6 293.8-193.2-10.6 22.2-19.5 41.4-23 50.6 0 .1-56.4 119.5-56.4 119.6 0 0-1.7 3.1-1.6 2.9 0 .1-1.5 2.8-1.4 2.7 0 0-1.6 3.3-1.7 3.6 0 .1-1.8 4-1.7 3.7 0 0-1.1 2.8-1.2 3 0 .1-1 3.2-.9 3 0 .1-.6 2.8-.5 2.6 0 .1-.1 1.3-.1 1.2 0 .5.3 2.4.3 2.3 0 .1.9 1.8.9 1.7 11.4 3.7 21.6 3 20.1 2.9.1 0 1.8-.2 1.7-.2.1 0 1.8-.6 1.7-.5.1 0 1.4-.9 1.3-.8.9-.7 1.9-2.5 1.9-2.4 0-.1 1-1.8.9-1.7 0-.1 1-2.1.9-2 0-.1 1.1-2.4 1-2.2 0-.1 1.2-2.6 1.1-2.5 0-.1 1.2-2.9 1.2-2.7 0-.1 1.3-3.1 1.2-2.9 0-.1 1.4-3.2 1.3-3 0-.1 1.5-3.3 1.4-3.1 13.4-25.6 8.8-16.5 44.6-69l1.4-1.8 1.4-1.8 1.5-1.8 1.5-1.7 1.5-1.6 1.2-1.1.8-.7ZM93.2 605.6v-.3h.1v.3ZM1283.8 222.3c0-.2-.4-.8-.6-1-3.8-4-6.2-.5-9.9-1-.9-.1-1.8 0-2.5.5-20.5 11.9-35.3 16.6-42 22.5-2 1.8-4.5 6.1-4.4 6-3.3 4.5-9.1 12.8-9.8 14.2-23.5 43.7-32.8 57.3-37.5 65.3-17 27-75.1 54.6-138 93.8-3.6 2.2-7.8-1.8-5.8-5.5 110-199 114.3-188.5 158.7-257.4.6-.9 1.5-1.6 2.6-1.8 39.2-8.5 48.1-9.5 49.6-10.2 8.8-4 60.6-9.4 71.4-11.5 12.9-2.5 36.3-9.5 38-10.7 3-2 19.8-13.4 27.3-19.7 1.8-1.5 1.9-4.3.3-5.9-16.4-17-35.9-25.4-40.6-27.3-.7-.3-1.4-.4-2.2-.3-1.5.2-2.5 1.3-2.4 1.2 0 .1-.7.8-.6.7-2.5 3.2-19.3 22.2-19.2 22.1-.6.8-.5.8-2.4 2.9-2.3 2.6-17.9 15.5-16.9 14.7-10.1 8.1-14 10.3-13.9 10.2-.1 0-3.2 2-3.1 1.8-1.7.9-2.2 1.3-3.2 1.5-42.3 6.6-32.7 3-70.6 11.4 0-.2-.3-.4-.5-.6 15.4-20.7 37.1-45.7 54.7-64.6v-.1c-.2-.9-.3-1.8-.5-2.7-4.2-.1-4.1-.1-5.5-.2-1.2 0-2.3.4-3.1 1.3-5.7 6-14 7.4-22 .9-2.1-1.7-3.5-1.5-4.6-2.6-.9-.8-1.5-1.4-2.8-1.7-.6-.1-2.2-.3-2.1-.3-8.8-.6-17.2 0-16.6 0-6.6.4-7.4 1.7-7.3 1.7-2 1.5-3.8 8.8-4.6 10-1.2 2-1.2 1.9-1.2 2-16.1 23.9-12.1 25.8-45.2 69.5-.6.8-1.4 1.3-2.3 1.5-9.1 2.2-14.2 3-14.4 3.1-133.4 26.1-119.1 36.1-96.9 32.1 3.1-.3 69-12.6 94.5-14.6.9 0 2-.2 3-.3 5.9-.5 5.3-.9 3.2 2.5-.5.8-1.2 2-2.4 4-17.6 28.8-76.3 121.8-146.2 263.1-.1.3-.3.6-.5.8-1.7 2-.6 1.9-1.7 3.7-4.5 7.6-22.4 30.8-7.7 31.8 8.7 1.4 20.2-6.7 22-9.6 3.8-6.2 80.8-61.1 150.1-103.7 3.6-2.2 7.8 1.9 5.7 5.5-2.5 4.3-4.8 8.3-5.9 10.2-4.7 8.2-6 13.6 12.5 7 .8-.3 1.3-.2 2.1-.3 34.7-3.2 42-12.9 42.8-15.7.2-.3.4-.7.5-1.1 1-1.5 1.9-3.1 2.7-5v-.2c2.8-6.8 1.1-5.9 4-20.7.6-3.2 48.5-95.1 73.7-122.1v-.9Z" class="st0"/>
  <path d="M1013.8 298.7v-3.3c0-.1-.2-3.5-.1-3.3 0-.1-.3-3.5-.3-3.3-1.1-11.6-6.3-23.6-14.3-32.1-9.6-10.3-22.8-14-36.5-14.7-42.1-2.2-73.8 26.6-100.5 58.9 0 .1-23 32.3-56.3 83.6-14.1 21.7-23.7 43.8-37.1 66-12.5 20.7-23.8 41.6-35.9 62.6-9 15.6-13.2 26.8-23.2 45.4-.6 2.7-.2 5.4.4 10.3.7 5.1.9 5.9.3 7-2.6 4.5-11.6 3.6-14.4 6.8-.7.8-.6 1.2-1 1.5-3.9 6.3-5.2 8.3-5.5 8.9s-.9 1.8-.9 1.7c0 .1-.5 1.2-.5 1.1-.6 1.6-.7 2.1-.7 2 0 0-.2 1-.2.9v.7c0 .2.3.9.3.8 0 0 .6.5.5.4l.6.2h.4l.4.2c1.8 1.1 5.4-.4 6.6-.8 40.8-11.1 53-26.3 50.6-23.7 3.2-4.4 3.5-8.9 3.3-8.1 9.6-42.5 57-172.8 117.8-255.2 25.6-34.7 46.1-45.3 61.7-44.5s7.4 1.1 10.6 2.5c3.4 1.4 9.3 5.3 11.8 7.4 17.7 15.2-22.4 106.2-50.7 130.9-21.1 18.5-35.2 25.8-68.9 14.6-1-.3-2.1-.5-3.2-.5-5.8.2-10 1.3-11.7 11.3-.1.2-.1.3 0 .5-.8 5.4 1 8.1 2.4 9 13.7 9.2 77.7-7.9 112.3-29.5 32.3-20.1 78.3-63.2 81.8-116.6ZM819.4 443.9h.1ZM946.1 450.2c.1 0 .3-.2.4-.3h-.6c0 .1.1.2.2.3" class="st0"/>
</svg>
