<svg xmlns="http://www.w3.org/2000/svg" width="600" height="235" viewBox="0 0 751.3 423"><path d="M464.3 200.1c-1 .8-40 61.1-40.4 46.3-.2-7 7.2-27.3 18.8-37.9.9-1.3-6.5-2.7-7.4-2.3-10.8 5.8-17.4 14.2-21.4 22.6-6.6 4-19.9 12.3-20.7 12.7-20.2 10.8-49.5 31.5-57.7 17-14.2-24.8 53.6-104.3 77.9-127.1 4.8-4.5 14.1-16.3 21.4-16.1 10.1.3-11.2 32-13.1 34.8-4.4 6.3-12 13.1-13.3 20.9-.5 3.2 1.4 11.7 5.9 8.8 4.2-2.8 10.5-9.7 13.4-14.9 24.8-44.3 22.4-68.8-3.8-53.5-49.4 28.8-102.4 109.7-111 131.3l-.6 1.5c-23 11.4-59.3 30.2-86 52.1 0-1.7-.1-2.7 0-3.7 1.3-11.3 7.2-20.1 10.3-22 23.4-.8 44.6-30 40.2-37.4-5.8-12.5-34 6.8-50.4 31-27.4 10-53.3 22.3-79.4 35.4 3.3-6.4 19.8-34 24.4-41.4 10.6-16.8 21.9-33.5 32.7-48.7 2.4-1.6 4.9-3.1 7.2-4.7 10.8-7.4 21.7-14.8 32.4-22.4 5.6-4 11.1-8.5 16.2-13.1 2.1-1.9 4.2-4.8 4.4-7.4.4-4.1 2-16.4 3.9-24.5 1.8-5.1 4.1-10.5.2-12.3-3.5-3.6-10.8 2.5-15.2 5.5-21.3 14.3-60.7 69.1-71.6 83.8.6.9 1 2.1.8 3.2-.3 2.3-2.2 3.8-4.4 3.9h-.1c-.2 0-.3 0-.5.1-.2.6-.4 1.2-.8 1.7-.1 1.9-1.5 3.6-3.3 4.1-.3 0-.5.1-.8.1-19.5 28.7-57.1 88.1-58.2 94.5-.2.9-23.9 13.5-29.1 23.4-1.5 2.8 13 7.3 16.1 5 5.6-4 14.3-20.6 20-24.2 20-12.5 65.1-37.1 98.6-51.4-4.7 7.5-15.9 26-17 37.5-.3 1.5.6 3.7 1.7 4.9 2.6 2.8 6.9-2.9 53.6-38.5 11.9-9.1 35.5-22.1 52.8-31.2-3.8 10.8-6.4 23.2-2.8 32.5 1.5 3.9 5.2 6.5 9.2 6.4 18.2-.4 66.5-29.8 92.3-46.8-2.3 8.7-2.3 15.7-2.1 17.3.6 4 1.8 5.7 7.2 5 14.6-2.7 36.9-25.5 42.8-32.2 4.8-5.4 9-11.5 13.4-17.3.5-.7 1-1.8.8-2.5-.7-3-5.5-11.6-7.7-9.9Zm-215.7-47.6c-.4 2.4-.8 4.7-1.2 5.9-4.7 16.8-14.8 29.3-30 38-2.4 1.4-4.8 2.9-7.1 4.6 15.6-21.4 29.6-38.9 38.3-48.5Zm6 93.4c1.8-.3 4.2-1 5.3.8 2.5 4-15.9 16.4-20.9 17.6-.1-.2-.3-.3-.4-.5 2.8-4.7 9.5-16.8 16-17.9Zm293.2-58.3c1-.6 1.7-1.5 2.6-2.3-.1-.2-.3-.4-.4-.6-.9.4-1.8.7-2.6 1.2-17.4 2.9-46.6 22.7-61.5 49.9h-.5c-.9-4.6 3.1-26.3 3.5-34.1.4-9.2 3.4-12-11.4 3.5-1.1 1.1-1.7 2.7-2.2 4.2-.4 1.2-1.2 18-1.4 19.9-.9 8 5.8 7.9 2.4 11.6-.8.9-2.1 2-2.1 2.9 0 3.6 7 14.6 7.5 14.2 1.8-1.3 44-60.4 66.3-70.3Zm-9.7 37c2.8-3.6 27.7-36.2 28.1-36.8-.1-.2-.3-.4-.4-.7-5 1.5-11.5 4.5-13.7 5.6-2.1 1-4.7 1.3-6.3 3.4-8.1 7.6-23.3 29.7-26.5 36-2.6 4.8-3.1 10.1-2.5 9.2 3.4-1.3 6.8-2.5 10.1-3.8 1.3-.5 9.7-3 10.4-7.8-1.5.6-2.7 1-4 1.5.7-2.9 3.7-2.4 5-4.1-.2-.9-1.1-1.5-.2-2.6Zm23.8-47.3c5.6-2.8 11.2-5.4 16.2-9.1.5-.3 1.1-.4 1.6-.6 1.2-.5 2.6-.8 3.5-1.7 2.7-2.6 5.2-5.4 7.7-8.3 1.3-1.5.8-3.2 0-4.8-1.1-2.5-2.3-4.9-3.6-7.7-1.9.1-3.1.6-4.1 1.9l-7.2 9.9c-4.8 6.4-8.3 13.9-15.2 18.6 0 0-.2.1-.2.2-.1.5-.3 1-.4 1.6.5 0 1.2.3 1.6 0Zm142.2-17.7c-1-.5-2.1-1.3-2.8 0-1.3 2.4 4.5 4.6-.1 9.5-4.2 4.6-28.9 12.9-37.9 15.4-5 1.7-8.4.1-11.8 3.1-.4.3-1.5.5-1.7.3-.4-.5-.7-1.4-.6-2 .6-2.3 2.2-9.1 2.3-10.9-.9-2.5-13.5 4.7-18.3 7.7-.5.3-.8 1-.9 1.6.6 3.8-.6 8.8-2.7 14.2-18.3 5.5-20.2 8.8-38.4 20.7-3.2 2.1-6.8 3.4-10.6 3.1-8.7-.7-5.3-7.3-2.2-15.6 1.6-4.3 5.2-4.9 10-8.3 5.5-3.8 22-12.9 26.4-27.1.3-1-.1-1.6-1-2.2-5.7-4.4-40.8 9.3-60 59.4-2.8 9.9 9.6 7.2 11.5 6.8 9.1-1.7 22-11 41.8-23.4 13.1-8.2 13.4-7.3 21.3-10.6-5.7 13.1-15.9 27.7-19.2 33.9l.6.6c4.3-2.1 24.5-12.5 26.3-16.8 2.6-6.1 10.5-19.4 12.5-20.2 2.6-.9 24.2-10.6 33-15 7.1-3.6 14-7.8 20.8-12 1.9-1.2 3.3-3.5 4.3-5.6 1.6-3.3.9-4.9-2.4-6.7Zm-104.9 18.5c1.8-.3 4.2-1 5.3.8 2.5 4-15.9 16.4-20.9 17.6-.1-.2-.3-.3-.4-.5 2.8-4.7 9.5-16.8 16-17.9Z" style="fill:#010101"/></svg>