<svg viewBox="0 0 223 26" fill="none" xmlns="http://www.w3.org/2000/svg">
<rect x="8" width="48" height="6" rx="3" fill="currentColor"/>
<rect y="14" width="64" height="12" rx="6" fill="currentColor"/>
<path d="M204.594 0H209.712V14.5213H209.954L212.339 11.7207L216.073 7.74468H221.951L215.036 14.7979L222.677 25.5851H216.592L211.406 17.7021L209.712 19.3963V25.5851H204.594V0Z" fill="currentColor"/>
<path d="M192.714 26C191.308 26 190.041 25.7925 188.911 25.3777C187.805 24.9397 186.86 24.3174 186.076 23.5106C185.315 22.7039 184.728 21.7243 184.313 20.5718C183.898 19.4193 183.69 18.117 183.69 16.6649C183.69 15.2128 183.898 13.9105 184.313 12.758C184.728 11.6055 185.315 10.6259 186.076 9.81915C186.86 9.01241 187.805 8.40159 188.911 7.9867C190.041 7.54876 191.297 7.32979 192.68 7.32979C194.639 7.32979 196.206 7.73316 197.382 8.53989C198.581 9.32358 199.491 10.3723 200.113 11.6862L196.172 13.8298C195.849 13.1383 195.423 12.5621 194.893 12.1011C194.385 11.6401 193.648 11.4096 192.68 11.4096C191.504 11.4096 190.594 11.7553 189.948 12.4468C189.326 13.1152 189.015 14.0372 189.015 15.2128V18.117C189.015 19.2926 189.326 20.2261 189.948 20.9175C190.594 21.586 191.527 21.9202 192.749 21.9202C193.74 21.9202 194.512 21.6897 195.065 21.2287C195.642 20.7677 196.126 20.1684 196.518 19.4308L200.39 21.6436C199.745 22.9574 198.8 24.0177 197.555 24.8245C196.333 25.6082 194.72 26 192.714 26Z" fill="currentColor"/>
<path d="M171.257 26C169.874 26 168.629 25.7925 167.523 25.3777C166.417 24.9397 165.472 24.3174 164.688 23.5106C163.927 22.7039 163.34 21.7243 162.925 20.5718C162.51 19.4193 162.302 18.117 162.302 16.6649C162.302 15.2128 162.51 13.9105 162.925 12.758C163.34 11.6055 163.927 10.6259 164.688 9.81915C165.472 9.01241 166.417 8.40159 167.523 7.9867C168.629 7.54876 169.874 7.32979 171.257 7.32979C172.64 7.32979 173.885 7.54876 174.991 7.9867C176.098 8.40159 177.031 9.01241 177.792 9.81915C178.575 10.6259 179.175 11.6055 179.59 12.758C180.004 13.9105 180.212 15.2128 180.212 16.6649C180.212 18.117 180.004 19.4193 179.59 20.5718C179.175 21.7243 178.575 22.7039 177.792 23.5106C177.031 24.3174 176.098 24.9397 174.991 25.3777C173.885 25.7925 172.64 26 171.257 26ZM171.257 22.1968C172.41 22.1968 173.309 21.8395 173.954 21.125C174.599 20.4105 174.922 19.3963 174.922 18.0824V15.2473C174.922 13.9335 174.599 12.9193 173.954 12.2048C173.309 11.4902 172.41 11.133 171.257 11.133C170.105 11.133 169.206 11.4902 168.56 12.2048C167.915 12.9193 167.592 13.9335 167.592 15.2473V18.0824C167.592 19.3963 167.915 20.4105 168.56 21.125C169.206 21.8395 170.105 22.1968 171.257 22.1968Z" fill="currentColor"/>
<path d="M142.712 21.609H146.826V11.7207H142.712V7.74467H151.944V12.7925H152.186C152.347 12.1472 152.566 11.5248 152.842 10.9255C153.142 10.3032 153.511 9.76152 153.949 9.30053C154.41 8.81648 154.963 8.43617 155.608 8.15957C156.254 7.88297 157.014 7.74467 157.89 7.74467H159.584V12.4468H155.781C154.514 12.4468 153.557 12.8271 152.912 13.5878C152.266 14.3253 151.944 15.2358 151.944 16.3191V21.609H157.821V25.5851H142.712V21.609Z" fill="currentColor"/>
<path d="M133.01 22.3351H132.768C132.307 23.4184 131.662 24.3058 130.832 24.9973C130.025 25.6658 128.907 26 127.478 26C126.487 26 125.577 25.8156 124.747 25.4468C123.94 25.078 123.237 24.5133 122.638 23.7527C122.062 22.992 121.601 22.0239 121.255 20.8484C120.932 19.6729 120.771 18.2784 120.771 16.6649C120.771 15.0514 120.932 13.6569 121.255 12.4814C121.601 11.3058 122.062 10.3378 122.638 9.57713C123.237 8.81649 123.94 8.25177 124.747 7.88298C125.577 7.51418 126.487 7.32979 127.478 7.32979C128.193 7.32979 128.827 7.42199 129.38 7.60638C129.933 7.79078 130.417 8.04432 130.832 8.36702C131.27 8.68971 131.639 9.08156 131.938 9.54255C132.261 9.98049 132.538 10.4645 132.768 10.9947H133.01V0H138.127V25.5851H133.01V22.3351ZM129.691 22.0239C130.59 22.0239 131.362 21.805 132.008 21.367C132.676 20.9291 133.01 20.2376 133.01 19.2926V14.0372C133.01 13.0922 132.676 12.4007 132.008 11.9628C131.362 11.5248 130.59 11.3058 129.691 11.3058C128.539 11.3058 127.651 11.6631 127.029 12.3777C126.407 13.0691 126.095 14.0372 126.095 15.2819V18.0479C126.095 19.2925 126.407 20.2722 127.029 20.9867C127.651 21.6782 128.539 22.0239 129.691 22.0239Z" fill="currentColor"/>
<path d="M109.548 26C106.551 26 104.281 25.1702 102.737 23.5106C101.192 21.8511 100.42 19.5922 100.42 16.734C100.42 15.2819 100.616 13.9796 101.008 12.8271C101.423 11.6516 101.999 10.6605 102.737 9.85372C103.497 9.02393 104.408 8.40159 105.468 7.9867C106.551 7.54876 107.761 7.32979 109.098 7.32979C110.435 7.32979 111.634 7.54876 112.694 7.9867C113.754 8.40159 114.653 9.00089 115.391 9.78457C116.128 10.5683 116.693 11.5248 117.085 12.6543C117.5 13.7606 117.707 15.0053 117.707 16.3883V17.9096H105.502V18.2207C105.502 19.3732 105.86 20.3067 106.574 21.0213C107.289 21.7128 108.338 22.0585 109.721 22.0585C110.781 22.0585 111.691 21.8626 112.452 21.4707C113.213 21.0558 113.869 20.5142 114.423 19.8457L117.189 22.8537C116.497 23.7066 115.529 24.4441 114.284 25.0665C113.04 25.6888 111.461 26 109.548 26ZM109.133 10.9947C108.026 10.9947 107.139 11.3404 106.471 12.0319C105.825 12.7004 105.502 13.6108 105.502 14.7633V15.0399H112.694V14.7633C112.694 13.5878 112.371 12.6658 111.726 11.9973C111.104 11.3289 110.239 10.9947 109.133 10.9947Z" fill="currentColor"/>
<path d="M80 0H85.117V10.9947H85.359C85.797 9.9344 86.4309 9.05851 87.2606 8.36702C88.0904 7.67553 89.2199 7.32979 90.6489 7.32979C91.6401 7.32979 92.539 7.51418 93.3457 7.88298C94.1755 8.25177 94.8785 8.81649 95.4548 9.57713C96.0541 10.3378 96.5151 11.3058 96.8378 12.4814C97.1835 13.6569 97.3564 15.0514 97.3564 16.6649C97.3564 18.2784 97.1835 19.6729 96.8378 20.8484C96.5151 22.0239 96.0541 22.992 95.4548 23.7527C94.8785 24.5133 94.1755 25.078 93.3457 25.4468C92.539 25.8156 91.6401 26 90.6489 26C89.2199 26 88.0904 25.6658 87.2606 24.9973C86.4309 24.3058 85.797 23.4184 85.359 22.3351H85.117V25.5851H80V0ZM88.4362 22.0239C89.5887 22.0239 90.4761 21.6782 91.0984 20.9867C91.7207 20.2722 92.0319 19.2925 92.0319 18.0479V15.2819C92.0319 14.0372 91.7207 13.0691 91.0984 12.3777C90.4761 11.6631 89.5887 11.3058 88.4362 11.3058C87.5372 11.3058 86.7535 11.5248 86.0851 11.9628C85.4397 12.4007 85.117 13.0922 85.117 14.0372V19.2926C85.117 20.2376 85.4397 20.9291 86.0851 21.367C86.7535 21.805 87.5372 22.0239 88.4362 22.0239Z" fill="currentColor"/>
</svg>
